<?xml version="1.0" encoding="utf-8"?>
<!-- Generator: Adobe Illustrator 16.0.0, SVG Export Plug-In . SVG Version: 6.00 Build 0)  -->
<!DOCTYPE svg PUBLIC "-//W3C//DTD SVG 1.1//EN" "http://www.w3.org/Graphics/SVG/1.1/DTD/svg11.dtd">
<svg version="1.1" id="Layer_1" xmlns="http://www.w3.org/2000/svg" xmlns:xlink="http://www.w3.org/1999/xlink" x="0px" y="0px"
	 width="127.145px" height="388.606px" viewBox="0 0 127.145 388.606" enable-background="new 0 0 127.145 388.606"
	 xml:space="preserve">
<g>
	<path fill="#FFFFFF" d="M95.345,61.169c6.312,12.163,7.871,24.517,5.065,37.504c-0.815,3.78-1.965,7.385-3.811,10.782
		c-1.254,2.307-3.118,3.59-5.742,3.691c-2.075,0.08-4.155,0.073-6.229,0.14c-1.696,0.054-2.105,0.359-2.114,1.857
		c-0.031,5.592-0.005,11.185,0.008,16.778c0.003,1,0.614,1.403,1.53,1.382c2.571-0.06,5.087,0.116,7.528,1.075
		c2.521,0.992,4.37,2.591,5.329,5.157c0.336,0.897,0.841,1.759,1.005,2.684c0.477,2.671,1.853,4.437,4.252,5.846
		c2.388,1.401,3.616,3.968,4.478,6.605c1.421,4.352,1.554,8.795,0.82,13.265c-0.569,3.463-2.374,6.297-5.173,8.344
		c-1.568,1.149-2.222,2.496-2.517,4.349c-0.425,2.668-1.135,5.295-1.79,7.922c-1.119,4.489-4.084,7.074-8.522,8.082
		c-0.624,0.142-1.25,0.271-1.878,0.391c-0.903,0.171-1.438,0.627-1.25,1.621c0.291,1.55,0.24,3.171,1.35,4.517
		c1.384,1.682,1.805,3.723,1.698,5.853c-0.069,1.384,0.469,2.403,1.36,3.425c2.564,2.934,4.081,6.442,5.319,10.098
		c2.21,6.522,3.714,13.205,4.737,20.006c2.341,15.564,2.192,31.199,1.384,46.855c-0.198,3.827-0.405,7.658-0.479,11.49
		c-0.137,7.197-1.178,14.302-2.113,21.414c-0.421,3.205-2.239,5.654-5.068,7.161c-1.394,0.745-1.727,1.722-1.618,3.101
		c0.151,1.91,0.278,3.823,0.422,5.734c0.505,6.684,0.982,13.367,1.529,20.045c0.431,5.276-1.258,9.685-5.008,13.419
		c-5.582,5.563-11.798,10.395-18.586,14.249c-6.504,3.695-13.556,3.283-20.202-0.218c-2.233-1.175-4.305-2.763-6.191-4.453
		c-1.395-1.251-2.612-2.126-4.617-1.787c-2.557,0.435-5.081-0.105-7.569-0.78c-8.435-2.287-13.604-9.681-12.592-18.413
		c0.31-2.669,1.184-5.282,1.92-7.888c0.608-2.153,0.991-4.229,0.851-6.55c-0.313-5.144,0.639-10.173,2.615-14.971
		c0.364-0.886,0.732-1.773,1.154-2.632c0.415-0.847,0.231-1.578-0.42-2.145c-2.249-1.951-2.541-4.554-2.889-7.321
		c-1.181-9.394-1.233-18.822-0.896-28.233c0.578-16.115,1.366-32.226,4.448-48.12c1.465-7.552,3.337-14.957,7.097-21.754
		c0.464-0.837,0.832-1.75,1.415-2.495c1.507-1.924,2.833-3.82,2.074-6.504c-0.198-0.701,0.059-1.604,0.308-2.347
		c1.311-3.9,2.64-7.797,4.076-11.652c0.359-0.965,0.419-1.768,0.133-2.744c-0.628-2.137-1.348-4.286-1.62-6.481
		c-0.612-4.914,0.508-9.569,3.078-13.768c1.246-2.033,1.768-3.893,1.156-6.284c-0.465-1.817-0.308-3.809-0.315-5.723
		c-0.058-12.623-0.084-25.247-0.136-37.87c-0.001-0.266-0.19-0.532-0.299-0.818c-1.181-0.256-1.551,0.844-2.234,1.381
		c-5.157,4.047-11.99,4.179-17.367,0.513c-3.015-2.057-5-4.584-6.266-8.113C13.61,105.678,8.899,93.638,4.354,81.539
		c-1.233-3.282-2.434-6.58-3.502-9.918c-2.062-6.435-0.295-11.984,4.335-16.66c2.463-2.487,5.593-3.648,9.136-3.461
		c1.353,0.071,2.419-0.213,3.374-1.32c7.063-8.186,15.713-14.495,24.649-20.409C57.869,19.497,74.623,11.691,92.286,5.92
		c6.199-2.024,12.649-3.306,19.027-4.739c2.787-0.627,5.674-0.853,8.528-1.133c3.762-0.368,6.42,1.401,7.172,4.826
		c0.226,1.027,0.148,2.228-0.152,3.241c-0.542,1.823-1.174,3.668-2.091,5.325c-6.647,12.007-12.878,24.26-20.701,35.58
		C101.258,53.088,98.303,57.058,95.345,61.169"/>
	<path d="M89.288,61.686c6.957,10.008,8.619,20.662,7.107,31.961c-0.4,2.996-1.155,5.952-1.882,8.894
		c-0.302,1.224-0.963,2.358-1.445,3.54c-0.815,1.999-2.24,3.014-4.455,2.916c-2.074-0.091-4.153-0.081-6.229-0.135
		c-0.793-0.02-1.589-0.179-2.375-0.131c-1.86,0.115-2.5,0.775-2.51,2.709c-0.029,6.233-0.011,12.467-0.003,18.7
		c0.003,2.237,0,4.475,0.058,6.712c0.028,1.104,0.65,1.769,1.792,1.792c2.078,0.042,4.158-0.006,6.233,0.086
		c1.264,0.057,2.549,0.185,3.771,0.495c1.627,0.412,2.854,1.424,3.357,3.105c0.641,2.139,1.273,4.281,1.85,6.439
		c0.344,1.298,0.74,2.33,2.368,2.554c2.689,0.371,4.076,2.344,4.957,4.686c1.51,4.016,1.443,8.177,0.635,12.285
		c-0.445,2.269-1.984,4.137-4.141,4.998c-1.986,0.793-2.484,2.133-2.75,4.009c-0.358,2.521-0.987,5.005-1.521,7.5
		c-0.166,0.779-0.361,1.554-0.603,2.312c-1.191,3.737-3.051,5.268-6.929,5.399c-2.39,0.081-4.786-0.172-7.182-0.173
		c-0.522-0.001-1.14,0.335-1.526,0.709c-0.16,0.154,0.068,0.893,0.308,1.236c0.454,0.65,1.203,1.127,1.541,1.817
		c0.762,1.559,1.708,3.158,1.918,4.824c0.278,2.209,0.245,4.263,2.214,5.916c1.132,0.951,0.945,2.707,0.545,4.098
		c-0.422,1.464,0.055,2.414,1.092,3.36c3.435,3.128,5.221,7.255,6.523,11.552c2.693,8.887,4.46,17.956,5.145,27.245
		c0.942,12.774,0.928,25.534,0.066,38.306c-0.258,3.826-0.107,7.681-0.433,11.496c-0.543,6.352-1.261,12.688-2.035,19.014
		c-0.251,2.057-1.699,3.609-3.583,4.174c-3.393,1.015-3.566,3.129-3.232,6.18c0.871,7.933,1.375,15.908,2.008,23.868
		c0.102,1.272,0.095,2.554,0.163,3.831c0.166,3.05-0.896,5.686-2.934,7.861c-1.743,1.861-3.584,3.668-5.583,5.243
		c-3.513,2.769-7.108,5.446-10.798,7.972c-5.698,3.899-11.741,3.816-17.688,0.707c-2.216-1.16-4.339-2.814-5.961-4.709
		c-1.68-1.966-3.338-2.62-5.813-2.2c-1.708,0.289-3.519,0.216-5.256,0.043c-6.568-0.654-11.879-5.786-11.174-13.048
		c0.275-2.825,1.14-5.611,1.92-8.362c0.656-2.313,1.119-4.51,0.906-7.013c-0.592-6.919,1.628-13.223,5.081-19.143
		c0.886-1.521,0.838-1.586-0.635-2.626c-0.262-0.183-0.529-0.363-0.808-0.517c-2.135-1.178-2.833-2.858-3.148-5.397
		c-1.366-10.996-1.337-21.985-0.716-33.004c0.378-6.697,0.788-13.394,1.279-20.085c0.62-8.448,1.644-16.854,3.425-25.14
		c1.829-8.505,4.523-16.659,10.445-23.354c0.578-0.655,0.69-1.401,0.299-2.211c-1.262-2.604-0.641-4.929,0.955-7.185
		c0.521-0.738,1.071-1.705,1.033-2.542c-0.111-2.574,0.746-4.708,2.403-6.569c0.923-1.036,0.656-1.962,0.074-3.038
		c-1.227-2.265-2.034-4.672-2.265-7.266c-0.399-4.488,0.686-8.618,3.285-12.234c1.426-1.981,1.66-3.866,1.407-6.247
		c-0.522-4.913-0.76-9.874-0.795-14.818c-0.098-13.745-0.032-27.49-0.032-41.235c0-1.118,0.004-2.237-0.018-3.354
		c-0.021-0.979-0.627-1.435-1.524-1.443c-1.112-0.008-2.262-0.068-3.33,0.179c-2.024,0.469-2.866,1.693-2.853,3.788
		c0.004,0.638,0.097,1.274,0.116,1.913c0.114,3.713-1.452,6.494-4.738,8.219c-3.479,1.827-6.665,1.341-9.828-1.031
		c-2.13-1.596-3.612-3.421-4.531-5.926C16.752,101.051,11.089,85.949,5.5,70.82c-1.529-4.139-0.577-7.9,2.253-11.144
		c2.264-2.596,5.119-3.825,8.587-2.67c1.195,0.398,2.079,0.406,2.921-0.702c5.581-7.348,12.701-13.048,20.163-18.3
		C58.95,24.261,80.232,14.217,103.357,8.146c5.116-1.343,10.318-2.162,15.582-2.599c0.636-0.052,1.275-0.096,1.91-0.077
		c0.84,0.024,1.471,0.822,1.183,1.656c-0.623,1.803-1.177,3.668-2.086,5.328c-4.766,8.684-9.392,17.459-14.546,25.911
		c-4.067,6.673-8.826,12.925-13.286,19.36C91.208,59.032,90.267,60.315,89.288,61.686"/>
	<path fill="#FF9900" d="M39.423,355.598c-2.569-0.962-3.972-3.128-5.181-5.346c-0.571-1.049-0.737-2.419-0.759-3.647
		c-0.12-7.096,2.206-13.392,6.369-19.137c2.718,0.7,5.286,1.599,7.929,1.995c7.105,1.069,14.254,1.523,21.444,0.856
		c2.53-0.236,5.079-0.288,7.619-0.425c4.515,6.476,4.906,13.952,4.706,21.393c-0.085,3.16-3.687,4.946-7.303,4.573
		c-1.954-0.201-3.594-1.26-5.397-1.864c-1.356-1.266-2.713-2.529-4.063-3.799c-1.152-1.083-1.588-2.229-0.629-3.739
		c0.219-0.34-0.057-1.368-0.414-1.595c-0.345-0.22-1.217,0.022-1.634,0.348c-1.469,1.147-2.842,2.417-4.252,3.642
		c-2.61,1.119-4.676,3.11-7.173,4.433C47.132,355.166,43.449,356.152,39.423,355.598"/>
	<path fill="#FE9900" d="M66.374,165.874c-4.017,0.373-7.855,1.3-11.343,3.443c-0.846,0.519-1.511,0.038-1.49-1.002
		c0.046-2.394,0.193-4.787,0.201-7.181c0.051-15.808,0.076-31.615,0.11-47.424c0.002-1.116-0.098-2.251,0.073-3.341
		c0.075-0.474,0.651-0.975,1.125-1.247c0.369-0.212,0.934-0.128,1.407-0.107c2.85,0.127,5.696,0.274,8.545,0.413
		c1.432,2.716,0.473,5.59,0.465,8.376c-0.017,5.605,0.419,11.16,1.224,16.695c0.061,0.407,0.479,0.763,0.731,1.142
		c0.317-0.415,0.752-0.786,0.926-1.254c0.322-0.868,0.493-1.792,0.728-2.693c2.508,4.264,1.638,8.711,0.724,13.151
		c-2.007,2.132-2.106-0.493-3.446-1.555c0.705,1.714,2.079,2.285,2.642,3.437C69.988,153.37,68.606,159.68,66.374,165.874"/>
	<path fill="#FEFEFE" d="M36.896,111.44c-0.448,1.695-0.716,3.46-1.383,5.057c-0.955,2.283-3.921,2.82-5.53,0.966
		c-1.01-1.162-1.718-2.662-2.288-4.117c-4.766-12.171-9.455-24.371-14.201-36.55c-0.926-2.374-1.866-4.76-3.039-7.015
		c-1.089-2.093-0.839-4.006,0.185-5.922c1.41-2.64,3.398-3.103,5.932-1.522c1.975,1.233,3.15,2.918,3.964,5.16
		c4.515,12.435,9.189,24.812,13.828,37.202c0.557,1.49,1.25,2.929,1.831,4.411C36.479,109.84,36.65,110.616,36.896,111.44"/>
	<path fill="#CCCDCD" d="M73.977,103.316c-8.473,0.544-18.167,0.443-22.154-0.295c1.425-1.887,3.229-3.162,4.736-4.705
		c1.563-1.601,3.185-3.144,4.755-4.737c1.57-1.595,3.118-3.211,4.655-4.836c1.428-1.51,2.834-3.039,4.239-4.569
		c1.516-1.647,3.024-3.298,4.524-4.96c1.494-1.656,2.973-3.326,4.661-5.214c0.671,0.828,1.366,1.458,1.778,2.237
		c1.979,3.734,2.654,7.828,3.193,11.96c0.204,1.571,0.523,3.134,0.901,4.673c0.259,1.049,0.544,1.024,2.041-0.034
		c1.412,3.637,0.1,5.992-3.376,7.473C80.715,101.681,77.223,102.08,73.977,103.316"/>
	<path fill="#F7F8F8" d="M54.314,324.8c7.358-1.633,13.869-3.076,20.379-4.518c0.311-0.068,0.642-0.07,0.939-0.174
		c2.996-1.058,5.988-2.13,8.981-3.198c1.331-2.953,1.475-6.144,1.799-9.285c0.785-7.61,1.563-15.223,2.187-22.848
		c0.233-2.841,0.025-5.717,0.033-8.577c0.007-1.59-0.034-3.188,0.112-4.769c0.051-0.558,0.511-1.159,0.948-1.569
		c0.288-0.269,0.911-0.389,1.301-0.28c0.352,0.1,0.798,0.576,0.839,0.931c0.127,1.102,0.138,2.227,0.099,3.341
		c-0.259,7.332-0.53,14.663-0.817,21.994c-0.212,5.418-0.504,10.833-0.658,16.253c-0.063,2.222,0.046,4.463,0.267,6.676
		c0.119,1.202-0.405,1.79-1.319,2.222c-3.358,1.588-6.988,2.231-10.601,2.784c-7.266,1.115-14.584,1.678-21.945,1.341
		C56.227,325.096,55.6,324.968,54.314,324.8"/>
	<path fill="#F9FAFA" d="M80.287,217.186c3.347,1.929,4.828,4.918,5.714,8.135c3.356,12.189,5.538,24.574,5.701,37.259
		c0.006,0.478-0.007,0.957-0.027,1.435c-0.039,0.901-0.454,1.504-1.397,1.61c-5.992,0.671-11.748,2.845-17.864,2.75
		c-5.745-0.091-11.492-0.099-17.238-0.156c-0.541-0.006-1.081-0.119-1.615-0.527c2.173-0.26,4.344-0.563,6.521-0.772
		c4.958-0.477,9.692-1.874,14.403-3.388c3.64-1.17,7.277-2.345,10.936-3.454c1.258-0.381,1.852-1.109,1.831-2.405
		c-0.064-3.824,0.083-7.665-0.218-11.471c-0.352-4.448-0.979-8.882-1.685-13.29c-0.759-4.734-2.1-9.32-4.188-13.664
		C80.838,218.575,80.576,217.874,80.287,217.186"/>
	<path fill="#CBCBCB" d="M69.942,194.543c-2.438,2.357-5.47,3.147-8.729,3.193c-4.676,0.066-7.812-2.1-9.553-6.517
		c-1.286-3.261-1.316-6.54,0.133-9.757c1.606-3.567,3.892-6.526,7.644-8.082c9.051,1.72,12.705,7.142,10.659,15.963
		C69.69,191.097,69.739,192.803,69.942,194.543"/>
	<path fill="#F7FAFA" d="M115.133,9.914c-1.094,1.973-1.651,3.464-2.634,4.582c-0.65,0.738-1.873,1.096-2.906,1.354
		c-3.861,0.96-7.808,1.615-11.618,2.735c-12.775,3.754-24.706,9.338-35.688,16.907c-1.291,0.89-2.615,1.731-4.137,2.733
		c-0.681-1.589-1.228-2.863-1.9-4.434C74.597,23.051,94.027,15.479,115.133,9.914"/>
	<path fill="#FC9902" d="M60.631,362.568c-0.04-3.052,0.562-5.942,1.967-8.667c0.454,0.199,0.829,0.251,1.014,0.465
		c3.161,3.626,7.328,5.606,11.746,7.131c1.49,0.514,3.082,0.734,4.629,1.081c0.849,0.188,2.14-0.447,2.379,0.817
		c0.105,0.551-0.621,1.418-1.178,1.902c-1.542,1.343-3.193,2.561-4.802,3.827c-0.305,0.099-0.617,0.187-0.896,0.341
		C66.349,374.513,62.596,372.771,60.631,362.568"/>
	<path fill="#FAFBFB" d="M73.977,103.316c0.58-1.008,1.464-1.517,2.577-1.863c2.687-0.835,5.323-1.823,7.997-2.705
		c0.958-0.317,1.644-0.755,1.833-1.857c0.233-1.365,0.609-2.705,0.924-4.055c1.774-8.151-0.402-15.444-5.048-22.398
		c1.068-1.359,2.127-2.704,3.307-4.203c1.608,1.326,2.166,2.951,2.826,4.486c1.524,3.55,2.4,7.303,2.722,11.115
		c0.563,6.694,0.436,13.397-0.69,20.049c-0.282,1.668-0.377,1.758-2.144,1.829C83.504,103.907,78.726,104.135,73.977,103.316"/>
	<path fill="#F1F4F4" d="M65.273,66.788c-2.99-2.416-4.355-5.256-5.592-8.096c-1.842-4.231-3.457-8.561-5.133-12.862
		c-1.355-3.483-2.636-4.282-6.142-3.031c-2.372,0.845-4.778,1.935-6.768,3.444c-4.311,3.268-8.403,6.83-12.505,10.365
		c-1.929,1.663-3.661,3.553-5.517,5.304c-0.153,0.143-0.616,0.09-0.848-0.034c-0.134-0.071-0.224-0.565-0.117-0.701
		c1.562-2.005,2.997-4.145,4.778-5.939c7.455-7.509,16.001-13.633,24.963-19.199c1.172-0.728,1.738-0.549,2.178,0.645
		c3.398,9.266,6.783,18.538,10.157,27.812C64.934,65.057,65.01,65.662,65.273,66.788"/>
	<path fill="#FCFBF9" d="M68.132,145.557c0.228-0.399,0.641-0.792,0.653-1.197c0.134-4.218,0.202-8.438,0.289-12.662
		c0.282-5.572,0.57-11.14,0.841-16.708c0.069-1.433,0.069-2.868,0.129-4.301c0.032-0.813,0.169-1.671,1.261-1.549
		c1.063,0.12,0.942,1.054,1.003,1.812c0.012,0.158,0.001,0.318,0.002,0.478c0.006,17.369,0.009,34.738,0.023,52.107
		c0.002,3.501-0.053,4.049-3.724,2.826c-0.354-0.094-0.708-0.18-1.065-0.259c-0.392-0.077-0.78-0.154-1.171-0.231
		c0.132-1.887,0.17-3.787,0.41-5.661c0.629-4.889,1.864-9.717,1.382-14.71L68.132,145.557z"/>
	<path fill="#FBFCFC" d="M69.942,194.543c-1.004-0.231-1.888-0.686-1.731-1.868c0.184-1.395,0.316-2.882,0.904-4.124
		c2.918-6.165-1.872-10.899-6.091-13.094c-1.232-0.642-2.804-0.664-3.588-2.077c2.565-2.021,5.554-2.262,8.585-1.774
		c4.604,0.741,6.975,2.78,7.695,7.773C76.581,185.356,75.15,190.74,69.942,194.543"/>
	<path fill="#E6E7E7" d="M40.043,319.722c1.316-6.193,1.633-11.924,2.021-17.633c0.675-9.884,1.374-19.772,0.668-29.691
		c-0.043-0.612,0.079-1.256,0.246-1.852c0.058-0.207,0.475-0.337,0.75-0.443c0.078-0.03,0.306,0.116,0.345,0.225
		c0.268,0.73,0.698,1.468,0.712,2.21c0.046,2.716,0.073,5.443-0.113,8.15c-0.897,12.937-0.592,25.878-0.259,38.821
		c0.024,0.959,0.149,1.926,0.052,2.869c-0.031,0.306-0.658,0.816-0.964,0.782c-3.721-0.397-7.077-1.832-10.182-3.862
		c-1.188-0.775-0.783-1.984-0.477-3.038c0.074-0.255,0.84-0.598,1.041-0.479c1.375,0.804,2.681,1.724,4.014,2.599
		C38.411,318.718,38.938,319.032,40.043,319.722"/>
	<path fill="#E3E5E5" d="M42.004,262.682c1.479-4.425,1.508-8.761,2.064-13.006c1.163-8.842,2.42-17.665,4.485-26.353
		c0.147-0.62,0.26-1.249,0.429-1.862c0.575-2.08,0.707-2.131,3.59-1.447c-2.006,5.714-3.789,11.477-4.84,17.454
		c-1.464,8.326-2.644,16.673-2.718,25.145c-0.009,0.956-0.01,1.914-0.073,2.867c-0.079,1.15-0.678,1.559-1.985,1.195
		c-1.99-0.554-3.968-1.171-5.916-1.854c-2.401-0.844-2.501-1.056-2.308-3.399c0.225-2.711,0.696-2.915,3.146-1.359
		C39.199,260.902,40.521,261.741,42.004,262.682"/>
	<path fill="#FBFCFC" d="M61.854,207.496c-2.055-0.145-3.973-0.183-5.857-0.446c-1.401-0.197-2.811-0.561-4.132-1.071
		c-2.192-0.846-2.489-2.119-1.139-4.063c0.612-0.883,1.272-1.235,2.381-0.703c7.295,3.504,13.88,1.958,19.968-2.912
		c0.6-0.48,1.166-1.242,2.042-0.735c1.332,0.772,2.623,4.129,2.043,5.509c-0.285,0.675-0.897,1.455-1.544,1.691
		c-2.372,0.869-4.783,1.721-7.251,2.212C66.199,207.411,63.936,207.35,61.854,207.496"/>
	<path fill="#F6F9F9" d="M59.661,215.699c-2.233,0-4.477,0.117-6.697-0.042c-1.407-0.102-2.821-0.514-4.162-0.983
		c-0.704-0.247-1.36-0.834-1.86-1.418c-0.663-0.774-0.769-1.682-0.158-2.633c0.628-0.978,1.428-1.179,2.44-0.749
		c4.211,1.787,8.649,2.126,13.146,2.021c5.932-0.139,11.83-0.432,16.797-4.342c0.444-0.351,1.104,0.292,1.269,0.978
		c0.256,1.064-0.157,1.891-0.769,2.645c-1.141,1.406-2.621,2.376-4.389,2.721c-3.278,0.641-6.567,1.268-9.88,1.683
		c-1.884,0.237-3.822,0.043-5.735,0.043C59.662,215.648,59.662,215.674,59.661,215.699"/>
	<path fill="#F6F5F3" d="M68.851,353.997c0.931,0.131,1.858,0.282,2.793,0.387c1.26,0.138,2.538,0.422,3.783,0.323
		c4.388-0.348,5.251-1.236,5.036-5.608c-0.138-2.851-0.536-5.711-1.086-8.516c-0.703-3.59-1.676-7.128-2.532-10.689
		c0.737-0.281,1.458-0.668,2.223-0.812c0.747-0.142,1.541-0.031,2.511-0.031c0.193,1.937,0.414,3.821,0.564,5.71
		c0.591,7.475,1.184,14.95,1.723,22.429c0.154,2.132-0.292,2.516-2.477,2.186C76.749,358.674,72.471,357.092,68.851,353.997"/>
	<path fill="#F59300" d="M48.064,370.732c3.103-4.334,6.036-8.432,8.966-12.522c1.085,0.194,0.704,1.015,0.625,1.482
		c-0.881,5.228-1.084,10.444-0.079,15.683c0.072,0.375-0.12,1.048-0.388,1.179c-0.342,0.168-0.989,0.074-1.325-0.163
		C53.273,374.564,50.727,372.675,48.064,370.732"/>
	<path fill="#FCF7F4" d="M60.631,362.568c0.725,1.576,1.396,3.181,2.186,4.726c1.993,3.903,4.433,4.907,8.648,3.571
		c1.657-0.526,3.281-1.157,4.921-1.74c-0.951,0.786-1.903,1.572-2.855,2.358l-0.107,0.108c-1.938,1.384-3.813,2.869-5.834,4.116
		c-1.325,0.818-2.821,1.426-4.315,1.883c-1.642,0.502-2.242,0.031-2.537-1.803C60.03,371.391,59.393,366.985,60.631,362.568"/>
	<path fill="#F89702" d="M32.438,366.521c-1.611-1.195-1.851-2.969-1.725-4.728c0.193-2.688,0.618-5.36,1.011-8.577
		c1.984,1.828,3.459,3.439,5.186,4.706c1.782,1.31,3.811,2.283,5.73,3.403C40.743,365.479,37.404,367.179,32.438,366.521"/>
	<path fill="#E8E9E9" d="M80.737,246.989c-0.112,0.828-0.148,1.303-0.245,1.766c-0.195,0.93-1.149,1.637-2.107,1.563
		c-0.882-0.069-1.573-0.558-1.713-1.393c-0.288-1.718-0.682-3.481-0.559-5.191c0.451-6.216-1.28-11.926-3.641-17.536
		c-0.227-0.54-0.195-1.194-0.239-1.799c-0.009-0.104,0.189-0.283,0.323-0.324c0.28-0.086,0.681-0.242,0.854-0.119
		c0.372,0.265,0.732,0.642,0.921,1.054c0.853,1.87,1.831,3.712,2.421,5.668c1.191,3.952,2.195,7.961,3.202,11.966
		C80.339,244.176,80.521,245.759,80.737,246.989"/>
	<path fill="#E48900" d="M88.85,148.919c1.497,2.644,1.621,4.922,1.157,7.344c-0.388,2.023-0.628,4.077-0.863,6.126
		c-0.314,2.723-0.145,5.368,1.037,7.938c1.192,2.598,0.952,5.283-0.138,7.879c-0.144,0.345-0.65,0.539-0.989,0.802
		c-0.248-0.34-0.646-0.652-0.72-1.027c-0.416-2.176-0.959-4.355-1.078-6.554c-0.242-4.452-0.254-8.917-0.336-13.378
		C86.864,155.019,88.011,152.26,88.85,148.919"/>
	<path fill="#E5ECEC" d="M50.923,256.582c0.112-1.919,0.721-3.327,1.888-4.497c0.862-0.863,1.865-1.141,3.026-0.754
		c0.743,0.247,1.484,0.504,2.208,0.805c2.408,1.006,3.723,3.282,3.273,5.626c-0.438,2.298-2.615,4.26-4.938,4.451
		c-2.161,0.179-4.096-1.192-4.976-3.606C51.141,257.878,51.04,257.088,50.923,256.582"/>
	<path fill="#FCF7F4" d="M39.423,355.598c0.528-0.27,1.046-0.746,1.585-0.772c4.372-0.208,8.224-1.812,11.833-4.167
		c1.045-0.683,2.136-1.322,3.276-1.818c0.485-0.211,1.153-0.003,1.74,0.014c-2.184,2.682-4.434,5.317-6.527,8.07
		c-1.093,1.438-2.396,1.876-4.095,1.717C44.333,358.367,41.76,357.297,39.423,355.598"/>
	<path fill="#F3F0F0" d="M86.096,144.993c-0.486,2.074-0.971,4.235-1.502,6.385c-0.657,2.657-0.674,2.652-3.477,2.689
		c-3.848,0.051-4.173-0.325-3.459-3.997c1.167-5.999,1.769-6.418,7.881-5.474C85.679,144.617,85.798,144.775,86.096,144.993"/>
	<path fill="#EAEFEF" d="M60.568,281.217c-0.043,2.24-1.392,3.892-3.514,4.987c-2.018,1.042-4.359,0.627-5.651-0.935
		c-1.333-1.612-1.58-4.105-0.159-5.732c1.116-1.277,2.604-2.322,4.111-3.127c0.672-0.358,1.9-0.096,2.692,0.276
		C59.774,277.498,60.555,279.037,60.568,281.217"/>
	<path fill="#F9FAFA" d="M82.327,170.427h-5.128c-0.347-1.91,0.178-3.767,0.14-5.6c-0.041-1.908,0.003-3.826,0.176-5.725
		c0.034-0.376,0.785-0.907,1.264-0.977c0.932-0.137,1.934-0.127,2.848,0.081c0.444,0.101,1.067,0.78,1.077,1.209
		c0.064,3.024,0.009,6.052-0.05,9.077C82.641,169.097,82.455,169.698,82.327,170.427"/>
	<path fill="#F5FAFA" d="M78.657,173.837c1.137-0.101,2.069-0.319,2.961-0.208c0.501,0.062,1.231,0.591,1.352,1.044
		c1.05,3.965,1.985,7.961,3.012,12.184h-6.148C80.777,182.34,80.492,178.127,78.657,173.837"/>
	<path fill="#F5EFED" d="M32.438,366.521c3.801-0.947,7.494-2.103,10.201-5.195c1.403,0.115,2.807,0.229,4.242,0.347
		C44.849,369.388,37.618,371.013,32.438,366.521"/>
	<path fill="#EAEEEE" d="M70.713,50.807c-1.896,0.091-3.438-1.251-3.471-3.022c-0.034-1.922,1.604-3.606,3.563-3.665
		c1.739-0.051,3.374,1.434,3.473,3.154C74.393,49.243,72.921,50.701,70.713,50.807"/>
	<path fill="#E6E7E7" d="M52.163,58.608c-0.027,1.86-1.599,3.462-3.302,3.368c-1.583-0.088-2.92-1.562-2.909-3.208
		c0.014-1.931,1.45-3.363,3.311-3.3C50.947,55.526,52.188,56.869,52.163,58.608"/>
	<path fill="#E5EBE6" d="M92.189,161.228c0.075-1.237,0.06-2.49,0.257-3.708c0.138-0.847,0.866-1.373,1.721-1.217
		c0.688,0.124,1.593,0.404,1.92,0.92c1.048,1.65,1.07,3.554,0.823,5.453C94.618,164.533,93.484,162.618,92.189,161.228"/>
	<path fill="#ED8A03" d="M92.189,161.228c1.459,0.855,2.973,1.532,4.721,1.449c0.004,1.09,0.104,2.192-0.014,3.27
		c-0.134,1.222-1.008,1.891-2.145,2.242c-0.664,0.206-1.293,0.15-1.569-0.534C92.352,165.598,91.784,163.482,92.189,161.228"/>
	<path fill="#E4E8E8" d="M71.304,237.987c-0.201,0.646-0.333,1.268-0.587,1.834c-0.353,0.791-1.727,1.171-2.502,0.757
		c-1.444-0.773-2.297-3.046-1.498-4.533c0.316-0.591,1.164-1.185,1.81-1.232c0.65-0.046,1.53,0.432,1.978,0.961
		C70.974,236.33,71.048,237.218,71.304,237.987"/>
	<path fill="#FE9900" d="M67.544,166.104c0.357,0.087,0.717,0.174,1.069,0.26C68.254,166.275,67.898,166.189,67.544,166.104"/>
	<polygon fill="#FC9902" points="73.423,371.593 73.355,371.412 73.531,371.482 73.607,371.661 	"/>
	<path fill="#120E00" d="M68.165,145.502c-1.063,0.046-2.282,0.602-3.04-0.559c-0.401-0.616-0.651-1.429-0.684-2.166
		c-0.048-1.177,0.907-2.045,2.076-2.133c1.115-0.084,1.994,0.78,1.978,2.12c-0.013,0.933-0.235,1.864-0.363,2.794
		C68.132,145.557,68.165,145.502,68.165,145.502"/>
	<path fill="#231F1F" d="M81.54,87.029c-0.043,0.787-0.007,0.963-0.066,1.097c-0.434,0.976-0.886,1.943-1.332,2.912
		c-1.455-0.175-1.527-1.43-1.79-2.434c-0.435-1.662-0.805-3.352-1.021-5.053c-0.061-0.464,0.412-1.177,0.847-1.481
		c0.809-0.568,1.659-0.021,1.946,0.663C80.783,84.299,81.202,85.967,81.54,87.029"/>
	<path fill="#090808" d="M56.612,184.667c0.024-1.79,1.269-4.091,3.559-5.784c0.586-0.433,1.44-0.625,2.191-0.685
		c1.354-0.107,2.372,1.512,1.674,2.625c-0.499,0.795-1.262,1.431-1.718,2.245c-0.448,0.8-0.801,1.712-0.936,2.613
		c-0.141,0.961,0.18,1.912,1.191,2.36c0.862,0.382,1.78,0.641,2.643,1.024c0.957,0.425,1.012,1.587,0.147,2.292
		c-2.119,1.728-4.464,1.726-6.418-0.079C57.354,189.808,56.59,187.947,56.612,184.667"/>
	<path fill="#1F1313" d="M55.408,255.105c1.494-0.017,2.8,1.235,2.727,2.616c-0.068,1.285-1.121,2.223-2.545,2.27
		c-1.611,0.053-2.818-1.096-2.685-2.553C53.021,256.15,54.129,255.12,55.408,255.105"/>
	<path fill="#262121" d="M55.332,279.106c1.513-0.075,2.932,1.195,2.815,2.521c-0.086,1-1.173,1.999-2.258,2.074
		c-1.556,0.107-3.053-0.992-3.093-2.275C52.761,280.29,53.979,279.173,55.332,279.106"/>
</g>
</svg>
