<?xml version="1.0" encoding="utf-8"?>
<!-- Generator: Adobe Illustrator 16.0.0, SVG Export Plug-In . SVG Version: 6.00 Build 0)  -->
<!DOCTYPE svg PUBLIC "-//W3C//DTD SVG 1.1//EN" "http://www.w3.org/Graphics/SVG/1.1/DTD/svg11.dtd">
<svg version="1.1" id="Layer_1" xmlns="http://www.w3.org/2000/svg" xmlns:xlink="http://www.w3.org/1999/xlink" x="0px" y="0px"
	 width="268.484px" height="279.59px" viewBox="0 0 268.484 279.59" enable-background="new 0 0 268.484 279.59"
	 xml:space="preserve">
<g>
	<path fill="#FFFFFF" d="M228.259,8.422c3.062-1.667,6.146-2.788,9.667-2.195c2.609,0.439,4.864,1.453,6.799,3.245
		c2.614,2.421,4.76,5.173,6.053,8.52c2.414,6.253,4.867,12.492,7.178,18.783c3.191,8.686,5.895,17.572,9.508,26.075
		c2.878,6.775-0.677,15.691-6.387,18.677c-0.984,0.515-1.987,1.017-3.029,1.392c-3.143,1.133-3.145,1.108-3.203,4.11
		c-0.075,3.834-0.054,7.674-0.282,11.499c-0.15,2.535-0.461,5.096-1.053,7.561c-1.801,7.509-8.202,12.981-15.934,13.814
		c-0.95,0.103-1.94,0.238-2.868,0.088c-2.807-0.454-3.96,1.128-4.895,3.429c-4.283,10.542-10.84,19.49-19.319,27.048
		c-1.071,0.955-2.188,1.866-3.338,2.726c-4.24,3.173-8.847,4.281-13.969,2.4c-0.25-0.092-0.579,0.029-1.045,0.064
		c-0.898,3.304-1.883,6.649-2.705,10.034c-0.808,3.327-2.867,5.222-6.159,5.883c-0.626,0.125-1.277,0.153-1.886,0.33
		c-1.121,0.325-1.784,1.38-1.685,2.571c0.026,0.317,0.053,0.648,0.161,0.943c0.855,2.333,0.87,4.656,0.172,7.049
		c-0.306,1.049,0.406,1.891,1.5,1.971c1.273,0.092,2.554,0.063,3.832,0.078c6.553,0.075,13.108,0.069,19.658,0.244
		c7.409,0.199,10.599,3.794,10.237,11.289c-0.024,0.478-0.06,0.957-0.124,1.432c-0.254,1.897-0.968,3.869-0.662,5.668
		c0.332,1.947,2.803,2.333,4.154,3.659c4.369,4.293,5.084,12.278,1.913,16.769c-5.249,7.433-10.197,15.079-15.367,22.57
		c-5.443,7.886-10.992,15.7-16.511,23.533c-1.012,1.436-2.069,2.843-3.158,4.221c-5.135,6.507-15.281,7.778-21.193,1.865
		c-1.299-1.3-2.414-1.638-4.206-1.199c-4.333,1.056-8.732,1.837-13.105,2.73c-0.313,0.063-0.645,0.081-0.937,0.196
		c-5.379,2.128-11.018,1.447-16.583,1.526c-0.796,0.01-1.616,0.001-2.387-0.169c-6.541-1.438-13.081-2.88-19.6-4.409
		c-1.406-0.33-2.321-0.018-3.389,0.961c-4.989,4.575-10.967,5.398-16.768,2.48c-2.044-1.028-3.683-2.542-5.039-4.347
		c-2.879-3.829-5.812-7.624-8.536-11.562c-7.902-11.427-15.714-22.915-23.554-34.384c-0.811-1.187-1.581-2.402-2.369-3.605
		c-3.135-4.787-2.673-9.69-0.355-14.584c1.062-2.24,3.012-3.709,5.106-4.921c1.006-0.583,1.17-1.305,1.043-2.367
		c-0.34-2.847-0.816-5.708-0.802-8.561c0.024-5.095,3.844-8.671,8.372-8.706c0.638-0.005,1.276-0.088,1.914-0.1
		c4.155-0.082,8.309-0.171,12.464-0.224c2.557-0.033,5.117,0.039,7.673-0.025c1.413-0.035,3.06,0.158,4.172-0.49
		c1.576-0.916,0.042-2.623,0.219-3.98c0.206-1.573,0.313-3.161,0.56-4.727c0.377-2.383-0.028-3.011-2.527-3.59
		c-0.311-0.072-0.634-0.086-0.948-0.146c-3.328-0.632-5.396-2.612-6.202-5.882c-0.572-2.325-1.056-4.67-1.61-6.999
		c-0.251-1.054-0.576-2.091-0.792-2.868c-1.01-0.643-1.505-0.036-2.082,0.121c-4.44,1.207-8.617,0.536-12.287-2.183
		c-2.685-1.991-5.268-4.175-7.624-6.543c-6.479-6.515-11.638-13.977-15.366-22.398c-0.388-0.875-0.795-1.745-1.127-2.641
		c-0.577-1.558-1.661-2.252-3.315-2.152c-0.796,0.047-1.598-0.001-2.397-0.015c-9.191-0.154-16.033-7.123-17.311-13.934
		c-0.439-2.343-0.892-4.707-1.028-7.079c-0.257-4.463-0.303-8.94-0.404-13.411c-0.028-1.239-0.326-2.081-1.741-2.4
		c-1.227-0.277-2.415-0.826-3.549-1.397c-6.351-3.198-9.518-11.688-7.08-17.986C2.894,58.443,4.742,53,6.716,47.605
		c3.179-8.691,6.365-17.381,9.582-26.059c1.334-3.6,2.952-7.01,5.452-10.039c3.887-4.708,10.023-7.222,16.711-3.934
		c1.632,0.803,2.614,0.429,3.843-0.418C47.376,3.659,52.95,1.38,59.046,0.451C60.775,0.188,62.534,0,64.28,0
		c45.565-0.001,91.13,0.016,136.695,0.068c4.634,0.006,9.216,0.543,13.779,1.493c4.503,0.938,8.433,2.852,11.967,5.711
		C227.212,7.668,227.731,8.028,228.259,8.422"/>
	<path d="M248.964,78.258c-0.04,1.513-0.098,3.09-0.12,4.668c-0.073,5.272-0.075,10.547-0.229,15.817
		c-0.055,1.9-0.282,3.834-0.741,5.676c-1.483,5.954-5.872,9.523-11.991,9.919c-2.39,0.154-4.784,0.329-7.178,0.357
		c-1.546,0.019-2.286,0.763-2.728,2.138c-3.604,11.214-9.963,20.662-18.565,28.63c-1.632,1.511-3.396,2.935-5.28,4.107
		c-3.229,2.01-5.332,1.715-8.219-0.782c-1.449-1.253-2.854-2.561-4.334-3.778c-0.925-0.76-1.774-0.366-2.008,0.89
		c-0.671,3.61-1.255,7.237-1.998,10.832c-0.45,2.183-1.076,4.335-1.723,6.47c-0.847,2.795-1.046,2.908-3.951,3.155
		c-0.318,0.027-0.64,0.018-0.958,0.043c-1.108,0.087-2.501-0.186-3.241,0.384c-0.684,0.528-0.541,2.022-0.991,2.983
		c-0.667,1.426-1.537,2.756-2.447,4.349c0.41,0.718,0.998,1.644,1.485,2.621c0.742,1.488,1.052,3.088,0.259,4.613
		c-0.72,1.384-0.945,2.604-0.009,3.981c1.078,1.586,0.414,3.389,0.258,5.379c1.731,0.052,3.294,0.133,4.858,0.14
		c8.153,0.038,16.309,0.204,24.457,0.033c5.721-0.12,6.153,2.486,5.586,6.426c-0.454,3.159-1.064,6.296-1.567,9.448
		c-0.267,1.669-0.075,1.922,1.488,2.313c0.772,0.192,1.58,0.283,2.316,0.565c4.558,1.746,6.416,6.815,3.976,11.043
		c-1.276,2.211-2.716,4.333-4.171,6.433c-9.192,13.264-18.397,26.519-27.631,39.753c-1.093,1.565-2.232,3.157-3.618,4.449
		c-2.329,2.169-5.065,3.229-8.355,2.234c-3.166-0.957-4.719-3.084-4.852-6.603c-0.93,0.201-1.674,0.289-2.369,0.526
		c-5.608,1.913-11.314,3.392-17.21,4.126c-1.893,0.237-3.761,0.716-5.625,1.153c-4.581,1.071-9.222,0.796-13.803,0.313
		c-3.79-0.398-7.54-1.306-11.263-2.18c-4.96-1.164-9.876-2.513-14.959-3.821c-0.108,0.528-0.182,1.153-0.364,1.743
		c-1.128,3.661-4.412,5.668-8.115,5.023c-3.042-0.531-5.185-2.359-6.932-4.751c-2.45-3.355-4.934-6.688-7.296-10.104
		c-7.814-11.303-15.584-22.637-23.36-33.967c-0.813-1.186-1.594-2.396-2.326-3.633c-3.064-5.175-1.034-10.43,4.662-12.124
		c3.026-0.9,2.956-0.888,2.42-4.028c-0.536-3.144-1.093-6.303-1.313-9.478c-0.245-3.542,0.864-4.674,4.346-4.776
		c4.154-0.121,8.312-0.092,12.468-0.109c5.595-0.022,11.19-0.023,16.785-0.048c0.308-0.001,0.615-0.136,1.217-0.278
		c-0.09-2.067-0.485-4.289,0.829-6.264c0.271-0.407,0.238-1.286-0.024-1.732c-1.632-2.783-0.802-5.229,0.903-7.563
		c0.575-0.788,0.527-1.43-0.161-2.046c-1.545-1.382-2.019-3.159-2.126-5.156c-0.024-0.434-0.711-1.129-1.162-1.19
		c-1.576-0.215-3.185-0.165-4.775-0.292c-1.376-0.11-2.246-0.731-2.744-2.196c-1.757-5.172-2.522-10.549-3.558-15.873
		c-0.238-1.224-0.687-2.406-1.039-3.608c-1.706-0.178-2.317,1.387-3.404,2.176c-0.899,0.655-1.714,1.443-2.489,2.245
		c-2.263,2.344-4.836,2.229-7.454,0.852c-1.4-0.736-2.726-1.683-3.925-2.72c-9.124-7.892-15.869-17.453-20.029-28.803
		c-0.274-0.749-0.52-1.509-0.76-2.271c-0.272-0.866-0.861-1.284-1.754-1.334c-2.232-0.127-4.464-0.283-6.696-0.394
		c-8.314-0.409-13.263-5.168-13.757-13.532c-0.274-4.622-0.169-9.265-0.295-13.897c-0.077-2.841,0.341-5.714-0.308-8.539
		c-1.881-0.206-3.635-0.252-5.322-0.611c-6.052-1.289-8.9-6.472-6.781-12.338c4.773-13.216,9.586-26.418,14.404-39.618
		c0.712-1.948,1.366-3.953,2.37-5.752c1.076-1.929,2.337-3.839,3.869-5.414c2.958-3.041,6.684-3.021,9.823-0.201
		c0.811,0.728,1.49,1.601,2.439,2.637c0.784-0.665,1.468-1.266,2.173-1.841c4.638-3.779,9.682-6.853,15.62-8.017
		c2.796-0.548,5.701-0.751,8.556-0.753c23.02-0.021,46.04,0.056,69.059,0.079c21.582,0.023,43.163-0.021,64.744,0.059
		c3.819,0.015,7.64,0.453,11.454,0.771c4.807,0.402,8.87,2.498,12.422,5.671c0.953,0.852,1.867,1.748,2.811,2.608
		c1.864,1.699,1.868,1.696,3.589-0.167c0.216-0.234,0.393-0.508,0.621-0.729c3.223-3.121,6.99-3.198,10.21-0.136
		c1.867,1.776,3.363,3.828,4.293,6.275c1.701,4.477,3.531,8.908,5.167,13.409c3.709,10.205,7.35,20.435,10.969,30.673
		c0.471,1.332,0.942,2.776,0.903,4.154c-0.131,4.618-2.822,7.69-7.491,8.613C253.035,78.133,251.113,78.093,248.964,78.258"/>
	<path fill="#FFFFFF" d="M168.961,85.148c-0.193,8.078-2.147,17.037-6.708,25.315c-3.121,5.664-7.183,10.53-12.594,14.181
		c-10.792,7.282-23.684,6.657-33.695-1.659c-5.411-4.494-9.25-10.166-11.625-16.702c-5.738-15.787-4.933-31.308,2.667-46.344
		c2.767-5.473,6.609-10.144,11.549-13.854c11.628-8.734,26.085-7.912,36.664,2.126c5.957,5.652,9.607,12.674,11.758,20.491
		C168.335,73.635,169.011,78.698,168.961,85.148"/>
	<path fill="#FEFEFE" d="M118.041,181.643c-1.571-1.403-3.501-1.361-5.427-1.357c-4.156,0.009-8.31,0.029-12.465-0.016
		c-0.557-0.006-1.58-0.359-1.582-0.556c-0.004-0.712,0.122-1.64,0.585-2.102c1.713-1.712,3.668-2.984,6.294-2.884
		c2.713,0.104,5.434,0.082,8.149,0.002c1.091-0.032,2.196-0.282,3.246-0.599c0.365-0.11,0.799-0.718,0.8-1.1
		c0.002-0.379-0.439-1.001-0.797-1.096c-1.214-0.322-2.474-0.601-3.724-0.635c-2.874-0.079-5.754-0.06-8.628,0.027
		c-2.18,0.066-4.091-0.709-5.844-1.813c-0.475-0.3-0.682-1.38-0.616-2.063c0.046-0.479,0.689-1.063,1.203-1.292
		c0.545-0.244,1.253-0.162,1.89-0.157c6.71,0.051,13.421,0.128,20.131,0.163c1.088,0.005,1.768,0.319,2.08,1.456
		c0.442,1.616,1.653,2.211,3.273,2.208c4.79-0.01,9.58-0.01,14.37,0.037c1.976,0.019,3.416-0.605,3.968-2.667
		c0.254-0.951,1.028-1.026,1.875-1.032c6.551-0.043,13.101-0.117,19.652-0.167c0.796-0.005,1.641-0.071,2.372,0.169
		c0.516,0.169,1.187,0.776,1.237,1.246c0.072,0.686-0.13,1.686-0.606,2.087c-1.111,0.936-2.529,1.209-4.033,1.197
		c-2.874-0.025-5.757-0.003-8.622,0.19c-2.048,0.138-4.077,0.569-6.105,0.925c-0.187,0.034-0.406,0.471-0.42,0.73
		c-0.013,0.256,0.15,0.665,0.352,0.761c0.56,0.263,1.173,0.523,1.779,0.565c3.504,0.242,7.01,0.451,10.518,0.613
		c2.77,0.129,4.728,1.66,6.406,3.637c0.913,1.075,0.265,2.691-1.165,2.898c-1.256,0.182-2.543,0.172-3.818,0.193
		c-2.396,0.04-4.799-0.047-7.188,0.099c-1.065,0.065-2.136,0.49-3.143,0.899c-0.688,0.28-0.634,1.745,0.074,1.985
		c1.035,0.352,2.124,0.692,3.203,0.738c2.873,0.123,5.754,0.029,8.627,0.147c0.902,0.036,1.85,0.349,2.657,0.769
		c0.504,0.262,1.191,1.113,1.072,1.43c-0.239,0.639-0.88,1.344-1.518,1.576c-1.644,0.6-3.352,1.148-5.079,1.372
		c-3.823,0.496-7.707,0.888-10.207-3.099c-10.356-9.676-26.17-9.533-36.403,0.333c-0.574,0.555-1.146,1.117-1.662,1.724
		c-0.659,0.775-1.445,1.167-2.475,1.231c-4.352,0.273-8.606-0.184-12.73-1.635c-1.298-0.457-1.535-1.573-0.594-2.593
		c2.71-2.938,2.712-2.931,7.06-2.966c2.716-0.022,5.434-0.034,8.148-0.119C115.818,183.053,115.816,182.994,118.041,181.643"/>
	<path fill="#FE9900" d="M127.891,185.103c5.603-2.185,11.043-1.201,16.181,1.302c7.356,3.584,11.836,9.588,13.277,17.658
		c2.547,14.27-10.695,26.895-25.068,23.812c-7.175-1.539-12.905-5.305-16.168-12.183
		C113.041,202.267,117.172,191.54,127.891,185.103"/>
	<path fill="#CDCDCD" d="M87.647,156.065c-0.254-0.38-0.662-0.733-0.738-1.146c-0.829-4.528-1.554-9.075-2.436-13.592
		c-0.222-1.135,0.142-1.784,0.908-2.449c6.597-5.73,13.183-11.472,19.962-17.375c1.987,1.789,4,3.526,5.91,5.37
		c0.542,0.522,0.943,1.31,1.143,2.048c1.94,7.194,3.824,14.404,5.724,21.609c-4.916,2.127-10.223,1.624-15.357,2.307
		C97.647,153.519,92.197,152.715,87.647,156.065"/>
	<path fill="#FDFEFE" d="M57.447,132.796c0.28-0.339,0.525-0.743,0.867-1.033c5.953-5.041,11.925-10.061,17.878-15.103
		c1.732-1.468,3.498-2.494,5.973-2.41c5.415,0.184,10.842,0.118,16.261,0.028c1.714-0.028,2.603,0.817,3.411,2.107
		c0.506,0.809,0.444,1.486-0.113,2.161c-0.301,0.365-0.677,0.672-1.036,0.985c-9.719,8.498-19.443,16.99-29.155,25.495
		c-0.707,0.62-1.347,0.686-2.107,0.127C66.057,142.672,60.6,137.063,57.447,132.796"/>
	<path fill="#FEFEFE" d="M218.896,17.718c3.959,2.163,6.799,5.124,8.9,8.773c3.347,5.812,6.763,11.584,10.076,17.415
		c2.22,3.906,3.953,8.026,4.721,12.484c0.27,1.567,0.475,3.169,0.477,4.755c0.007,11.505,0.029,23.01-0.107,34.513
		c-0.08,6.79,0.914,5.857-5.773,5.937c-0.639,0.008-1.28,0.02-1.918-0.013c-1.322-0.069-1.738-0.433-1.709-1.71
		c0.059-2.556,0.108-5.116,0.315-7.662c1.121-13.761,0.588-27.463-1.456-41.104c-1.002-6.68-3.037-13.05-6.243-19.017
		c-1.965-3.658-4.003-7.274-5.94-10.946C219.67,20.065,219.337,18.863,218.896,17.718"/>
	<path fill="#FDFEFE" d="M210.73,132.664c-4.069,5.449-8.135,9.454-13.042,12.928c-0.145-0.034-0.33-0.023-0.43-0.11
		c-9.971-8.665-19.936-17.337-29.9-26.01c-0.24-0.209-0.513-0.402-0.687-0.658c-0.166-0.244-0.319-0.565-0.309-0.846
		c0.043-1.227,2.127-3.378,3.435-3.508c1.108-0.11,2.226-0.142,3.34-0.146c4.3-0.016,8.605,0.123,12.897-0.06
		c2.289-0.098,3.995,0.779,5.582,2.166c3.593,3.141,7.126,6.35,10.752,9.451C205.022,128.141,207.788,130.282,210.73,132.664"/>
	<path fill="#F3FCFC" d="M39.174,28.501c5.098-9.377,12.371-14.435,22.054-16.109c1.715-0.296,3.505-0.232,5.259-0.221
		c6.552,0.041,13.103,0.185,19.654,0.189c38.04,0.024,76.079-0.005,114.118,0.062c3.818,0.007,7.638,0.509,11.452,0.845
		c1.584,0.14,3.08,0.631,4.355,1.644c-0.543,1.263-1.64,0.832-2.507,0.832c-10.389,0.008-20.778-0.023-31.167-0.048
		c-30.687-0.074-61.374-0.133-92.061-0.237c-7.671-0.026-15.344-0.12-23.01-0.358c-2.02-0.063-3.764,0.336-5.486,1.262
		C54.542,20.283,47.241,24.183,39.174,28.501"/>
	<path fill="#CDCDCD" d="M150.063,150.509c0.119-0.777,0.163-1.575,0.367-2.329c1.624-5.994,3.306-11.972,4.902-17.973
		c0.378-1.425,0.86-2.615,2.125-3.562c1.905-1.429,3.631-3.097,5.597-4.807c0.805,0.633,1.699,1.255,2.499,1.98
		c4.12,3.736,8.216,7.5,12.32,11.253c0.579,4.011-0.462,7.864-1.234,11.726c-0.354,1.77-1.325,3.38-3.272,3.697
		c-7.196,1.169-14.418,2.107-21.721,1.001C151.011,151.399,150.496,150.991,150.063,150.509"/>
	<path fill="#FAFBFB" d="M96.318,90.964c-1.152-10.175-0.148-20.083,3.624-29.662c2.853-7.245,6.938-13.658,12.69-18.948
		c4.669-4.294,10.026-7.378,16.239-8.82c9.65-2.239,18.348,0.013,26.298,5.694c5.208,3.721,8.818,8.779,11.776,14.313
		c7.798,14.59,8.624,29.774,3.362,45.373c0.396-2.804,0.845-5.601,1.178-8.412c1.431-12.087-0.581-23.556-6.396-34.283
		c-2.381-4.389-5.476-8.246-9.289-11.504c-10.815-9.24-25.499-10.141-37.308-2.243c-5.833,3.901-10.239,9.104-13.641,15.199
		c-3.791,6.79-5.922,14.1-6.84,21.791c-0.767,3.045-0.125,6.146-0.372,9.209C97.565,89.587,98.18,91.027,96.318,90.964"/>
	<path fill="#FDFDFD" d="M190.242,234.872c2.221-6.153,4.343-12.343,5.296-18.841c0.509-3.469,0.833-6.973,1.044-10.473
		c0.093-1.544-0.302-3.118-0.508-4.967h-35.313c-0.691-2.026-1.296-3.798-2.016-5.908c4.421-0.113,8.527-0.279,12.633-0.31
		c10.061-0.074,20.123-0.087,30.185-0.121c2.235-0.007,2.533,0.199,2.103,2.568c-0.882,4.86-1.793,9.726-2.975,14.52
		c-2.179,8.838-4.793,17.539-9.536,25.429C189.413,236.828,189.717,235.903,190.242,234.872"/>
	<path fill="#FCFDFD" d="M248.853,64.526c0.782-9.154-2.141-17.315-6.671-25.061c-2.902-4.963-5.7-9.987-8.657-14.917
		c-0.973-1.621-1.327-3.245-0.899-5.016c0.315-1.3,1.112-2.314,2.506-2.627c1.225-0.275,2.28,0.225,2.923,1.204
		c1.396,2.125,3.005,4.204,3.917,6.54c5.283,13.528,10.351,27.14,15.599,40.683c0.754,1.944,0.978,3.638-0.09,5.461
		c-1.427,2.437-4.908,3.547-7.542,2.361c-0.831-0.374-1.102-1.04-1.093-1.915C248.867,69.002,248.853,66.764,248.853,64.526"/>
	<path fill="#FE9901" d="M140.146,164.353c-0.444,0.127-0.895,0.384-1.331,0.361c-5.26-0.279-4.74,0.88-6.252-4.863
		c-1.816-6.896-3.883-13.726-5.831-20.587c-0.431-1.517-0.82-3.046-1.334-4.959c3.259,0.23,6.216,0.614,9.171,0.598
		c2.838-0.017,5.674-0.449,8.511-0.699c1.634,1.372,0.965,3.159,0.936,4.868C143.87,147.678,141.459,155.931,140.146,164.353"/>
	<path fill="#FCFCFC" d="M16.463,73.635c-3.035-0.093-4.818-1.363-5.861-4.009c-0.437-1.109-0.439-2.084,0.004-3.202
		c1.758-4.443,3.438-8.918,5.137-13.385c3.512-9.232,6.937-18.499,10.578-27.68c0.984-2.483,2.538-4.758,3.974-7.039
		c0.704-1.119,1.867-1.759,3.296-1.382c1.324,0.348,2.278,1.695,2.412,3.248c0.131,1.516-0.516,2.755-1.252,4.019
		c-3.289,5.647-6.63,11.268-9.742,17.012c-1.586,2.926-2.879,6.037-4.028,9.166c-1.272,3.459-1.783,7.092-1.704,10.806
		c0.069,3.189,0.041,6.381-0.001,9.571C19.247,72.956,18.475,73.697,16.463,73.635"/>
	<path fill="#FCFEFE" d="M96.87,108.189c-1.59,0.046-3.133,0.128-4.677,0.129c-16.909,0.015-33.819,0.01-50.729,0.026
		c-3.03,0.003-6.062,0.033-9.09,0.136c-2.089,0.071-3.756-0.701-4.971-2.327c-0.538-0.721-1.198-1.718-1.081-2.48
		c0.191-1.252,1.521-0.779,2.388-0.776c18.822,0.061,37.645,0.149,56.467,0.23c1.914,0.008,3.83-0.036,5.743,0.01
		C94.974,103.234,95.577,102.122,96.87,108.189"/>
	<path fill="#EDF5F5" d="M172.149,108.285c0.444-1.286,0.701-2.187,1.065-3.041c0.401-0.939,1.067-1.545,2.209-1.432
		c0.633,0.063,1.276,0.015,1.915,0.017c20.28,0.055,40.561,0.11,60.841,0.167c0.798,0.003,1.597,0.008,2.393,0.06
		c0.594,0.039,0.966,0.947,0.627,1.455c-1.11,1.665-2.51,2.879-4.633,2.948c-0.798,0.026-1.596,0.031-2.395,0.029
		c-18.682-0.046-37.365-0.093-56.048-0.144C176.249,108.339,174.375,108.308,172.149,108.285"/>
	<path fill="#FCFCFC" d="M150.063,150.509c3.981-0.018,7.968,0.097,11.94-0.091c3.794-0.18,7.578-0.64,11.355-1.075
		c0.512-0.059,1.209-0.595,1.386-1.071c0.491-1.326,0.848-2.721,1.086-4.118c0.451-2.651,0.753-5.327,1.194-7.979
		c0.068-0.404,0.556-0.738,0.849-1.104c0.523,0.345,1.095,0.634,1.561,1.044c1.422,1.252,2.803,2.55,4.2,3.83
		c-0.297,1.704-0.6,3.406-0.892,5.111c-0.455,2.661-0.873,5.328-1.365,7.982c-0.337,1.826-0.714,2.182-2.463,2.188
		c-9.697,0.034-19.394,0.035-29.092,0.032c-0.291,0-0.582-0.182-0.941-0.302C148.706,153.336,149.15,151.864,150.063,150.509"/>
	<path fill="#FCFCFC" d="M110.7,194.745c-1.842,6.339-0.366,5.663-6.52,5.633c-8.782-0.042-17.565-0.145-26.346-0.311
		c-2.707-0.051-5.419-0.31-8.111-0.63c-1.953-0.232-2.918-1.238-3.272-2.953c-0.225-1.093,0.328-1.974,1.356-2.067
		c0.793-0.072,1.594-0.079,2.391-0.075c12.774,0.068,25.548,0.14,38.323,0.222C109.149,194.568,109.777,194.666,110.7,194.745"/>
	<path fill="#C4C9C9" d="M210.438,128.228c-5.7-4.231-11.377-8.491-17.031-13.408c0.812-0.27,1.202-0.511,1.594-0.515
		c7.957-0.068,15.913-0.109,23.87-0.152c0.317-0.001,0.635,0.021,0.952,0.046c0.951,0.077,1.04,0.494,0.431,2.012
		c-2.191-0.037-3.389,1.23-4.49,2.992C213.911,122.169,212.67,125.492,210.438,128.228"/>
	<path fill="#C3C9C9" d="M53.839,127.513c-2.981-3.762-4.928-8.037-6.495-12.442c0.437-0.344,0.658-0.669,0.883-0.672
		c8.301-0.102,16.602-0.187,24.904-0.222c0.502-0.002,1.007,0.426,1.511,0.653c-0.473,0.368-0.947,0.735-1.42,1.103
		c-5.524-0.25-8.762,3.582-12.424,6.792C58.691,124.574,57.462,127.832,53.839,127.513"/>
	<path fill="#E6F0F0" d="M146.728,161.736c0.133-0.9,0.218-1.676,0.368-2.439c0.209-1.056,0.855-1.659,1.958-1.72
		c0.159-0.008,0.318-0.021,0.477-0.021c9.715,0.017,19.431,0.023,29.146,0.067c1.427,0.006,1.821,0.426,1.868,1.583
		c0.083,2.017-0.316,2.696-1.685,2.816c-0.474,0.041-0.954,0.033-1.431,0.032c-9.556-0.028-19.112-0.055-28.668-0.097
		C148.141,161.955,147.522,161.827,146.728,161.736"/>
	<path fill="#FDFEFE" d="M87.647,156.065c-0.086-1.845,0.763-2.98,2.574-3.38c0.309-0.069,0.619-0.155,0.932-0.181
		c4.572-0.373,9.147-0.706,13.715-1.119c1.727-0.156,3.429-0.621,5.156-0.716c2.693-0.149,5.397-0.103,8.096-0.139
		c0.6,1.771,1.2,3.54,1.883,5.558c-0.902,0.188-1.473,0.408-2.045,0.411c-9.353,0.041-18.706,0.067-28.059,0.054
		C89.148,156.551,88.397,156.235,87.647,156.065"/>
	<path fill="#F5F6F6" d="M118.18,131.441c2.959,0.593,4.391,1.806,5.06,4.348c2.143,8.152,4.542,16.236,6.842,24.347
		c0.217,0.765,0.463,1.524,0.635,2.3c0.175,0.789,0.235,1.628-0.65,2.048c-0.976,0.464-2.383-0.141-2.806-1.134
		c-0.124-0.291-0.202-0.602-0.292-0.906c-2.859-9.605-5.722-19.209-8.56-28.82C118.24,133.053,118.275,132.421,118.18,131.441"/>
	<path fill="#F5F6F6" d="M196.822,238.526c3.773-7.376,6.635-15.095,8.616-23.135c0.335-1.36,0.816-2.388,2.406-2.448
		c2.061-0.077,3.625,0.763,4.246,2.393c0.16,0.421,0.207,0.94,0.126,1.383c-0.081,0.448-0.331,0.892-0.597,1.276
		c-4.15,6.012-6.982,12.835-11.477,18.635c-0.777,1.002-1.517,2.034-2.274,3.052C196.969,239.794,196.418,239.591,196.822,238.526"
		/>
	<path fill="#F9F8F6" d="M140.146,164.353c-1.272-0.978-0.78-2.283-0.587-3.485c0.696-4.353,1.564-8.682,2.14-13.05
		c0.597-4.52,0.932-9.075,1.381-13.614c0.116-0.108,0.213-0.269,0.35-0.317c1.9-0.659,3.636-1.914,5.803-1.602
		c0.913,2.131-0.373,3.938-0.922,5.825c-2.257,7.747-4.58,15.475-6.913,23.201C141.083,162.355,140.568,163.34,140.146,164.353"/>
	<path fill="#F7F8F8" d="M68.327,236.917c-2.48-3.114-4.647-6.415-6.491-9.96c-1.464-2.816-3.263-5.458-4.925-8.171
		c-0.759-1.239-1.599-2.482-0.659-3.963c0.947-1.492,2.385-2.013,4.111-1.869c1.068,0.089,1.774,0.633,2.109,1.633
		c0.151,0.45,0.198,0.934,0.316,1.396c1.663,6.482,3.875,12.771,6.609,18.878C70.029,236.061,70,236.916,68.327,236.917"/>
	<path fill="#F5F7F7" d="M185.737,230.777c-0.016,3.141-1.072,5.231-2.969,6.852c-1.868,1.597-4.058,1.761-6.268,0.842
		c-2.021-0.84-3.468-3.541-3.151-5.944c0.293-2.228,1.062-4.332,2.552-6.073c1.954-2.283,4.33-2.517,6.739-0.692
		C184.493,227.166,185.81,228.891,185.737,230.777"/>
	<path fill="#F7FBFB" d="M87.866,215.548c2.252-0.145,4.529,0.498,6.511,1.98c0.742,0.555,1.471,1.274,1.877,2.083
		c0.315,0.629,0.418,1.726,0.064,2.223c-0.317,0.446-1.457,0.62-2.107,0.445c-1.05-0.283-1.979-0.987-2.989-1.45
		c-4.64-2.132-9.6-0.6-12.415,3.81c-0.341,0.534-0.589,1.209-1.07,1.549c-0.45,0.316-1.239,0.503-1.72,0.323
		c-0.482-0.18-0.994-0.84-1.096-1.367c-0.368-1.887,0.565-3.432,1.725-4.774C79.529,217.036,83.215,215.429,87.866,215.548"/>
	<path fill="#F0F3F3" d="M88.315,226.226c3.385-0.065,6.744,3.68,6.652,7.417c-0.073,2.964-3.334,5.832-6.547,5.758
		c-3.509-0.08-6.359-3.029-6.287-6.506C82.208,229.326,85.021,226.29,88.315,226.226"/>
	<path fill="#F6F6EF" d="M127.891,185.103c-1.527,1.615-3.126,3.167-4.569,4.854c-5.641,6.596-8.312,14.146-7.222,22.884
		c0.117,0.937,0.015,1.9,0.014,2.851c-5.917-8.575-4.126-24.398,9.486-30.221C126.29,185.176,127.124,185.218,127.891,185.103"/>
	<path fill="#F0F1F1" d="M222.866,66.13c0-2.997-0.007-7.276,0.023-11.555c0.001-0.195,0.318-0.517,0.524-0.549
		c0.254-0.04,0.718,0.09,0.794,0.271c0.609,1.441,1.418,2.871,1.651,4.383c0.456,2.966,0.718,5.979,0.804,8.981
		c0.097,3.325-0.04,6.66-0.187,9.987c-0.054,1.247-0.317,2.514-0.705,3.701c-0.155,0.473-0.867,0.984-1.391,1.069
		c-0.842,0.135-1.56-0.413-1.721-1.278c-0.201-1.073-0.333-2.183-0.301-3.271C222.459,74.383,222.651,70.9,222.866,66.13"/>
	<path fill="#EDF5F5" d="M104.587,162.043c-4.632-0.001-9.264,0.011-13.896-0.014c-0.781-0.004-1.645,0.004-2.311-0.32
		c-0.385-0.188-0.587-1.024-0.612-1.58c-0.015-0.33,0.423-0.907,0.747-0.981c0.765-0.173,1.584-0.143,2.381-0.143
		c8.945,0.001,17.89,0.008,26.835,0.024c0.796,0.002,1.613-0.023,2.381,0.142c0.901,0.194,1.176,0.937,1.142,1.811
		c-0.035,0.908-0.734,0.923-1.334,0.932c-4.152,0.063-8.305,0.092-12.458,0.129C106.504,162.052,105.545,162.044,104.587,162.043"/>
	<path fill="#F2F4F4" d="M79.773,251.268c4.635,5.112,9.959,9.328,16.126,12.464c0.804,0.41,1.939,0.628,1.995,1.768
		c0.075,1.559-1.595,3.684-3.082,3.777c-1.046,0.067-2.209-0.169-3.161-0.61c-0.816-0.379-1.527-1.155-2.079-1.907
		c-3.568-4.858-7.08-9.756-10.61-14.641C78.584,251.216,78.995,251.067,79.773,251.268"/>
	<path fill="#F3F5F5" d="M188.414,253.148c-3.25,4.479-6.494,8.962-9.755,13.433c-0.372,0.51-0.812,0.976-1.264,1.418
		c-2.406,2.357-6.064,1.734-6.861-1.356c-0.117-0.455-0.266-0.903-0.45-1.521c3.066-1.898,6.279-3.612,9.17-5.76
		c2.911-2.161,5.502-4.753,8.234-7.156C188.336,251.989,188.781,252.17,188.414,253.148"/>
	<path fill="#F0F4F4" d="M163.949,228.005c0.223-2.49,1.02-4.871,2.749-6.851c2.935-3.36,6.715-5.254,11.05-6.082
		c1.627-0.311,3.159-0.058,4.405,1.173c0.669,0.66,0.517,2.126-0.348,2.405c-1.036,0.334-2.128,0.605-3.21,0.673
		c-2.985,0.188-5.5,1.529-7.845,3.175c-2.449,1.72-3.846,4.171-4.226,7.171c-0.082,0.652-0.362,1.371-1.121,1.134
		c-0.475-0.147-0.863-0.792-1.139-1.296C164.047,229.11,164.06,228.588,163.949,228.005"/>
	<path fill="#FAF9F9" d="M53.839,127.513c2.224-2.021,4.425-4.068,6.677-6.058c2.017-1.781,4.043-3.558,6.15-5.231
		c2.068-1.643,4.308-1.598,6.556-0.291c-5.36,4.277-10.697,8.582-16.092,12.814C55.305,130.179,55.135,130.055,53.839,127.513"/>
	<path fill="#FAF8F8" d="M210.438,128.228c0.246-1.053,0.297-2.206,0.774-3.142c1.497-2.938,3.113-5.82,4.767-8.674
		c0.955-1.647,1.931-1.644,4.275-0.201c-1.341,4.221-3.651,7.956-5.923,11.703C213.016,130.081,212.958,130.045,210.438,128.228"/>
	<path fill="#A5A4A4" d="M96.318,90.964c0.25-0.877,0.659-1.743,0.719-2.632c0.141-2.063,0.037-4.142,0.188-6.203
		c0.066-0.903,0.512-1.779,0.786-2.667c0.012,3.01-0.006,6.021,0.042,9.03c0.068,4.301,0.608,8.539,1.761,12.695
		c0.246,0.887,0.304,1.825,0.52,3.193C97.845,101.368,96.439,96.381,96.318,90.964"/>
	<path fill="#B3B9B9" d="M79.773,251.268c-0.271,0.283-0.541,0.566-0.811,0.85c-3.545-5.068-7.09-10.135-10.635-15.202
		c1.092-0.302,0.843-1.303,1.071-2.055c0.366,0.504,0.816,0.967,1.086,1.517C73.07,241.662,76.473,246.432,79.773,251.268"/>
	<path fill="#EAE9E9" d="M223.391,90.946c1.515,0.094,2.551,1.256,2.52,2.825c-0.029,1.425-1.283,2.716-2.665,2.743
		c-1.492,0.029-3.013-1.643-2.838-3.12C220.574,92,221.967,90.857,223.391,90.946"/>
	<path fill="#AFB5B5" d="M188.414,253.148c-0.309-0.314-0.618-0.628-0.926-0.943c3.112-4.559,6.223-9.119,9.334-13.679
		c0.349,0.385,0.698,0.77,1.047,1.156C194.716,244.171,191.564,248.66,188.414,253.148"/>
	<path fill="#A0A1A1" d="M190.242,234.872l0.913,1.897c-0.979,3.054-2.847,5.559-5.396,8.644c0.371-1.48,0.444-2.265,0.76-2.937
		C187.717,239.921,188.994,237.403,190.242,234.872"/>
	<path fill="#060401" d="M147.439,205.576c-0.002,1.359-0.373,2.506-1.714,3.149c-5.027,2.411-9.997,4.948-15.093,7.204
		c-2.89,1.279-5.244-0.119-5.293-3.246c-0.085-5.407,0.145-10.827,0.45-16.23c0.147-2.62,0.358-2.608,3.665-3.223
		c6.533,1.344,11.542,5.65,17.103,8.868C147.814,202.825,147.618,204.291,147.439,205.576"/>
	<path fill="#FDF9F5" d="M147.439,205.576c-0.364-1.856-1.548-2.95-3.173-3.852c-4.974-2.763-9.878-5.652-14.81-8.493
		c0.147-0.42,0.22-0.893,0.473-1.235c0.148-0.201,0.575-0.239,0.885-0.269c6.121-0.586,11.293,1.428,15.42,5.921
		c1.039,1.131,1.727,2.651,2.33,4.095C149.174,203.203,148.673,204.549,147.439,205.576"/>
	<path fill="#120A00" d="M141.325,223.416c-0.385-0.071-0.777-0.033-0.992-0.209c-0.338-0.278-0.644-0.669-0.789-1.075
		c-0.075-0.209,0.15-0.675,0.371-0.812c0.666-0.413,1.381-0.758,2.105-1.063c3.791-1.595,6.908-3.961,8.905-7.646
		c0.3-0.555,0.617-1.175,1.098-1.539c0.432-0.325,1.219-0.605,1.631-0.419c0.452,0.203,0.771,0.93,0.925,1.489
		c0.112,0.409-0.053,0.957-0.242,1.376c-2.309,5.127-6.159,8.442-11.655,9.776C142.223,223.405,141.731,223.381,141.325,223.416"/>
	<path fill="#281700" d="M154.686,204.465c-0.386,0.349-0.927,1.168-1.664,1.422c-1.063,0.367-2.142-1.075-1.984-2.502
		c0.11-0.997,0.585-1.779,1.66-1.946C153.82,201.264,154.801,202.549,154.686,204.465"/>
	<path fill="#2F2D2D" d="M84.61,123.611c-1.398-0.02-2.715-1.362-2.665-2.714c0.057-1.522,1.709-2.997,3.154-2.817
		c1.164,0.146,2.349,1.368,2.435,2.513C87.649,122.107,86.169,123.633,84.61,123.611"/>
	<path fill="#251E1E" d="M78.931,128.408c0.079,1.498-1.035,2.805-2.5,2.933c-1.438,0.126-2.612-1.112-2.588-2.729
		c0.02-1.368,0.964-2.524,2.196-2.689C77.443,125.734,78.854,126.947,78.931,128.408"/>
	<path fill="#1E1A1A" d="M67.455,133.827c1.387-0.083,2.572,0.91,2.625,2.202c0.053,1.272-1.082,2.408-2.428,2.433
		c-1.179,0.022-2.146-0.821-2.279-1.986C65.205,135.007,66.066,133.911,67.455,133.827"/>
	<path fill="#2A2828" d="M186.148,121.059c-0.072,1.39-1.583,2.69-2.95,2.539c-1.488-0.165-2.63-1.468-2.578-2.941
		c0.049-1.434,1.513-2.723,2.887-2.543C184.896,118.296,186.215,119.767,186.148,121.059"/>
	<path fill="#231C1C" d="M191.866,131.341c-1.447,0.02-2.618-1.188-2.652-2.738c-0.033-1.451,1.304-2.827,2.644-2.722
		c1.27,0.1,2.279,1.171,2.389,2.536C194.376,130.017,193.313,131.321,191.866,131.341"/>
	<path fill="#181313" d="M202.776,136.118c0.013,1.32-1.131,2.411-2.455,2.339c-1.351-0.072-2.399-1.243-2.28-2.546
		c0.1-1.103,1.08-2.016,2.237-2.087C201.608,133.743,202.763,134.804,202.776,136.118"/>
	<path fill="#0E0E0E" d="M179.946,230.018c1.613-0.114,2.71,0.832,2.885,2.488c0.193,1.824-0.912,3.213-2.603,3.273
		c-1.489,0.053-2.873-1.087-3.021-2.49C177.04,231.714,178.367,230.128,179.946,230.018"/>
	<path fill="#1C1919" d="M87.811,229.086c1.535,0.178,3.071,2.079,3.006,3.72c-0.066,1.645-1.642,3.028-3.162,2.774
		c-1.719-0.288-3.021-2.127-2.72-3.841C85.199,230.239,86.601,228.946,87.811,229.086"/>
	<path fill="#F2F4F4" d="M129.125,199.116c0.496-0.224,0.694-0.384,0.774-0.338c3.847,2.216,7.684,4.45,11.765,6.823
		c-3.696,2.425-7.393,4.218-11.113,5.959c-0.629,0.295-1.281-0.004-1.31-0.832C129.104,206.801,129.159,202.876,129.125,199.116"/>
</g>
</svg>
