<?xml version="1.0" encoding="utf-8"?>
<!-- Generator: Adobe Illustrator 16.0.0, SVG Export Plug-In . SVG Version: 6.00 Build 0)  -->
<!DOCTYPE svg PUBLIC "-//W3C//DTD SVG 1.1//EN" "http://www.w3.org/Graphics/SVG/1.1/DTD/svg11.dtd">
<svg version="1.1" id="Layer_1" xmlns="http://www.w3.org/2000/svg" xmlns:xlink="http://www.w3.org/1999/xlink" x="0px" y="0px"
	 width="127.16px" height="355.608px" viewBox="0 0 127.16 355.608" enable-background="new 0 0 127.16 355.608"
	 xml:space="preserve">
<g>
	<path fill="#FFFFFF" d="M31.891,61.243c-3.281-4.653-6.698-9.272-9.865-14.057c-3.082-4.656-6.019-9.419-8.819-14.25
		c-3.44-5.938-6.717-11.973-9.972-18.016c-1.056-1.959-1.938-4.031-2.698-6.125c-1.888-5.208,1.392-9.4,6.963-8.723
		c5.063,0.615,10.162,1.252,15.108,2.444c24.967,6.019,47.8,16.782,68.698,31.634c6.643,4.721,13.048,9.786,18.309,16.101
		c0.84,1.011,1.845,1.157,2.982,1.081c2.831-0.187,5.379,0.659,7.703,2.178c5.115,3.346,8.008,10.399,6.43,16.353
		c-1.019,3.841-2.437,7.586-3.822,11.319c-4.606,12.419-9.368,24.782-13.888,37.231c-1.942,5.351-5.931,8.179-11.008,9.669
		c-4.601,1.351-8.823,0.103-12.527-2.895c-0.57-0.461-1.1-0.97-1.676-1.482c-1.042,1.219-0.615,2.359-0.619,3.401
		c-0.038,9.11,0.05,18.221-0.069,27.33c-0.063,4.942-0.366,9.887-0.745,14.816c-0.128,1.678,0.146,3.076,0.901,4.558
		c1.082,2.121,2.037,4.326,2.819,6.574c1.593,4.579,1.065,9.148-0.557,13.605c-0.586,1.609-0.648,2.971,0.236,4.532
		c0.689,1.218,0.906,2.703,1.335,4.069c0.375,1.197,0.685,2.421,1.142,3.587c0.93,2.377,2.105,4.7,1.322,7.369
		c-0.312,1.062,0.18,1.837,0.755,2.631c4.782,6.587,7.47,14.054,9.104,21.938c2.045,9.861,3.385,19.815,4.147,29.866
		c0.92,12.119,1.342,24.248,1.099,36.393c-0.109,5.417-0.684,10.822-1.014,16.236c-0.17,2.784-1.522,4.815-3.826,6.274
		c-0.538,0.34-1.092,0.681-1.679,0.917c-1.521,0.608-2.078,1.767-2.313,3.325c-0.547,3.629-1.514,7.215-1.808,10.857
		c-0.506,6.291-4.74,9.415-9.841,11.093c-7.806,2.565-15.979,3.102-24.17,1.971c-2.523-0.348-5.013-0.974-7.501-1.54
		c-5.581-1.272-9.384-4.529-11.177-10.045c-0.986-3.036-2.154-6.015-3.065-9.072c-0.538-1.806-1.354-3.139-3.217-3.793
		c-1.042-0.366-2.02-0.958-2.963-1.55c-2.754-1.729-4.141-4.273-4.572-7.484c-2.818-20.951-3.341-42.007-2.721-63.094
		c0.343-11.694,2.272-23.193,5.762-34.387c1.333-4.28,2.941-8.476,5.993-11.887c0.934-1.044,1.227-2.124,1.254-3.467
		c0.041-2.09,0.494-4.059,1.756-5.865c1.097-1.568,1.235-3.509,1.488-5.433c-1.726-0.463-3.26-0.807-4.749-1.289
		c-3.226-1.042-5.642-3.054-6.649-6.355c-0.838-2.739-1.519-5.539-2.059-8.352c-0.433-2.257-1.085-4.092-3.12-5.595
		c-3.556-2.624-4.908-6.591-5.251-10.877c-0.298-3.708,0.227-7.341,1.473-10.843c1.043-2.93,2.686-5.464,5.513-6.975
		c1.356-0.725,2.253-1.57,2.465-3.219c0.16-1.24,0.804-2.413,1.204-3.626c1.287-3.902,4.131-5.932,8.039-6.643
		c1.094-0.2,2.217-0.348,3.325-0.342c3.646,0.019,3.524-0.398,3.521-3.425c-0.004-4.635,0.022-9.271-0.014-13.905
		c-0.021-2.451-0.205-2.556-2.804-2.663c-2.069-0.085-4.136-0.217-6.201-0.363c-2.474-0.174-4.123-1.548-5.213-3.686
		c-1.305-2.561-2.633-5.1-3.074-8.008c-0.576-3.782-1.596-7.524-1.84-11.321C24.984,79.876,26.721,70.239,31.891,61.243"/>
	<path d="M78.573,139.709c-0.297,9.101-0.566,18.204-0.908,27.303c-0.078,2.059-0.867,4.198-0.487,6.135
		c0.349,1.764,1.929,3.257,2.81,4.95c2.663,5.122,3.022,10.429,0.586,15.691c-1.084,2.339-1.918,4.325,0.374,6.392
		c0.547,0.493,1.031,1.422,0.999,2.125c-0.143,3.041,1.405,5.445,2.651,7.993c0.674,1.376,0.394,2.805-0.198,4.177
		c-0.399,0.925-0.515,1.838,0.215,2.683c6.851,7.94,9.436,17.614,11.186,27.613c1.543,8.818,2.293,17.721,3.077,26.635
		c1.082,12.289,1.046,24.579,0.885,36.879c-0.051,3.975-0.663,7.938-0.949,11.911c-0.103,1.421-0.813,2.378-1.908,3.14
		c-0.394,0.272-0.799,0.645-1.238,0.713c-3.686,0.559-4.069,3.373-4.501,6.285c-0.61,4.104-1.392,8.182-2.054,12.277
		c-0.272,1.684-1.109,2.86-2.49,3.889c-2.358,1.758-4.868,2.858-7.793,3.411c-7.8,1.477-15.541,1.651-23.285-0.222
		c-0.93-0.224-1.848-0.501-2.767-0.767c-3.494-1.011-5.765-3.265-6.913-6.71c-1.264-3.787-2.656-7.532-3.844-11.342
		c-0.625-2.003-1.625-3.285-3.771-3.829c-1.349-0.343-2.612-1.188-3.791-1.985c-1.233-0.832-1.829-2.084-2.049-3.622
		c-3.068-21.415-3.375-42.954-2.69-64.513c0.327-10.242,2.191-20.312,5.159-30.146c1.443-4.783,3.283-9.364,7.091-12.838
		c0.95-0.867,1.064-1.845,0.859-3.032c-0.369-2.138-0.234-4.128,1.779-5.573c0.417-0.299,0.746-1.071,0.709-1.596
		c-0.271-3.763,1.021-6.867,3.675-9.491c0.27-0.268,0.427-0.902,0.303-1.248c-0.117-0.328-0.669-0.703-1.033-0.707
		c-2.236-0.026-4.475,0.021-6.711,0.094c-4.999,0.162-7.419-2.242-8.274-6.811c-0.616-3.295-1.308-6.575-1.922-9.871
		c-0.156-0.849-0.478-1.473-1.311-1.812c-5.198-2.114-6.179-6.495-5.996-11.405c0.065-1.745,0.309-3.525,0.776-5.203
		c0.851-3.045,2.335-5.663,5.875-6.202c1.164-0.178,1.535-0.899,1.792-1.906c0.513-2.009,1.159-3.985,1.667-5.995
		c0.791-3.132,3.061-4.363,5.985-4.567c2.387-0.166,4.795-0.025,7.191-0.085c1.951-0.049,2.36-0.385,2.368-2.164
		c0.037-8.469,0.041-16.94,0.012-25.409c-0.006-1.684-0.535-2.168-2.403-2.197c-2.715-0.043-5.437-0.056-8.145,0.112
		c-2.596,0.161-4.128-0.914-5.235-3.241c-2.029-4.268-2.795-8.838-3.322-13.421c-0.7-6.069-0.281-12.117,1.322-18.06
		c1.052-3.888,2.428-7.59,4.928-10.822c1.204-1.557,1.161-1.643-0.03-3.308c-2.417-3.379-4.836-6.759-7.328-10.083
		c-6.353-8.469-11.329-17.775-16.493-26.966c-1.957-3.482-3.876-6.986-5.729-10.523c-0.734-1.403-1.313-2.899-1.842-4.395
		C4.61,5.702,5.081,4.98,7.37,5.299c4.899,0.683,9.884,1.108,14.654,2.335c28.259,7.269,53.919,19.796,76.329,38.618
		c3.281,2.755,6.109,6.072,8.991,9.27c1.063,1.179,1.905,1.966,3.615,1.418c3.452-1.107,6.366,0.096,8.569,2.728
		c2.47,2.948,3.686,6.379,2.402,10.25c-1.051,3.181-2.216,6.326-3.383,9.467c-4.505,12.126-9.136,24.207-13.479,36.391
		c-1.164,3.267-3.287,5.4-5.992,7.119c-5.177,3.287-12.387-0.17-13.15-6.267c-0.155-1.251-0.05-2.553,0.072-3.819
		c0.166-1.725-0.788-2.63-2.134-3.375c-1.508-0.834-3.094-0.678-4.666-0.397c-0.346,0.061-0.807,0.589-0.861,0.955
		c-0.141,0.938-0.101,1.906-0.101,2.863c-0.005,8.949-0.003,17.898-0.003,26.848C78.346,139.705,78.46,139.708,78.573,139.709"/>
	<path fill="#FD9800" d="M58.347,109.122c4.462-0.083,8.924-0.19,13.386-0.234c1.166-0.012,1.635,0.566,1.682,1.804
		c0.025,0.637-0.02,1.276-0.016,1.914c0.097,18.342,0.198,36.683,0.294,55.025c0.003,0.615-0.053,1.23-0.094,2.123
		c-2.36-1.028-4.443-2.245-6.69-2.827c-2.279-0.591-4.722-0.554-7.093-0.792c2.12-2.647,1.765-5.491,1.118-8.604
		c-1.233-5.928-2.284-11.913-2.152-18.024c3.51-6.368,0.553-13.099,1.068-19.637c0.183-2.323,0.354-4.815-2.057-6.39
		C57.092,111.914,57.051,110.432,58.347,109.122"/>
	<path fill="#FEFEFE" d="M90.275,111.073c0.195-0.566,0.438-1.32,0.717-2.06C96.16,95.29,101.4,81.594,106.45,67.828
		c1.065-2.906,2.663-4.977,5.456-6.241c1.195-0.541,2.193-0.288,3.123,0.414c2.155,1.629,2.896,4.707,1.861,7.291
		c-4.034,10.061-8.08,20.117-12.073,30.194c-1.821,4.595-3.51,9.242-5.306,13.847c-0.459,1.178-0.942,2.4-1.681,3.406
		c-1.923,2.619-5.311,2.194-6.408-0.805C90.88,114.451,90.68,112.842,90.275,111.073"/>
	<path fill="#CCCCCC" d="M40.202,89.486c1.135,1.067,0.618,3.197,2.494,3.857c1.243-1.435,1.144-3.224,1.384-4.919
		c0.604-4.251,1.198-8.505,1.857-12.749c0.116-0.747,0.532-1.447,0.789-2.118c0.356,0.038,0.506,0.033,0.643,0.074
		c0.146,0.044,0.322,0.094,0.417,0.202c8.771,10.049,17.812,19.844,27.563,28.869c-0.57,1.212-1.47,0.871-2.185,0.866
		c-4.94-0.038-9.88-0.215-14.817-0.165c-3.655,0.037-7.306,0.429-10.961,0.514c-3.179,0.074-6.362-0.048-9.542-0.133
		c-0.2-0.005-0.388-0.438-0.581-0.67c1.455-1.496,3.465-1.072,5.446-1.3C38.279,97.495,37.717,94.516,40.202,89.486"/>
	<path fill="#CBCCCC" d="M57.356,172.119c2.003-1.522,4.381-1.295,6.43-0.676c5.608,1.697,9.887,5.094,11.963,10.822
		c1.479,4.082,0.771,7.885-1.54,11.414c-1.92,2.93-4.92,4.194-8.245,4.047c-4.234-0.187-8.114-1.541-10.736-5.243
		c-0.243-2.677-1.294-5.229-1.06-7.991c0.482-5.687,2.708-10.081,8.526-11.967C60.83,173.183,59.006,173.861,57.356,172.119"/>
	<path fill="#F8FAFA" d="M59.095,59.786c1.169-4.463,2.463-8.898,3.461-13.399c0.617-2.785,0.799-5.668,1.146-8.511
		c0.168-1.379-0.29-2.389-1.558-3.186C55.936,30.792,49.76,26.847,43.1,23.742c-3.752-1.749-7.533-3.434-11.282-5.187
		c-5.21-2.436-10.61-4.312-16.202-5.65c-1.095-0.263-2.199-0.502-2.79-1.613c-0.135-0.255-0.323-0.657-0.219-0.82
		c0.131-0.206,0.532-0.299,0.827-0.324c0.307-0.027,0.635,0.054,0.938,0.141c17.798,5.118,35.064,11.559,51.389,20.403
		c5.759,3.119,5.056,3.184,3.076,8.411c-2.875,7.591-5.783,15.17-8.679,22.754C58.276,61.951,58.865,60.776,59.095,59.786"/>
	<path fill="#FB9701" d="M54.308,338.651c0.546,0.547,1.107,1.079,1.635,1.645c0.751,0.806,1.344,0.351,1.94-0.203
		c2.756-2.584,1.134-6.673,3.26-9.474c0.775-0.059,1.554-0.192,2.325-0.158c1.845,0.077,2.173,0.268,2.204,2.189
		c0.036,2.28,0.845,4.248,1.862,6.19c2.631,1.234,2.798-1.179,3.621-2.507c1.155-1.865,0.752-4.455,2.729-5.956
		c0.287-0.126,0.563-0.313,0.863-0.368c0.84-0.152,1.756-0.13,1.625,1.026c-0.282,2.504-0.624,4.983,0.584,7.505
		c1.889-1.629,2.611-3.762,2.889-5.945c0.332-2.609,1.565-4.028,4.161-4.313c0.465-0.051,0.92-0.188,1.693-0.353
		c-0.041,0.871,0.007,1.624-0.125,2.345c-0.694,3.751-1.45,7.489-2.148,11.239c-0.196,1.059-0.734,1.735-1.788,1.946
		c-8.969,1.795-17.936,2.629-26.895-0.058c-0.14-0.042-0.248-0.194-0.371-0.295C53.93,341.628,52.998,340.156,54.308,338.651"/>
	<path fill="#F4F4F3" d="M59.865,139.436c0.496,8.648,1.741,17.185,4.063,25.764c-1.492,0.339-2.808,0.638-4.119,0.936
		c-1.533,0.303-3.073,0.607-4.92,0.971c-0.058-1.472-0.162-2.833-0.158-4.193c0.046-14.768,0.116-29.536,0.157-44.304
		c0.007-2.54-0.13-5.08-0.14-7.62c-0.008-2.019,0.262-2.206,2.681-2.111c0.309,0.012,0.612,0.159,0.917,0.243
		c0.031,1.46,0.063,2.919,0.093,4.378c1.116,1.112,1.242,2.558,1.235,3.993C59.637,124.809,59.893,132.121,59.865,139.436"/>
	<path fill="#F7F8F8" d="M62.295,268.13c-7.704,0.401-15.329-0.135-22.846-1.942c-0.93-0.225-1.847-0.503-2.773-0.743
		c-0.908-0.235-1.294-0.833-1.237-1.741c0.318-5.102,0.435-10.227,1.006-15.301c0.862-7.625,2.579-15.106,4.556-22.517
		c0.918-3.438,2.396-6.618,5.064-9.078c0.348-0.321,1.159-0.311,1.69-0.183c0.229,0.055,0.495,0.854,0.395,1.221
		c-0.291,1.073-0.748,2.103-1.154,3.143c-3.396,8.671-5.435,17.689-6.813,26.869c-0.498,3.316-0.756,6.668-1.29,9.978
		c-0.34,2.098,0.549,3.346,2.243,4.282c3.521,1.947,7.243,3.398,11.205,4.054c3.145,0.521,6.343,0.727,9.517,1.071
		C62.378,267.354,62.523,267.65,62.295,268.13"/>
	<path fill="#F2F3F3" d="M35.506,269.499c5.899,0.402,5.245,1.124,4.423,5.283c-1.868,9.459-2.198,18.962-1.141,28.528
		c0.35,3.163,0.882,6.311,1.103,9.481c0.148,2.135,1.165,3.617,2.777,4.753c1.813,1.276,3.705,2.451,5.613,3.582
		c1.313,0.776,2.711,1.405,4.051,2.091c-0.188,0.406-0.237,0.609-0.29,0.61c-5.013,0.101-9.757-1.086-14.364-2.959
		c-1.064-0.433-1.338-1.166-1.259-2.248c0.695-9.563-0.345-19.094-0.595-28.639c-0.148-5.731-0.38-11.462-0.531-17.193
		C35.264,271.693,35.43,270.596,35.506,269.499"/>
	<path fill="#F5F6F6" d="M83.321,296.965c-0.271-5.772-0.577-12.146-0.86-18.521c-0.057-1.275-0.039-2.554-0.036-3.831
		c0.005-1.79,0.458-2.942,1.033-2.692c1.197,0.521,1.451,1.636,1.601,2.735c0.218,1.58,0.318,3.176,0.465,4.767
		c1.029,11.127,1.908,22.261,1.426,33.451c-0.042,0.955-0.107,1.933,0.046,2.864c0.09,0.55,0.472,1.199,0.926,1.512
		c1.042,0.722,2.213,1.253,3.319,1.886c0.643,0.365,0.696,1.185,0.089,1.472c-1.007,0.472-2.013,0.969-3.066,1.316
		c-6.805,2.243-5.622,1.977-5.411-3.766C83.104,311.301,83.165,304.438,83.321,296.965"/>
	<path fill="#EFF0F0" d="M85.139,266.346c-2.166,0.09-2.751-0.438-2.832-1.686c-0.279-4.289-0.444-8.587-0.816-12.867
		c-0.832-9.543-2.431-18.944-5.515-28.052c-0.301-0.889-0.451-1.853-0.511-2.792c-0.056-0.866,0.404-1.5,1.339-1.664
		c0.471-0.083,0.938-0.192,1.412-0.251c1.443-0.178,2.541,0.501,2.854,1.829c0.144,0.61,0.211,1.26,0.185,1.886
		c-0.48,11.385,1.312,22.548,3.256,33.698c0.269,1.541,0.102,3.514,1.001,4.5c1.138,1.246,2.921-0.299,4.448-0.446
		c0.95-0.092,1.935-0.36,2.35,0.905c0.495,1.512,0.132,2.458-1.366,3.002C88.713,265.221,86.44,265.915,85.139,266.346"/>
	<path fill="#FBFBFB" d="M40.202,89.486c-0.034,2.049-0.018,4.101-0.117,6.146c-0.085,1.759,0.644,3.045,2.007,4.052
		c0.886,0.655,1.795,1.283,2.647,1.98c0.192,0.158,0.308,0.573,0.252,0.824c-0.046,0.208-0.393,0.49-0.612,0.496
		c-2.371,0.071-4.743,0.094-7.116,0.13c-0.207-0.589-0.53-1.166-0.604-1.772c-0.817-6.639-1.284-13.292-0.528-19.973
		c0.449-3.968,1.348-7.83,3-11.477c0.565-1.251,1.355-2.401,2.058-3.622c1.952,1.221,2.657,2.405,1.858,4.504
		C40.757,76.785,39.876,83.055,40.202,89.486"/>
	<path fill="#F5F8F8" d="M104.782,61.37c-1.214,2.599-2.411,5.161-3.906,8.361c-0.477-1.664-0.914-2.74-1.081-3.857
		c-0.687-4.593-2.929-8.379-5.979-11.746c-4.64-5.122-9.939-9.403-16.122-12.563c-1.555-0.794-3.055-1.71-4.501-2.686
		c-0.954-0.643-0.795-1.683-0.396-2.586c0.146-0.331,0.7-0.744,0.993-0.692c0.6,0.106,1.181,0.45,1.716,0.784
		c7.983,5.004,15.556,10.558,22.479,16.962C100.561,55.729,102.928,58.309,104.782,61.37"/>
	<path fill="#F6F8F8" d="M66.11,207.536c-4.435-0.213-8.097-0.402-11.609-1.614c-0.899-0.31-1.806-0.637-2.646-1.077
		c-2.091-1.093-2.484-2.05-1.652-4.275c0.383-1.025,0.972-1.99,1.598-2.892c0.183-0.262,0.897-0.404,1.222-0.263
		c0.563,0.245,1.003,0.762,1.509,1.147c5.909,4.497,12.254,5.832,19.254,2.722c1.71-0.76,3.419,0.397,3.512,2.396
		c0.023,0.52-0.399,1.301-0.849,1.555c-1.093,0.619-2.282,1.213-3.502,1.433C70.442,207.12,67.896,207.321,66.11,207.536"/>
	<path fill="#F4F9F9" d="M47.128,207.423c2.291,1.029,4.472,2.429,6.851,3c7.87,1.89,15.78,2.202,23.59-0.497
		c1.682-0.58,2.351-0.409,2.828,0.63c0.575,1.251,0.313,2.692-0.854,3.359c-1.087,0.622-2.298,1.112-3.517,1.394
		c-1.39,0.323-2.848,0.487-4.277,0.489c-5.909,0.006-11.814-0.122-17.633-1.351c-2.211-0.466-4.308-1.144-6.021-2.724
		C46.763,210.495,46.344,209.107,47.128,207.423"/>
	<path fill="#FAFBFB" d="M57.356,172.119h6.074c-0.53,0.663-0.718,1.113-1.046,1.275c-5.724,2.817-7.935,8.734-6.728,15.307
		c0.141,0.77,0.538,1.533,0.5,2.284c-0.027,0.513-0.601,0.999-0.93,1.498c-4.104-3.969-4.458-8.986-3.552-14.12
		C52.212,175.32,53.801,172.684,57.356,172.119"/>
	<path fill="#EAEBEB" d="M46.269,254.647c-1.646-2.137-1.588-3.746-1.324-5.293c1.123-6.6,2.519-13.143,4.845-19.441
		c0.491-1.329,1.227-2.581,1.975-3.791c0.164-0.266,0.942-0.387,1.288-0.234c0.305,0.134,0.606,0.779,0.547,1.137
		c-0.155,0.929-0.406,1.872-0.802,2.725c-2.369,5.117-3.318,10.605-4.284,16.091c-0.222,1.254-0.402,2.521-0.719,3.752
		C47.406,251.109,46.896,252.595,46.269,254.647"/>
	<path fill="#DD8500" d="M37.719,179.422c-1.749-3.393-1.883-6.694-0.398-10.168c1.646-3.853,0.948-7.87,0.148-11.765
		c-0.496-2.412-0.549-4.731-0.068-7.099c0.048-0.241,0.305-0.576,0.509-0.613c0.229-0.04,0.691,0.162,0.739,0.342
		c0.742,2.753,1.734,5.434,1.606,8.388c-0.181,4.145-0.227,8.301-0.15,12.449c0.048,2.616-0.664,5.042-1.362,7.488
		C38.636,178.822,38.096,179.077,37.719,179.422"/>
	<path fill="#F5F6F6" d="M43.147,153.605c-0.72-3.025-1.407-5.927-2.099-8.833c6.672-1.282,7.185-0.973,8.471,5.041
		c0.131,0.614,0.214,1.246,0.235,1.872c0.022,0.609-0.062,1.223-0.111,2.024C47.412,154.083,45.282,154.103,43.147,153.605"/>
	<path fill="#F9FDFD" d="M49.717,157.946v12.253c-0.844,0.059-1.922,0.201-2.999,0.195c-1.992-0.012-2.11-0.143-2.175-2.197
		c-0.085-2.707-0.143-5.414-0.181-8.122c-0.025-1.753,0.211-2.041,1.767-2.119C47.207,157.902,48.29,157.946,49.717,157.946"/>
	<path fill="#EFF3F3" d="M41.107,187.041c1.093-4.535,2.014-8.357,2.935-12.18c0.211-0.877,0.791-1.396,1.669-1.383
		c0.763,0.012,1.533,0.176,2.273,0.374c0.144,0.038,0.314,0.602,0.223,0.814c-1.576,3.629-1.488,7.412-1.139,11.232
		c0.07,0.77-0.45,1.126-1.17,1.137C44.491,187.056,43.084,187.041,41.107,187.041"/>
	<path fill="#DFE7E7" d="M76.441,280.458c-0.012,2.626-2.591,5.159-5.278,5.187c-2.429,0.025-4.334-2.151-4.202-4.799
		c0.13-2.637,2.385-4.921,4.898-4.968C74.234,275.834,76.453,278.052,76.441,280.458"/>
	<path fill="#F2F0EB" d="M54.308,338.651c0.117,0.911,0.293,1.821,0.329,2.737c0.022,0.569-0.168,1.146-0.264,1.719
		c-1.325-0.121-2.412-0.482-2.893-1.966c-1.121-3.447-2.357-6.857-3.518-10.294c-0.393-1.168,0.097-1.664,1.455-1.563
		c0.315,0.021,0.627,0.085,0.943,0.095c1.263,0.04,1.954,0.553,2.208,1.919C53.029,333.771,53.716,336.203,54.308,338.651"/>
	<path fill="#E5E7E7" d="M68.029,259.458c-0.559-1.369-0.608-2.762-0.148-4.162c0.682-2.073,2.301-2.946,4.433-2.394
		c0.454,0.119,0.892,0.313,1.333,0.479c2.738,1.036,3.754,2.861,3.055,5.488c-0.634,2.382-2.827,3.776-5.438,3.344
		c-0.581-0.096-1.101-0.566-1.648-0.863c-0.104-1.949,2.05-1.619,2.743-2.749c0.599-1.395-0.034-1.979-1.357-2.092
		c-0.492,0.135-0.854,0.426-1.083,0.884c-0.163,0.5-0.31,0.999-0.534,1.475C69.055,259.352,68.674,259.712,68.029,259.458"/>
	<path fill="#F59000" d="M34.983,159.631c0.703,2.552-0.102,4.961-0.739,7.374c-0.327,1.237-1.452,1.511-2.574,0.8
		c-0.872-0.554-1.376-1.323-1.382-2.3c-0.01-1.707,0.114-3.416,0.181-5.124C31.877,159.543,33.267,158.602,34.983,159.631"/>
	<path fill="#E2E6E6" d="M74.488,54.969c-0.059,1.526-1.557,3.001-3.07,3.023c-1.682,0.023-3.311-1.694-3.206-3.383
		c0.091-1.489,1.655-3.06,3.069-3.082C72.897,51.502,74.552,53.278,74.488,54.969"/>
	<path fill="#DFE2E2" d="M54.773,42.059c1.702,0.02,3.386,1.794,3.261,3.438c-0.115,1.511-1.784,2.954-3.282,2.837
		c-1.498-0.116-3.018-1.711-3.027-3.174C51.714,43.664,53.309,42.042,54.773,42.059"/>
	<path fill="#F1F0E5" d="M73.885,330.378c-0.403,2.862-1.001,5.67-2.555,8.167c-0.735,1.183-1.761,1.902-3.205,1.378
		c-0.29-0.106-0.398-0.708-0.592-1.081c0.404-0.141,1.009-0.157,1.179-0.439c1.079-1.779,1.639-3.731,1.87-5.813
		C70.858,330.094,70.928,330.102,73.885,330.378"/>
	<path fill="#F5F0E4" d="M61.143,330.619c0.012,1.417,0.163,2.851,0.002,4.246c-0.257,2.209-0.826,4.329-3.262,5.229
		c0.439-2.712,0.289-5.377-0.398-8.051c-0.393-1.525,0.102-1.964,1.804-1.858C59.913,330.224,60.525,330.469,61.143,330.619"/>
	<path fill="#D0D0D0" d="M57.712,234.962c0.521,0.663,1.34,1.232,1.344,1.807c0.008,1.209-0.283,2.467-0.699,3.616
		c-0.305,0.839-1.039,1.863-2.052,1.404c-0.711-0.322-1.337-1.302-1.568-2.112c-0.406-1.434,0.239-2.782,1.151-3.882
		C56.232,235.38,56.965,235.287,57.712,234.962"/>
	<path fill="#D3D9CB" d="M34.983,159.631c-1.458,0.528-2.888,1.229-4.515,0.751c0.075-0.94-0.006-1.927,0.266-2.805
		c0.289-0.937,1.022-1.577,2.161-1.525c1.127,0.052,1.761,0.696,2.002,1.7C35.041,158.352,34.962,159.003,34.983,159.631"/>
	<path fill="#B8B7B7" d="M59.095,59.786c0.354,0.69,0.709,1.381,1.063,2.071c-0.772,2.395-1.518,4.801-2.352,7.176
		c-0.127,0.359-0.672,0.572-1.024,0.853c-0.188-0.381-0.527-0.76-0.535-1.145c-0.01-0.62,0.123-1.268,0.326-1.86
		C57.386,64.507,58.25,62.15,59.095,59.786"/>
	<path fill="#F7F8F8" d="M62.295,268.13c-0.145-0.296-0.288-0.591-0.436-0.887c1.268-0.063,2.535-0.172,3.805-0.186
		c4.268-0.05,8.547,0.324,12.996-0.082c-0.536,0.323-1.065,0.914-1.611,0.928C72.133,268.036,67.214,268.067,62.295,268.13"/>
	<path fill="#FFFFFF" d="M68.029,259.458c0.348-0.385,0.693-0.77,1.042-1.155c1.649-0.324,3.183-0.126,4.501,1.018
		c-0.455,0.902-1.257,1.165-2.185,1.134c-0.771-0.026-1.447,0.069-1.772,0.897C68.611,261.117,68.135,260.442,68.029,259.458"/>
	<path fill="#090805" d="M59.865,139.436c-0.469-1.503-1.313-2.999-1.343-4.511c-0.15-7.138-0.077-14.281-0.084-21.424
		c2.122-0.133,2.597,0.108,2.723,1.519c0.085,0.951,0.046,1.913,0.08,2.869c0.151,4.146,0.408,8.291,0.428,12.437
		c0.01,2.374-0.282,4.762-0.61,7.12C60.961,138.15,60.28,138.774,59.865,139.436"/>
	<path fill="#231400" d="M62.541,118.358c0.285-1.104,0.342-1.942,0.724-2.588c0.269-0.454,0.977-0.885,1.492-0.889
		c0.514-0.003,1.246,0.412,1.513,0.863c1.061,1.793,0.62,4.62-0.906,6.085c-0.516,0.494-1.309,0.342-1.605-0.26
		C63.216,120.475,62.878,119.279,62.541,118.358"/>
	<path fill="#262424" d="M51.358,85.625c-0.329,1.222-0.281,2.799-1.795,3.521c-0.879,0.419-2.006-1.666-2.035-3.743
		c-0.025-1.841,1.059-3.315,2.215-3.009C50.85,82.686,51.518,83.959,51.358,85.625"/>
	<path fill="#0B0909" d="M70.666,185.269c-0.06,2.26-0.677,4.18-2.192,5.725c-1.669,1.7-3.958,1.983-6.063,0.735
		c-0.664-0.393-1.424-0.971-1.095-1.852c0.186-0.493,0.839-0.86,1.353-1.164c0.394-0.233,0.932-0.213,1.352-0.417
		c1.821-0.887,2.435-2.554,1.467-4.301c-0.527-0.953-1.339-1.745-1.984-2.636c-0.608-0.839-0.732-1.745-0.089-2.622
		c0.618-0.842,1.948-1.003,3.009-0.37C69.079,179.954,70.277,182.428,70.666,185.269"/>
	<path fill="#201D1D" d="M74.376,281.341c-0.172,1.332-1.297,2.145-2.775,2.169c-1.203,0.02-2.334-0.646-2.471-1.652
		c-0.074-0.552,0.081-1.294,0.423-1.714c1.174-1.442,3.255-1.377,4.417,0.085C74.233,280.563,74.281,281.068,74.376,281.341"/>
	<path fill="#151111" d="M73.572,259.321c-1.694,0.52-3.241,0.387-4.501-1.017c0.005-0.539,0.01-1.078,0.015-1.616
		c0.109-0.366,0.32-0.658,0.632-0.878c0.136-0.083,0.271-0.166,0.406-0.251c1.235-0.77,2.424-0.737,3.458,0.324
		C74.672,257.002,74.389,258.176,73.572,259.321"/>
	<path fill="#869B9B" d="M69.719,255.81c-0.211,0.293-0.423,0.586-0.634,0.878C69.297,256.395,69.508,256.102,69.719,255.81"/>
</g>
</svg>
