<?xml version="1.0" encoding="utf-8"?>
<!-- Generator: Adobe Illustrator 16.0.0, SVG Export Plug-In . SVG Version: 6.00 Build 0)  -->
<!DOCTYPE svg PUBLIC "-//W3C//DTD SVG 1.1//EN" "http://www.w3.org/Graphics/SVG/1.1/DTD/svg11.dtd">
<svg version="1.1" id="Layer_1" xmlns="http://www.w3.org/2000/svg" xmlns:xlink="http://www.w3.org/1999/xlink" x="0px" y="0px"
	 width="293.161px" height="179.551px" viewBox="0 0 293.161 179.551" enable-background="new 0 0 293.161 179.551"
	 xml:space="preserve">
<g>
	<path fill="#FFFFFF" d="M119.382,72.343c8.138-6.443,17.004-9.892,27.187-9.829c10.185,0.064,18.951,3.801,26.958,10.175
		c3.424-2.247,6.754-4.422,10.075-6.61c17.994-11.859,35.974-23.739,53.984-35.575c11.604-7.628,23.249-15.196,34.881-22.784
		c3.074-2.005,6.146-4.016,9.265-5.954c0.933-0.58,1.971-1.132,3.03-1.333c2.446-0.464,4.808-0.249,6.539,1.895
		c1.851,2.293,2.382,4.851,1.317,7.629c-0.816,2.135-2.291,3.823-3.974,5.331c-4.401,3.945-8.807,7.886-13.216,11.822
		c-12.276,10.957-24.526,21.941-36.861,32.83c-1.813,1.6-2.647,3.166-2.613,5.69c0.091,6.7-0.236,13.406-0.36,20.11
		c-0.021,1.107,0.065,2.231,0.241,3.326c0.563,3.513-0.314,6.703-2.373,9.49c-2.465,3.337-5.117,6.538-7.739,9.756
		c-8.272,10.154-16.538,20.31-24.862,30.42c-5.684,6.903-11.343,13.832-17.776,20.078c-1.02,0.99-1.787,2.236-2.701,3.339
		c-8.659,10.453-19.46,16.953-33.286,17.379c-11.337,0.35-21.384-3.274-29.705-11.072c-2.663-2.495-4.882-5.465-7.281-8.238
		c-0.728-0.842-1.297-1.829-2.071-2.62c-7.613-7.774-14.319-16.322-21.206-24.716c-8.002-9.753-15.992-19.517-23.977-29.285
		c-1.313-1.607-2.599-3.239-3.844-4.9c-1.684-2.245-2.471-4.812-2.485-7.605c-0.03-6.542-0.046-13.084-0.049-19.626
		c-0.001-2.397-0.094-4.807,0.125-7.186c0.164-1.784-0.37-3.021-1.68-4.173c-4.197-3.694-8.313-7.478-12.49-11.195
		C29.902,37.76,17.336,26.651,4.853,15.447c-1.514-1.358-2.71-3.121-3.839-4.837C0.43,9.72,0.105,8.538,0.023,7.461
		c-0.395-5.191,4.268-8.749,9.2-7.019c1.181,0.414,2.267,1.153,3.33,1.845c20.6,13.419,41.215,26.816,61.773,40.299
		c14.283,9.367,28.485,18.857,42.726,28.289C117.712,71.311,118.391,71.719,119.382,72.343"/>
	<path fill="#010000" d="M119.735,78.633c1.389-1.116,2.602-2.141,3.866-3.099c6.416-4.859,13.592-7.733,21.689-7.928
		c9.353-0.226,17.549,2.956,24.696,8.887c3.475,2.885,2.538,3.088,6.781,0.298c30.705-20.196,61.406-40.4,92.115-60.591
		c4.407-2.896,8.846-5.744,13.276-8.604c0.938-0.606,1.905-1.17,2.866-1.741c0.945-0.564,1.839-0.479,2.586,0.34
		c0.727,0.799,0.848,1.847,0.285,2.656c-0.991,1.425-2.083,2.828-3.353,4.002c-3.754,3.47-7.619,6.823-11.437,10.225
		c-13.483,12.011-26.946,24.047-40.479,36.003c-1.507,1.332-1.713,2.614-1.65,4.558c0.213,6.538,0.031,13.089,0.003,19.635
		c-0.009,2.066-0.24,4.164,0.037,6.192c0.397,2.909-0.349,5.362-2.114,7.592c-1.587,2.005-3.184,4.003-4.803,5.98
		c-9.317,11.372-18.669,22.717-27.956,34.113c-5.253,6.445-10.643,12.759-16.546,18.626c-1.012,1.004-1.844,2.197-2.711,3.339
		c-2.832,3.73-6.217,6.921-10.112,9.454c-12.812,8.329-26.108,8.692-39.521,1.648c-5.293-2.781-9.345-7.171-12.917-11.963
		c-1.332-1.787-2.787-3.484-4.233-5.182c-5.7-6.685-11.496-13.291-17.113-20.045c-8.786-10.566-17.459-21.227-26.173-31.853
		c-1.215-1.483-2.355-3.028-3.582-4.501c-1.293-1.552-1.829-3.338-1.832-5.318c-0.011-8.304-0.029-16.607-0.014-24.911
		c0.003-1.435,0.008-2.897,0.279-4.295c0.286-1.475-0.257-2.413-1.289-3.329c-4.776-4.244-9.51-8.538-14.283-12.785
		C33.681,34.987,21.249,23.958,8.834,12.907c-0.953-0.847-1.878-1.742-2.692-2.718c-0.497-0.595-0.966-1.361-1.061-2.1
		C4.99,7.39,5.248,6.531,5.63,5.915c0.472-0.762,1.387-0.798,2.141-0.401c1.271,0.667,2.509,1.405,3.711,2.189
		c19.81,12.919,39.636,25.814,59.408,38.79c14.961,9.818,29.85,19.746,44.777,29.616C116.98,76.977,118.341,77.771,119.735,78.633"
		/>
	<path fill="#FFFFFF" d="M185.216,121.083c-0.352,12.636-3.758,24.871-12.109,35.449c-3.3,4.179-7.195,7.699-11.845,10.307
		c-10.632,5.963-21.261,5.957-31.821-0.218c-5.479-3.204-9.806-7.614-13.332-12.845c-5.394-8.002-8.204-16.831-8.682-26.469
		c-0.575-11.583,1.556-22.547,7.188-32.735c3.688-6.668,8.572-12.287,15.046-16.42c15.851-10.119,34.478-5.202,44.516,8.8
		C182.32,98.313,185.004,108.424,185.216,121.083"/>
	<path fill="#FFFFFF" d="M66.516,87.665c-0.31-0.871-0.882-1.741-0.885-2.613c-0.018-6.529,0.067-13.057,0.165-19.585
		c0.005-0.363,0.348-0.782,0.646-1.048c0.106-0.095,0.599,0.123,0.828,0.307c0.744,0.599,1.452,1.242,2.166,1.877
		c11.661,10.38,23.287,20.799,35.018,31.099c1.705,1.496,2.029,2.759,1.349,4.889c-2.001,6.259-2.738,12.738-2.751,19.305
		c-0.002,0.876,0.365,1.864-0.662,2.832c-3.904-4.086-7.803-8.166-11.701-12.246c-3.567-1.253-4.743-4.794-6.995-7.304l-0.204-0.217
		c-0.129-0.372-0.372-0.629-0.748-0.757L82.54,104c-0.137-0.369-0.383-0.629-0.758-0.764l-0.191-0.195
		c-0.145-0.368-0.395-0.632-0.769-0.774l-0.182-0.185c-0.15-0.369-0.409-0.631-0.776-0.786l-0.172-0.175
		c-0.161-0.366-0.423-0.635-0.784-0.806l-0.146-0.157c-0.185-0.362-0.457-0.637-0.81-0.836l-0.125-0.131
		c-0.207-0.35-0.481-0.633-0.827-0.85l-0.114-0.121c-0.223-0.339-0.5-0.623-0.834-0.853l-0.111-0.116
		c-0.236-0.329-0.513-0.617-0.838-0.858l-0.108-0.114c-0.249-0.317-0.526-0.607-0.834-0.869l-0.097-0.106
		c-0.272-0.302-0.555-0.592-0.851-0.87L73.12,94.34c-0.283-0.296-0.57-0.586-0.863-0.872l-0.09-0.09
		c-0.287-0.292-0.576-0.584-0.866-0.874l-0.089-0.088c-0.291-0.289-0.581-0.581-0.869-0.875l-0.085-0.086
		c-0.296-0.287-0.587-0.579-0.873-0.877l-0.083-0.083c-0.301-0.287-0.592-0.58-0.874-0.883l-0.077-0.079
		c-0.309-0.283-0.602-0.581-0.879-0.893l-0.067-0.07C67.085,88.29,66.788,87.99,66.516,87.665"/>
	<path fill="#FFFFFF" d="M189.2,125.599c0.342-8.763-0.407-16.188-2.67-23.414c-0.526-1.682,0.316-2.639,1.478-3.662
		c8.37-7.388,16.7-14.824,25.042-22.245c3.574-3.18,7.142-6.369,10.728-9.538c0.674-0.596,1.418-1.112,2.075-1.623
		c1.119,0.728,0.713,1.603,0.723,2.316c0.07,5.421-0.021,10.847,0.178,16.263c0.07,1.934-0.426,3.271-1.79,4.623
		c-4.419,4.377-8.744,8.849-13.037,13.35c-6.272,6.579-12.483,13.217-18.727,19.823C192.144,122.608,191.056,123.694,189.2,125.599"
		/>
	<path fill="#FD9801" d="M54.094,45.337c4.396,2.98,8.769,5.997,13.491,8.507c-4.979-4.663-10.123-9.1-15.474-13.296
		c1.112-0.409,2.203-0.486,3.248,0.198c4.456,3.034,8.905,6.077,13.37,9.098c1.446,0.979,2.93,1.902,4.398,2.85
		c0.676,1.179,1.928,1.62,2.976,2.322l-0.096-0.011c0.924,0.769,1.991,1.32,2.991,1.972l-0.086-0.068
		c8.968,6.787,18.865,12.306,27.213,19.942c0.935,0.855,2.06,1.51,2.806,2.559c0.542,0.762,1.249,1.631,0.509,2.56
		c-0.71,0.891-1.726,0.515-2.644,0.227c-1.302-0.912-2.618-1.802-3.9-2.74c-6.317-4.625-12.619-9.269-18.946-13.882
		c-0.496-0.362-1.128-0.545-1.711-0.773c-0.067-0.027-0.257,0.177-0.343,0.306c-0.077,0.114-0.169,0.329-0.117,0.403
		c0.439,0.624,0.812,1.345,1.386,1.817c8.272,6.796,16.573,13.558,24.866,20.327c0.62,0.506,1.252,0.994,1.871,1.5
		c0.699,0.574,0.905,1.28,0.482,2.104c-0.653,1.275-1.326,2.54-2.102,4.018c-0.752-0.474-1.464-0.797-2.021-1.294
		c-17.777-15.846-35.54-31.708-53.304-47.568C52.842,45.536,53.128,45.078,54.094,45.337"/>
	<path fill="#FD9801" d="M239.236,47.422c-8.907,7.983-17.802,15.978-26.724,23.945c-8.209,7.332-16.442,14.635-24.672,21.945
		c-0.82,0.729-1.68,1.414-2.451,2.062c-0.468-0.286-0.828-0.378-0.946-0.598c-2.729-5.123-2.815-4.074,1.472-7.537
		c8.188-6.614,16.302-13.319,24.425-20.013c0.444-0.366,0.7-0.97,1.009-1.484c0.052-0.087-0.053-0.295-0.127-0.423
		c-0.08-0.135-0.257-0.36-0.308-0.339c-0.584,0.232-1.213,0.419-1.714,0.778c-4.791,3.443-9.559,6.918-14.336,10.377
		c-0.771,0.558-1.567,1.08-2.354,1.619c-1.813-0.258-2.75,1.439-4.221,1.895c-1.557,0.482-3.58,2.027-4.64-0.003
		c-0.837-1.603,1.118-2.631,2.454-3.523c6.322-4.225,12.542-8.614,19.042-12.566c5.689-3.459,11.168-7.244,16.864-10.687
		c0.946-0.571,1.781-1.375,3.015-1.11c2.737,2.163,4.152-1.979,6.565-1.393c0.313-0.031,0.578-0.157,0.801-0.378
		c0.398-0.115,0.722-0.339,0.969-0.672l0.074-0.045c0.332-0.307,0.636-0.656,1.093-0.79c0.294-0.063,0.54-0.208,0.737-0.435
		c0.408-0.093,0.721-0.32,0.934-0.682c0.625-0.36,1.251-0.721,1.876-1.082C239.056,46.056,239.386,46.494,239.236,47.422"/>
	<path fill="#F8F9F9" d="M186.292,141.36c0.738-3.021,1.491-4.854,1.578-6.718c0.178-3.809,2.18-6.432,4.679-9.039
		c10.608-11.061,21.099-22.235,31.643-33.358c0.656-0.692,1.371-1.333,2.109-1.937c0.149-0.122,0.65-0.064,0.769,0.085
		c0.156,0.197,0.225,0.649,0.101,0.847c-0.418,0.67-0.923,1.288-1.423,1.904c-8.255,10.157-16.52,20.307-24.771,30.467
		c-4.126,5.081-8.226,10.181-12.351,15.262C188.133,139.479,187.558,140.018,186.292,141.36"/>
	<path fill="#F8FAFA" d="M89.304,113.831c4.032,4.502,8.003,9.062,12.128,13.478c1.473,1.577,2.464,3.144,2.712,5.364
		c0.28,2.498,1.039,4.943,1.764,8.191c-1.285-1.262-2.096-1.919-2.74-2.71c-11.759-14.47-23.493-28.959-35.252-43.429
		c-0.688-0.848-1.523-1.577-2.291-2.361c-0.879-0.848-0.801-1.716-0.052-2.597c1.358,1.229,2.718,2.458,4.076,3.687
		c0.087,0.357,0.3,0.594,0.659,0.692l0.203,0.222c0.141,0.368,0.392,0.631,0.752,0.79l0.161,0.18
		c0.178,0.354,0.442,0.625,0.782,0.825l0.146,0.161c0.207,0.328,0.471,0.601,0.792,0.818l0.147,0.155
		c0.225,0.314,0.489,0.589,0.796,0.823l0.141,0.152c0.246,0.298,0.512,0.578,0.8,0.836l0.126,0.135
		c0.272,0.285,0.547,0.568,0.825,0.85l0.112,0.117c0.29,0.276,0.57,0.562,0.84,0.859l0.102,0.106
		c0.306,0.269,0.589,0.559,0.854,0.867l0.095,0.097c0.314,0.264,0.602,0.555,0.86,0.874l0.087,0.089
		c0.326,0.261,0.617,0.556,0.866,0.892l0.07,0.074c0.347,0.25,0.639,0.555,0.88,0.907l0.061,0.06
		c0.359,0.242,0.656,0.544,0.893,0.907l0.058,0.059c0.366,0.236,0.667,0.536,0.893,0.91l0.078,0.083
		C85.857,108.371,88.2,110.504,89.304,113.831"/>
	<path fill="#F0F6F2" d="M225.776,52.193c-0.586,0.192-1.245,0.271-1.748,0.594c-11.921,7.641-23.838,15.288-35.713,23
		c-1.521,0.988-3.264,1.839-4.339,3.873c2.566-0.159,4.481-1.279,6.446-2.244c0.776-0.381,1.503-0.469,2.086,0.339
		c-4.004,3.104-7.88,6.384-12.266,9.343c-1.454-1.913-2.79-3.668-4.201-5.523c0.586-0.511,1.003-0.972,1.506-1.299
		c19.511-12.63,39.028-25.248,58.544-37.868c0.977-0.268,1.29,0.229,1.281,1.103c-1.019,0.928-2.037,1.856-3.056,2.784
		c-0.297,0.488-0.682,0.868-1.255,1.013c-0.231-0.045-0.377,0.046-0.436,0.274c-0.491,0.072-0.817,0.351-1.013,0.797l-0.102,0.072
		c-0.352,0.239-0.673,0.513-0.962,0.825l-0.046,0.041c-0.27,0.518-0.599,0.988-1.063,1.344c-0.285,0.213-0.591,0.407-0.897,0.587
		c-0.278,0.191-0.581,0.352-0.891,0.491c-0.447,0.195-0.914,0.349-1.397,0.449C226.099,52.192,225.938,52.193,225.776,52.193"/>
	<path fill="#F1F6F1" d="M106.797,82.197c0.771-0.164,1.541-0.328,2.619-0.557c-0.468-0.603-0.737-1.124-1.155-1.465
		c-5.801-4.746-11.547-9.562-17.467-14.155c-3.266-2.532-6.848-4.654-10.249-7.013c-0.728-0.505-1.743-0.895-1.632-2.099
		c0.578,0.215,1.218,0.333,1.725,0.659c11.375,7.303,22.739,14.624,34.094,21.959c0.786,0.508,1.485,1.15,2.333,1.815
		c-1.418,1.861-2.751,3.61-4.196,5.507C110.557,85.537,108.65,83.901,106.797,82.197"/>
	<path fill="#1A1313" d="M89.304,113.831c-2.192-2.28-4.387-4.559-6.578-6.838c0.323-0.605,0.644-1.21,0.967-1.816
		c2.332,2.435,4.664,4.87,6.996,7.305C90.227,112.932,89.766,113.381,89.304,113.831"/>
	<path fill="#FE9801" d="M55.359,40.746c-1.08-0.064-2.16-0.128-3.244-0.195c-3.06-2.222-6.116-4.44-9.642-7
		C45.606,33.901,47.434,34.966,55.359,40.746"/>
	<path fill="#FFFFFF" d="M237.373,43.512c-0.427-0.368-0.854-0.736-1.279-1.104c3.587-2.988,7.349-5.701,11.719-7.46l-0.069-0.087
		c-0.058,0.291-0.012,0.716-0.187,0.853C244.178,38.334,240.771,40.919,237.373,43.512"/>
	<path fill="#FE9801" d="M54.094,45.337c-0.379,0.36-0.757,0.719-1.136,1.079c-3.863-2.798-7.551-5.789-10.533-9.555l0.102-0.099
		c0.303,0.063,0.68,0.033,0.899,0.203C46.992,39.741,50.54,42.542,54.094,45.337"/>
	<path fill="#FD9801" d="M239.236,47.422c-0.388-0.38-0.774-0.759-1.162-1.139c3.263-2.492,6.52-4.993,9.804-7.458
		c0.201-0.151,0.609-0.026,0.921-0.029l-0.071-0.067c-0.897,1.034-1.695,2.181-2.713,3.079
		C243.814,43.747,241.502,45.558,239.236,47.422"/>
	<path fill="#FD9801" d="M229.062,50.154c0.48-0.279,0.962-0.558,1.443-0.836c0.362,0.35,0.725,0.7,1.086,1.049
		c-1.738,1.321-3.459,2.668-5.236,3.933c-0.278,0.198-0.825,0.019-1.247,0.014c0.124-0.421,0.244-0.844,0.375-1.263
		c0.09-0.288,0.195-0.572,0.294-0.858c0,0.001-0.065,0.022-0.065,0.022c0.519-0.576,1.476-0.388,1.914-1.1l-0.055,0.063
		C228.065,50.834,228.518,50.428,229.062,50.154"/>
	<path fill="#FD9801" d="M76.104,55.016c-1.614,0.023-2.659-0.684-2.977-2.322C74.345,53.18,75.62,53.591,76.104,55.016"/>
	<path fill="#F1F6F1" d="M79,56.977c-1.58,0.226-2.347-0.782-2.992-1.972C77.307,55.206,78.36,55.775,79,56.977"/>
	<path fill="#1A1313" d="M65.572,89.767c0.018,0.866,0.035,1.732,0.052,2.598c-1.311-0.499-1.276-1.538-1.002-2.625
		C64.638,89.673,65.242,89.755,65.572,89.767"/>
	<path fill="#8C9B9B" d="M249.792,34.05c-0.684,0.271-1.365,0.541-2.049,0.811c0,0,0.07,0.087,0.07,0.086
		c0.332-1.117,1.227-0.859,2.027-0.828L249.792,34.05z"/>
	<path fill="#1A1313" d="M75.979,100.093c-0.275-0.284-0.551-0.567-0.825-0.851C75.43,99.527,75.704,99.81,75.979,100.093"/>
	<path fill="#1A1313" d="M77.002,98.341c0.275,0.284,0.553,0.568,0.827,0.851C77.553,98.908,77.276,98.624,77.002,98.341"/>
	<path fill="#1A1313" d="M75.028,99.108c-0.269-0.279-0.534-0.559-0.801-0.837C74.495,98.55,74.761,98.83,75.028,99.108"/>
	<path fill="#1A1313" d="M76.053,97.367c0.278,0.285,0.558,0.57,0.835,0.854C76.609,97.936,76.331,97.651,76.053,97.367"/>
	<path fill="#1A1313" d="M77.954,99.322c0.27,0.279,0.54,0.558,0.81,0.836C78.493,99.879,78.224,99.6,77.954,99.322"/>
	<path fill="#1A1313" d="M81.782,103.236c0.254,0.255,0.507,0.51,0.76,0.765C82.288,103.746,82.035,103.491,81.782,103.236"/>
	<path fill="#1A1313" d="M74.088,98.12c-0.267-0.275-0.531-0.549-0.795-0.823C73.558,97.572,73.823,97.846,74.088,98.12"/>
	<path fill="#1A1313" d="M82.741,104.204c0.25,0.253,0.5,0.506,0.748,0.758C83.239,104.708,82.99,104.456,82.741,104.204"/>
	<path fill="#1A1313" d="M81.698,105.942c-0.298-0.303-0.596-0.605-0.894-0.908C81.103,105.338,81.4,105.64,81.698,105.942"/>
	<path fill="#1A1313" d="M75.104,96.393c0.278,0.287,0.56,0.573,0.838,0.859C75.662,96.965,75.382,96.679,75.104,96.393"/>
	<path fill="#1A1313" d="M73.145,97.142c-0.265-0.273-0.529-0.547-0.793-0.819C72.616,96.596,72.88,96.869,73.145,97.142"/>
	<path fill="#1A1313" d="M74.161,95.41c0.279,0.291,0.558,0.581,0.836,0.871C74.718,95.99,74.438,95.7,74.161,95.41"/>
	<path fill="#1A1313" d="M72.207,96.163c-0.263-0.275-0.523-0.551-0.784-0.826C71.685,95.613,71.946,95.888,72.207,96.163"/>
	<path fill="#1A1313" d="M73.214,94.434c0.284,0.291,0.566,0.581,0.851,0.871C73.78,95.015,73.498,94.724,73.214,94.434"/>
	<path fill="#1A1313" d="M71.263,95.158c-0.252-0.264-0.503-0.528-0.753-0.791C70.761,94.632,71.012,94.895,71.263,95.158"/>
	<path fill="#1A1313" d="M72.257,93.468c0.289,0.291,0.577,0.582,0.865,0.872C72.833,94.049,72.546,93.759,72.257,93.468"/>
	<path fill="#1A1313" d="M70.308,94.146c-0.221-0.231-0.44-0.463-0.659-0.693C69.868,93.685,70.087,93.916,70.308,94.146"/>
	<path fill="#1A1313" d="M79.795,103.994c-0.289-0.298-0.578-0.595-0.867-0.892C79.217,103.4,79.506,103.697,79.795,103.994"/>
	<path fill="#1A1313" d="M70.343,91.542c0.29,0.292,0.581,0.583,0.871,0.875C70.923,92.125,70.633,91.833,70.343,91.542"/>
	<path fill="#1A1313" d="M69.385,90.578c0.291,0.292,0.582,0.585,0.873,0.877C69.967,91.162,69.676,90.87,69.385,90.578"/>
	<path fill="#1A1313" d="M68.428,89.612c0.291,0.294,0.583,0.589,0.874,0.883C69.011,90.2,68.719,89.906,68.428,89.612"/>
	<path fill="#1A1313" d="M67.472,88.64c0.293,0.298,0.586,0.596,0.879,0.894C68.058,89.236,67.765,88.938,67.472,88.64"/>
	<path fill="#1A1313" d="M76.932,101.069c-0.28-0.287-0.562-0.574-0.84-0.86C76.371,100.497,76.652,100.782,76.932,101.069"/>
	<path fill="#1A1313" d="M82.648,106.911c-0.298-0.304-0.597-0.607-0.894-0.91C82.054,106.305,82.352,106.608,82.648,106.911"/>
	<path fill="#1A1313" d="M66.516,87.665c0.296,0.302,0.593,0.604,0.889,0.906C67.107,88.269,66.812,87.967,66.516,87.665"/>
	<path fill="#482F03" d="M233.063,47.309c0.419-0.337,0.837-0.675,1.255-1.013C233.899,46.634,233.481,46.971,233.063,47.309"/>
	<path fill="#1A1313" d="M78.908,100.315c0.262,0.269,0.523,0.538,0.785,0.807C79.431,100.852,79.169,100.584,78.908,100.315"/>
	<path fill="#482F03" d="M231.614,48.379c0.336-0.265,0.673-0.53,1.011-0.795C232.289,47.849,231.952,48.113,231.614,48.379"/>
	<path fill="#482F03" d="M236.198,47.365c-0.313,0.228-0.622,0.455-0.935,0.682C235.576,47.82,235.886,47.593,236.198,47.365"/>
	<path fill="#A56700" d="M248.799,38.796c0.101-0.248,0.2-0.496,0.3-0.743c0.759,0.709-0.101,0.531-0.371,0.676L248.799,38.796z"/>
	<path fill="#482F03" d="M230.552,49.276c0.32-0.275,0.641-0.551,0.961-0.826C231.192,48.727,230.872,49.001,230.552,49.276"/>
	<path fill="#482F03" d="M234.527,48.482c-0.364,0.264-0.729,0.527-1.093,0.79C233.798,49.008,234.163,48.745,234.527,48.482"/>
	<path fill="#96620B" d="M42.425,36.861c-0.211-0.139-0.423-0.277-0.634-0.415c0.532-0.564,0.602-0.047,0.735,0.316L42.425,36.861z"
		/>
	<path fill="#1A1313" d="M80.746,104.975c-0.294-0.303-0.588-0.605-0.882-0.907C80.158,104.371,80.452,104.673,80.746,104.975"/>
	<path fill="#8C9B9B" d="M249.841,34.119c0.006-0.107,0.012-0.215,0.018-0.323c-0.025,0.083-0.05,0.166-0.07,0.251
		C249.792,34.05,249.841,34.119,249.841,34.119"/>
	<path fill="#482F03" d="M233.36,49.317l-0.971,0.672L233.36,49.317z"/>
	<path fill="#1A1313" d="M77.887,102.042c-0.285-0.29-0.569-0.579-0.854-0.868C77.318,101.464,77.603,101.753,77.887,102.042"/>
	<path fill="#1A1313" d="M79.864,101.296c0.259,0.262,0.519,0.525,0.777,0.786C80.382,101.819,80.123,101.558,79.864,101.296"/>
	<path fill="#1A1313" d="M78.842,103.013c-0.287-0.292-0.574-0.583-0.86-0.875C78.269,102.43,78.556,102.721,78.842,103.013"/>
	<path fill="#1A1313" d="M80.822,102.267c0.257,0.259,0.514,0.518,0.77,0.776C81.335,102.784,81.079,102.525,80.822,102.267"/>
	<path fill="#1A1313" d="M71.301,92.504c0.289,0.292,0.578,0.583,0.867,0.874C71.879,93.087,71.59,92.795,71.301,92.504"/>
	<path d="M142.231,117.014c0.185-1.881,0.298-3.772,0.57-5.641c0.482-3.316,1.084-6.614,1.584-9.928
		c0.116-0.774,0.146-1.608-0.016-2.365c-0.211-0.983-0.857-1.838-1.963-1.715c-0.7,0.079-1.581,0.479-1.96,1.025
		c-0.515,0.744-0.748,1.746-0.896,2.67c-0.798,5.038-1.522,10.088-2.301,15.13c-0.07,0.454-0.294,0.908-0.542,1.302
		c-0.154,0.246-0.485,0.513-0.746,0.522c-0.239,0.008-0.623-0.263-0.715-0.5c-0.282-0.718-0.627-1.478-0.635-2.225
		c-0.022-2.233,0.117-4.467,0.169-6.702c0.026-1.109,0.115-2.237-0.058-3.319c-0.081-0.507-0.709-1.297-1.098-1.302
		c-0.679-0.009-1.605,0.308-1.991,0.819c-0.541,0.719-0.901,1.724-0.961,2.632c-0.259,3.979-0.592,7.974-0.476,11.951
		c0.071,2.417,0.212,4.809-0.438,7.124c-1.009,3.591-1.13,7.233-1.139,10.919c-0.011,3.888-0.904,7.599-2.765,11.04
		c-0.286,0.53-0.741,0.969-1.281,1.659c-2.015-3.448-2.731-7.002-3.415-10.565c-0.97-5.046-1.121-10.157-1.179-15.273
		c-0.066-5.914-0.043-11.822,1.134-17.663c0.824-4.092,1.968-8.069,3.992-11.738c3.891-7.053,9.8-11.119,17.844-12.203
		c4.184-0.563,8.32-0.378,12.409,0.376c6.97,1.286,11.815,5.358,14.518,11.908c1.719,4.164,2.609,8.542,3.053,13.009
		c0.774,7.814,0.852,15.633,0.02,23.45c-0.509,4.784-1.483,9.465-3.288,13.937c-3.622,8.979-10.271,14.042-19.908,14.989
		c-4.296,0.422-8.616,0.394-13.121-0.998c1.289-3.954,2.715-7.775,5.343-10.967c1.084-1.317,2.583-2.356,4.045-3.284
		c2.151-1.366,4.491-2.439,6.651-3.793c1.477-0.925,3.08-1.89,4.106-3.234c2.188-2.871,5.198-4.694,7.921-6.887
		c0.617-0.497,1.372-0.823,2.005-1.304c0.873-0.663,2.087-1.359,1.527-2.635c-0.472-1.072-1.733-1.307-2.888-1.399
		c-2.204-0.176-4.033,0.703-5.756,1.965c-1.67,1.225-3.348,2.448-5.094,3.559c-1.012,0.643-1.854,0.039-1.806-1.193
		c0.148-3.877,1.128-7.564,2.598-11.135c1.699-4.129,3.428-8.247,5.073-12.398c0.464-1.171,0.798-2.424,0.962-3.67
		c0.138-1.047-0.586-1.784-1.525-2.211c-1.071-0.487-1.924,0.063-2.468,0.861c-0.62,0.909-1.068,1.956-1.475,2.988
		c-1.521,3.858-2.961,7.748-4.505,11.597c-0.628,1.564-2.048,2.521-2.202,1.903c-0.218-0.87-0.266-1.88-0.048-2.747
		c1.35-5.415,2.809-10.803,4.197-16.209c0.403-1.568-0.038-2.419-1.434-3.096c-0.921-0.448-2.111-0.249-2.542,0.589
		c-0.506,0.981-0.932,2.029-1.214,3.096c-1.386,5.239-2.688,10.502-4.091,15.736c-0.174,0.647-0.78,1.178-1.186,1.763
		C142.63,117.161,142.432,117.087,142.231,117.014"/>
	<path fill="#1B1A1A" d="M181.412,129.941c-0.249,3.546-1.104,7.91-2.795,12.076c-0.273,0.674-0.957,1.233-1.565,1.692
		c-0.195,0.147-1.002-0.098-1.107-0.344c-0.238-0.553-0.357-1.243-0.262-1.835c0.176-1.092,0.543-2.153,0.827-3.229
		c1.015-3.847,2.212-7.653,2.265-11.699c0.01-0.661,0.494-1.455,1.003-1.928c0.433-0.404,1.335,0.701,1.531,1.946
		c0.05,0.314,0.087,0.633,0.1,0.95C181.424,128.048,181.412,128.526,181.412,129.941"/>
	<path fill="#231E1E" d="M180.156,116.604c-1.146,0-1.89-0.895-1.854-2.233c0.032-1.294,0.881-2.178,2.02-2.1
		c1.148,0.078,1.97,1.038,1.92,2.249C182.192,115.712,181.301,116.604,180.156,116.604"/>
	<path fill="#FD9801" d="M227.626,51.115c-0.36,0.851-0.971,1.264-1.914,1.1C226.017,51.268,226.694,50.974,227.626,51.115"/>
	<path fill="#FD9801" d="M229.062,50.154l-1.491,1.024C227.702,50.305,228.307,50.12,229.062,50.154"/>
</g>
</svg>
