<?xml version="1.0" encoding="utf-8"?>
<!-- Generator: Adobe Illustrator 16.0.0, SVG Export Plug-In . SVG Version: 6.00 Build 0)  -->
<!DOCTYPE svg PUBLIC "-//W3C//DTD SVG 1.1//EN" "http://www.w3.org/Graphics/SVG/1.1/DTD/svg11.dtd">
<svg version="1.1" id="Layer_1" xmlns="http://www.w3.org/2000/svg" xmlns:xlink="http://www.w3.org/1999/xlink" x="0px" y="0px"
	 width="119.779px" height="169.706px" viewBox="0 0 119.779 169.706" enable-background="new 0 0 119.779 169.706"
	 xml:space="preserve">
<g>
	<path fill="#FFFFFF" d="M37.003,19.796C39.701,8.498,46.332,0.771,58.354,0.062C73.217-0.814,81.187,7.79,84.261,22.267
		c2.461-2.541,4.43-4.567,6.39-6.603c1.235-1.281,2.585-2.366,4.354-2.838c3.097-0.823,6.333,0.891,7.141,3.986
		c0.266,1.017,0.242,2.253-0.082,3.249c-0.587,1.808-1.415,3.554-2.291,5.251c-2.05,3.968-4.169,7.903-6.305,11.827
		c-0.567,1.041-0.91,2.052-0.313,3.156c3.008,5.562,4.022,11.744,5.577,17.76c0.673,2.608,0.73,2.642,3.56,2.776
		c2.711,0.128,5.424,0.239,8.132,0.416c4.752,0.311,7.548,2.823,8.601,8.112c0.217,1.084,0.2,2.225,0.204,3.339
		c0.019,5.752-0.067,11.505,0.038,17.255c0.062,3.396-0.763,6.327-3.491,8.497c-0.843,0.671-1.229,1.331-0.916,2.433
		c1.589,5.579,1.572,11.366,2.018,17.078c0.855,10.977,1.434,21.976,2.157,32.964c0.21,3.181,0.723,6.352,0.746,9.53
		c0.04,5.328-2.169,7.881-7.484,8.767c-2.348,0.39-4.769,0.479-7.155,0.48c-28.766,0.013-57.533-0.019-86.298-0.034
		c-3.992-0.003-7.984,0.047-11.977,0.028c-3.204-0.013-5.021-1.3-6.002-4.428c-0.472-1.504-0.886-3.114-0.862-4.669
		c0.073-4.783,0.23-9.574,0.614-14.34c0.591-7.316,1.311-14.624,2.14-21.918c0.721-6.343,1.67-12.657,2.517-18.985
		c0.169-1.264,0.25-2.545,0.515-3.789c0.266-1.252-0.095-2.056-1.108-2.863c-3.359-2.671-4.764-6.251-4.671-10.512
		c0.115-5.268,0.084-10.541,0.248-15.807c0.048-1.569,0.303-3.219,0.878-4.666c1.271-3.206,3.655-5.239,7.234-5.378
		c3.353-0.129,6.712-0.102,10.068-0.068c1.35,0.013,2.029-0.583,2.33-1.845c0.703-2.949,1.416-5.897,2.188-8.828
		c1.221-4.636,2.543-9.248,5.233-13.296c0.856-1.289,0.549-2.281-0.128-3.505c-2.007-3.628-3.915-7.313-5.802-11.005
		c-0.65-1.271-1.258-2.594-1.654-3.958c-1.245-4.29,2.256-7.733,6.896-7.078c1.986,0.279,3.445,1.55,4.798,2.966
		c1.315,1.38,2.708,2.688,4.082,4.012C36.468,19.823,36.689,19.772,37.003,19.796"/>
	<path d="M101.004,96.098c0.043,0.826-0.008,1.463,0.12,2.06c0.521,2.412,0.61,2.463,3.165,2.568
		c5.376,0.221,6.035,0.729,6.619,5.962c0.53,4.758,0.921,9.535,1.26,14.311c0.712,10.034,1.328,20.075,2.031,30.109
		c0.189,2.703,0.702,5.389,0.791,8.093c0.157,4.742-0.668,5.536-5.467,5.743c-2.074,0.089-4.153,0.096-6.23,0.097
		c-28.767,0.006-57.531,0.009-86.297-0.003c-3.195-0.001-6.391-0.151-9.586-0.127c-1.432,0.01-2.075-0.82-2.293-1.951
		c-0.269-1.396-0.427-2.854-0.349-4.271c0.361-6.535,0.69-13.076,1.281-19.593c0.664-7.312,1.532-14.606,2.434-21.895
		c0.568-4.591,1.334-9.159,2.063-13.728c0.316-1.989,1.104-2.616,3.255-2.743c0.955-0.058,1.919,0.026,2.875-0.024
		c1.742-0.092,3.173-2.757,2.246-4.255c-0.204-0.33-0.804-0.568-1.231-0.583c-2.553-0.085-5.109-0.131-7.666-0.118
		c-2.238,0.013-3.622-1.155-4.301-3.136c-0.408-1.188-0.7-2.481-0.704-3.727c-0.022-5.11,0.082-10.223,0.149-15.332
		c0.006-0.479,0.065-0.957,0.126-1.433c0.453-3.592,1.536-4.652,5.276-4.79c3.033-0.109,6.072-0.011,9.109-0.021
		c1.412-0.005,3.212,0.469,4.128-0.218c0.909-0.684,0.983-2.536,1.327-3.9c0.74-2.94,1.413-5.897,2.124-8.845
		c1.318-5.467,3.053-10.769,6.494-15.324c0.946-1.253,0.649-2.287-0.01-3.51c-2.126-3.934-4.175-7.907-6.25-11.867
		c-0.444-0.85-0.984-1.667-1.289-2.564c-0.31-0.912-1.686-1.992-0.181-2.833c1.22-0.68,2.053,0.51,2.795,1.299
		c2.957,3.14,5.869,6.32,8.807,9.479c0.868,0.932,1.721,1.887,2.679,2.721c0.249,0.217,0.941,0.155,1.289-0.037
		c0.354-0.192,0.728-0.69,0.75-1.076c0.046-0.782-0.188-1.575-0.219-2.368c-0.082-2.07-0.209-4.146-0.157-6.216
		c0.222-8.808,8.061-16.581,17.077-17.035c7.024-0.355,12.842,2.468,16.712,8.457c3.13,4.844,4.546,10.174,3.105,15.987
		c-0.15,0.61-0.384,1.363-0.158,1.86c0.296,0.654,0.926,1.288,1.571,1.607c0.402,0.198,1.273-0.02,1.632-0.364
		c1.265-1.214,2.392-2.571,3.584-3.861c2.818-3.05,5.627-6.108,8.48-9.127c0.532-0.563,1.205-1.045,1.902-1.376
		c0.316-0.15,0.893,0.089,1.271,0.296c0.18,0.099,0.313,0.589,0.229,0.81c-0.404,1.036-0.842,2.066-1.358,3.053
		c-2.522,4.807-5.034,9.622-7.636,14.385c-0.982,1.798-1.301,3.229-0.07,5.251c3.019,4.966,4.189,10.661,5.517,16.255
		c0.441,1.864,0.788,3.749,1.247,5.609c0.466,1.878,0.748,2.14,2.58,2.19c3.195,0.09,6.393,0.064,9.588,0.141
		c5.735,0.136,7.055,1.431,7.104,7.108c0.05,5.592,0.009,11.184,0.006,16.774c0,0.479,0.015,0.96-0.023,1.437
		c-0.22,2.773-1.442,4.06-4.187,4.212c-1.913,0.105-3.836,0.012-5.752,0.068C103.301,95.823,102.215,95.983,101.004,96.098"/>
	<path fill="#CDCDCD" d="M26.683,118.837c-0.479,0.01-0.955,0.009-1.431,0.03c-1.601,0.075-2.323,0.58-2.023,1.248
		c0.446,0.992,1.323,0.673,2.032,0.721c1.267,0.083,2.542,0.033,3.814,0.033c20.351-0.001,40.701-0.003,61.052-0.005
		c0.953,0,1.918,0.086,2.859-0.028c0.96-0.117,2.534,0.622,2.593-1.101c0.044-1.249-1.602-0.561-2.2-1.26
		c-0.103-0.119-0.174-0.266-0.259-0.401c2.108-3.849,4.485-7.467,8.395-9.769l0.103-0.12c0.361-0.167,0.604-0.441,0.727-0.82
		c0.24-0.211,0.46-0.453,0.724-0.628c1.451-0.964,2.14-0.766,2.267,0.677c0.346,3.979,0.59,7.968,0.997,11.938
		c0.802,7.785,1.699,15.56,2.533,23.342c0.577,5.378,1.115,10.76,1.694,16.371c-1.109,0.099-2.029,0.253-2.95,0.254
		c-31.813,0.014-63.626,0.011-95.44,0.011c-0.479,0-0.959-0.001-1.437-0.015c-1.024-0.028-1.368-0.663-1.304-1.565
		c0.158-2.23,0.283-4.467,0.544-6.686c1.467-12.531,2.964-25.058,4.462-37.585c0.266-2.218,0.488-4.449,0.913-6.639
		c0.232-1.204,1.171-0.664,1.895-0.383C21.371,109.834,25.639,113.107,26.683,118.837"/>
	<path fill="#FEFEFE" d="M59.26,115.857c-2.708-0.001-5.419,0.048-8.123-0.057c-0.436-0.016-0.856-0.704-1.255-1.109
		c-0.09-0.093-0.075-0.305-0.08-0.462c-0.074-2.546,0.425-5.28-0.349-7.591c-1.146-3.42-2.964-6.684-4.912-9.75
		c-2.83-4.45-4.316-9.064-3.795-14.396c0.309-3.156,0.219-6.379-0.004-9.55c-0.167-2.39,0.896-3.9,2.576-5.27
		c0.7-0.568,1.409-0.695,2.19-0.307c2.276,1.134,4.56,2.258,6.801,3.459c0.68,0.365,1.428,0.854,1.807,1.488
		c1.639,2.728,3.25,5.479,4.651,8.332c0.451,0.92,0.267,2.173,0.302,3.274c0.177,5.889,0.332,11.779,0.494,17.668
		C61.135,106.38,61.787,111.152,59.26,115.857"/>
	<path fill="#FDFDFD" d="M79.408,69.174c-0.034,6.514-0.085,13.026-0.093,19.541c-0.003,2.112-0.427,4.104-1.491,5.929
		c-1.358,2.326-2.563,4.782-4.198,6.897c-2.341,3.028-3.501,6.235-3.344,10.092c0.192,4.728,0.239,4.263-4.431,4.272
		c-1.43,0.003-2.859-0.052-4.289-0.081c-1.976-4.382-1.537-8.821-0.311-13.28c0.24-6.048,0.498-12.095,0.708-18.142
		c0.055-1.601-0.106-3.134,1.752-4.059c0.748-0.372,1.19-1.441,1.668-2.253c0.968-1.647,1.931-3.305,2.776-5.017
		c1.082-2.189,2.481-4.047,4.692-5.196C76.025,64.504,77.005,64.696,79.408,69.174"/>
	<path fill="#FC9700" d="M46.714,23.839c-0.071-4.201,1.283-7.639,4.332-10.385c4.358-3.927,9.219-4.683,14.658-2.567
		c7.905,3.072,13.146,16.789,4.044,24.244c-0.99,0.812-1.784,2.263-3.49,1.702c0.354-1.178,0.609-2.398,1.091-3.522
		c0.689-1.609,1.594-3.122,2.312-4.72c0.483-1.078-0.228-2.314-1.371-2.614c-1.34-0.353-3.134,0.52-2.905,1.648
		c0.674,3.339-1.316,5.79-2.484,8.502c-0.728,1.688-2.354,1.892-3.373,0.497c-1.126-1.543-2.038-3.24-3.139-4.804
		c-0.779-1.103,0.151-2.214-0.17-3.218c-0.207-0.649-0.883-1.429-1.496-1.589c-0.631-0.166-1.633,0.15-2.116,0.622
		c-0.474,0.462-0.897,1.586-0.652,2.066c1.006,1.978,2.289,3.813,3.429,5.726c0.107,0.182,0.02,0.64-0.142,0.778
		c-0.18,0.156-0.548,0.122-0.835,0.118c-0.146-0.001-0.3-0.101-0.436-0.181C49.229,33.344,46.234,29.522,46.714,23.839"/>
	<path fill="#F4F7F7" d="M62.279,59.4c4.34-4.888,8.688-9.767,13.016-14.663c1.903-2.154,3.743-4.365,5.663-6.504
		c0.384-0.429,1.005-0.645,1.517-0.957c0.996,1.284,0.357,2.457-0.367,3.509C76.223,49.324,70.249,57.8,63.954,66.044
		c-1.408,1.844-3.179,2.273-4.764,0.218c-6.9-8.942-13.962-17.778-19.409-27.741c0.109-0.771,0.345-1.392,1.333-1.092
		c5.1,5.875,10.177,11.769,15.313,17.61c1.142,1.298,2.488,2.415,3.741,3.614C61.3,57.691,60.342,62.64,62.279,59.4"/>
	<path fill="#F3F3F3" d="M80.349,51.543c0.919-2.015,2.042-3.898,3.522-6.156c0.633,1.229,1.155,1.969,1.415,2.79
		c4.966,15.632,9.31,31.426,12.208,47.588c0.14,0.783,0.17,1.587,0.335,2.364c0.47,2.197-0.31,3.688-2.618,4.603
		c-0.635-2.501-0.925-4.97-1.276-7.442c-1.706-11.984-3.824-23.891-7.697-35.4c-0.755-2.246-1.86-4.382-2.899-6.522
		c-0.347-0.714-0.998-1.263-1.92-0.654C80.548,52.793,80.065,52.518,80.349,51.543"/>
	<path fill="#312A2A" d="M40.298,38.226c6.706,9.813,13.706,19.412,20.925,29.031c0.605-0.513,1.018-0.746,1.268-1.095
		c6.506-9.04,12.999-18.087,19.461-27.159c0.332-0.465,0.356-1.146,0.524-1.727l-0.114,0.091c0.201-0.29,0.477-0.407,0.824-0.348
		c0.256,0.235,0.348,0.521,0.252,0.86c0.223,0.68,0.815,1.521,0.602,2.008c-0.649,1.483-1.609,2.829-2.449,4.23
		c-0.75-0.091-0.735,0.632-1.061,0.995l0.072-0.088c-3.066,3.765-5.267,8.124-8.206,11.977c-2.273,4.015-5.432,7.401-7.955,11.237
		c-1.857,2.822-3.895,2.263-5.774,0.095c-3.529-4.069-6.692-8.414-9.377-13.091c-2.369-2.894-4.109-6.213-6.252-9.262l0.073,0.096
		c-0.53-0.775-0.866-1.739-1.941-1.98c-1.494-1.126-1.977-2.855-2.524-4.495c-0.109-0.326,0.624-0.935,0.968-1.411
		C39.86,37.827,40.089,37.838,40.298,38.226"/>
	<path fill="#F4F5F5" d="M49.646,54.743c3.797,5.006,7.595,10.012,11.175,14.73c0.638,0.102,0.805,0.173,0.942,0.136
		c0.141-0.038,0.277-0.163,0.369-0.284c3.257-4.262,6.507-8.525,9.758-12.789c0.943-0.147,1.395,0.197,1.188,1.193
		c-3.136,5.669-6.268,11.34-9.421,16.999c-0.141,0.253-0.477,0.399-0.949,0.777c-0.296-1.054-0.563-2.007-0.873-3.104
		c-0.602,1.258-1.153,2.408-1.882,3.93c-3.563-6.487-6.91-12.579-10.255-18.672c-0.198-0.397-0.434-0.771-0.709-1.118
		c-0.221-0.189-0.337-0.429-0.348-0.72C48.325,54.855,48.833,54.657,49.646,54.743"/>
	<path fill="#F5F6F6" d="M96.783,72.028h13.027c0.297,0.393,0.62,0.623,0.629,0.861c0.238,7.95,1.252,7.185-6.752,7.275
		c-1.725,0.019-3.452-0.237-5.179-0.365c-0.459-1.637-0.955-3.266-1.362-4.916C96.959,74.125,96.94,73.323,96.783,72.028"/>
	<path fill="#E7ECEC" d="M61.59,50.099c-3.559,0.066-6.773-0.832-8.84-3.858c-1.981-2.906-4.417-5.372-6.73-7.969
		c-0.405-0.454-0.688-1.021-0.993-1.555c-0.06-0.103-0.011-0.366,0.081-0.439c0.2-0.16,0.547-0.406,0.68-0.332
		c0.547,0.301,1.034,0.709,1.546,1.077c1.546,1.114,2.985,2.44,4.668,3.288c1.912,0.962,2.85,2.082,2.825,4.358
		c-0.021,2.008,1.121,2.934,3.011,2.99c2.548,0.075,5.105,0.039,7.65-0.093c1.743-0.091,2.396-0.88,2.636-2.771
		c0.08-0.631,0.094-1.272,0.09-1.908c-0.006-0.851,0.264-1.5,0.993-2.018c1.942-1.379,3.825-2.842,5.786-4.193
		c0.283-0.193,0.947-0.09,1.289,0.117c0.588,0.355,0.838,1.018,0.354,1.608c-2.624,3.207-5.21,6.452-7.983,9.527
		c-0.786,0.871-2.1,1.403-3.273,1.754C64.18,50.037,62.857,49.978,61.59,50.099"/>
	<path fill="#EBECEC" d="M16.17,80.24c-0.16,0-0.321,0.013-0.479-0.002c-1.712-0.165-3.52,0.372-5.106-0.702
		c-0.105-2.049-0.283-4.1-0.254-6.147c0.005-0.379,0.835-1.059,1.299-1.071c3.512-0.095,7.027-0.079,10.541-0.018
		c0.311,0.004,0.629,0.566,0.904,0.9c0.082,0.098,0.047,0.304,0.041,0.46C22.861,79.833,22.472,80.203,16.17,80.24"/>
	<path fill="#F8F9F9" d="M98.488,82.302c2.417,0,4.161-0.061,5.897,0.017c1.89,0.082,3.772,0.289,5.658,0.442
		c1.124,2.265,0.415,4.654,0.406,6.985c-0.001,0.407-0.694,0.985-1.187,1.169c-0.563,0.212-1.261,0.105-1.898,0.081
		c-2.377-0.085-4.753-0.191-7.13-0.292C99.031,88.225,98.972,85.532,98.488,82.302"/>
	<path fill="#DEE1E1" d="M40.109,93.929c-1.916-1.3-2.889-2.604-2.879-4.678c0.028-7.152-0.017-14.306-0.07-21.46
		c-0.007-0.866,0.249-1.474,0.895-2.046c1.543-1.36,3.028-2.79,4.766-4.404c2.473,1.391,4.955,2.751,7.387,4.193
		c0.329,0.196,0.658,0.888,0.555,1.214c-0.255,0.807-0.957,0.524-1.521,0.294c-1.322-0.539-2.614-1.156-3.956-1.639
		c-0.938-0.337-1.879-0.236-2.647,0.532c-0.786,0.787-1.573,1.571-2.381,2.339c-0.737,0.702-1.022,1.54-1.02,2.556
		c0.022,6.201-0.032,12.401,0.05,18.601C39.305,90.793,39.77,92.151,40.109,93.929"/>
	<path fill="#F8F8F8" d="M21.619,82.521c-0.468,2.861-0.893,5.456-1.354,8.276c-1.261,0.079-2.313,0.196-3.365,0.202
		c-7.322,0.042-7.432-0.07-6.554-7.23c0.059-0.478,0.647-1.238,1.038-1.27C14.669,82.235,17.962,82.172,21.619,82.521"/>
	<path fill="#EBF0F0" d="M72.869,64.308c1.41-0.986,2.82-1.974,4.104-2.87c0.446,0.244,0.607,0.298,0.723,0.401
		c1.66,1.494,3.933,2.711,4.794,4.576c0.845,1.831,0.278,4.325,0.284,6.527c0.016,5.271,0.026,10.544-0.022,15.814
		c-0.009,0.916-0.304,1.832-0.493,2.742c-0.029,0.135-0.277,0.355-0.3,0.34c-0.247-0.156-0.651-0.338-0.669-0.541
		c-0.079-0.949-0.061-1.907-0.059-2.862c0.015-5.752,0.05-11.503,0.034-17.254c-0.002-1.073,0.319-2.269-0.719-3.121
		C78.652,65.45,75.206,66.014,72.869,64.308"/>
	<path fill="#E3E9E9" d="M19.101,105.545c1.31-0.406,2.345-0.212,3.314,0.94c2.316,2.75,4.776,5.379,7.161,8.072
		c1.096,1.235,1.079,1.251-0.832,2.698C24.096,114.531,20.473,110.965,19.101,105.545"/>
	<path fill="#DCE4E4" d="M92.095,116.979c-0.314-0.009-0.665,0.072-0.938-0.039c-1.387-0.573-1.654-1.146-0.899-2.014
		c1.873-2.152,3.79-4.267,5.69-6.395c0.845-0.945,1.671-1.907,2.546-2.821c0.661-0.689,1.47-0.34,2.233-0.199
		c0.232,0.281,0.305,0.597,0.191,0.947c-0.241,0.172-0.371,0.406-0.39,0.701C98.362,110.985,96.186,114.803,92.095,116.979"/>
	<path fill="#373030" d="M19.101,105.545c0.119,0.441,0.104,1.001,0.377,1.311c3.063,3.488,6.171,6.939,9.267,10.4
		c-0.393,0.911-0.963,1.59-2.062,1.581c-1.927-2.488-3.861-4.97-5.772-7.469c-1.243-1.623-2.449-3.272-3.67-4.912
		C17.861,106.152,18.481,105.85,19.101,105.545"/>
	<path fill="#474747" d="M61.252,102.545c0.104,4.427,0.208,8.854,0.312,13.279c-0.769,0.012-1.537,0.022-2.304,0.033
		c0.075-3.333,0.152-6.665,0.224-9.997c0.032-1.424,0.054-2.848,0.08-4.271C60.126,101.906,60.688,102.227,61.252,102.545"/>
	<path fill="#D2D4D4" d="M33.101,54.236c0.503-4.028,1.836-7.688,4.196-10.974c2.301,2.358,2.311,2.366,0.988,4.127
		C36.566,49.679,34.829,51.955,33.101,54.236"/>
	<path fill="#312B2B" d="M92.095,116.979c2.812-3.273,5.623-6.546,8.435-9.819c0.328,0.381,0.657,0.763,0.986,1.145
		c-2.41,3.592-5.153,6.896-8.396,9.771C92.778,117.709,92.437,117.344,92.095,116.979"/>
	<path fill="#3D3131" d="M72.869,64.308c0.313,0.266,0.693,0.8,0.93,0.742c0.579-0.139,1.115-0.517,1.628-0.859
		c1.079-0.725,2.033-0.704,2.809,0.418c0.786,1.138,1.542,2.301,2.311,3.452c-0.379,0.372-0.758,0.743-1.138,1.113
		c-0.139-0.066-0.301-0.106-0.409-0.206c-0.979-0.9-1.83-2.295-2.956-2.567c-0.892-0.218-2.117,0.934-3.194,1.478
		C71.545,65.724,71.545,65.724,72.869,64.308"/>
	<path fill="#B2B8B8" d="M73.079,57.73c-0.396-0.398-0.792-0.797-1.188-1.194c2.62-3.756,5.233-7.519,7.878-11.255
		c0.134-0.188,0.548-0.175,0.832-0.256c-0.258,0.715-0.401,1.502-0.794,2.133C77.597,50.703,75.328,54.209,73.079,57.73"/>
	<path fill="#F9FEFE" d="M60.697,43.593c0.044,0-0.271,0.005-0.586-0.001c-1.446-0.025-2.359-1.656-1.609-2.989
		c0.19-0.339,0.695-0.691,1.067-0.703c1.253-0.043,2.514,0.031,3.768,0.124c0.99,0.073,1.214,0.801,1.231,1.647
		c0.018,0.855-0.237,1.579-1.165,1.742C62.635,43.55,61.84,43.525,60.697,43.593"/>
	<path fill="#B5BBBB" d="M49.646,54.743c-0.334,0.359-0.669,0.72-1.004,1.08c-1.898-2.98-3.807-5.954-5.676-8.953
		c-0.127-0.202,0.039-0.588,0.07-0.89c1.476,0.475,1.923,1.914,2.717,2.991C47.129,50.839,48.357,52.813,49.646,54.743"/>
	<path fill="#AFB2B2" d="M80.349,51.543c0.355,0.389,0.714,0.777,1.069,1.168c-1.25,1.796-2.487,3.6-3.77,5.37
		c-0.12,0.166-0.614,0.267-0.761,0.158c-0.183-0.133-0.338-0.606-0.237-0.772C77.854,55.475,79.107,53.513,80.349,51.543"/>
	<path fill="#4F5959" d="M62.279,59.4v4.587c-0.909-1.262-1.379-1.661-1.519-2.155c-0.29-1.034-0.405-2.117-0.593-3.179
		C60.872,58.902,61.575,59.151,62.279,59.4"/>
	<path fill="#7C8787" d="M82.516,36.495c1.016-1.318,2.029-2.638,3.089-4.011c0.938,1.08,0.271,1.686-0.101,2.287
		c-0.654,1.059-1.375,2.075-2.066,3.109c-0.243-0.216-0.281-0.464-0.113-0.742C83.008,36.982,82.738,36.768,82.516,36.495"/>
	<path fill="#889191" d="M40.298,38.226l-0.343,0.005c0,0-0.341-0.038-0.342-0.039c-0.819-1.488-1.64-2.976-2.46-4.462l0.291-0.296
		c1.714,0.882,2.857,2.287,3.669,3.995C40.843,37.695,40.569,37.959,40.298,38.226"/>
	<path fill="#B5BBBB" d="M41.169,44.098c0.233-0.139,0.469-0.274,0.704-0.412c0.412,0.797,0.824,1.594,1.237,2.391
		C41.732,46.133,41.924,44.652,41.169,44.098"/>
	<path fill="#B2B8B8" d="M80.53,45.113c0.134-1.48,0.134-1.48,1.06-0.995C81.237,44.45,80.884,44.782,80.53,45.113"/>
	<path fill="#312B2B" d="M100.919,106.459c-0.064-0.316-0.129-0.633-0.192-0.948C101.587,105.84,101.587,105.84,100.919,106.459"/>
	<path fill="#F4F7F7" d="M82.516,36.495c0.27,0.215,0.539,0.429,0.809,0.644c-0.32,0.076-0.642,0.152-0.962,0.229
		C82.412,37.076,82.464,36.786,82.516,36.495"/>
	<path fill="#312B2B" d="M102.344,107.366c-0.243,0.272-0.485,0.547-0.729,0.819C101.859,107.913,102.102,107.639,102.344,107.366"
		/>
	<path fill="#889191" d="M37.154,33.729c-0.153-0.307-0.307-0.61-0.459-0.915c0.25,0.206,0.5,0.413,0.75,0.618L37.154,33.729z"/>
	<path fill="#B5BBBB" d="M48.99,56.541c0.236,0.373,0.474,0.745,0.71,1.118C49.463,57.286,49.227,56.914,48.99,56.541"/>
	<path fill="#110F0F" d="M22.283,144.673c1.611-0.205,3.107-0.035,4.07,1.633c1.023,1.772,1.296,3.583,0.403,5.459
		c-0.788,1.656-2.092,2.81-3.841,3.359c-3.439,1.081-6.996-1.9-6.445-5.442C16.971,146.467,19.275,143.968,22.283,144.673"/>
	<path fill="#100D0D" d="M35.733,144.657c3.046,0.005,4.687,1.575,4.767,4.562c0.077,2.943-2.104,5.581-5.005,6.05
		c-3.169,0.515-6.004-2.118-5.761-5.348C29.987,146.553,32.154,144.65,35.733,144.657"/>
	<path fill="#101111" d="M100.034,145.791c-0.396-3.786-0.794-7.572-1.187-11.359c-0.227-2.194,0.309-3.699,1.312-3.542
		c1.661,0.258,1.72,1.713,1.826,2.952c0.34,3.951,0.639,7.907,0.849,11.866c0.058,1.093,0.025,2.349-0.457,3.271
		c-0.662,1.269,0.044,3.399-2.175,3.749c-0.994-1.24-0.324-2.7-0.513-4.046c-0.13-0.937-0.024-1.906-0.024-2.859
		C99.788,145.812,99.911,145.802,100.034,145.791"/>
	<path fill="#1C1818" d="M92.912,146.21c0.229-1.177,0.275-2.157,0.643-3c0.206-0.475,0.931-0.977,1.438-0.993
		c0.504-0.019,1.344,0.451,1.488,0.888c0.734,2.207,0.675,4.369-1.002,6.229c-0.389,0.432-1.396,0.358-1.601-0.182
		C93.493,148.135,93.194,147.084,92.912,146.21"/>
	<path fill="#1C1713" d="M50.584,86.369c0,1.74,0.138,3.497-0.039,5.22c-0.17,1.647-1.676,2.882-3.225,2.992
		c-1.493,0.105-3.229-0.917-3.802-2.334c-0.231-0.57-0.385-1.213-0.393-1.824c-0.039-2.854-0.099-5.709,0.014-8.559
		c0.082-2.099,1.655-3.576,3.622-3.705c1.868-0.123,3.499,1.328,3.871,3.459c0.054,0.311,0.063,0.631,0.064,0.946
		c0.008,1.269,0.004,2.536,0.004,3.805H50.584z"/>
	<path fill="#231A10" d="M76.911,86.564c0,1.424,0.088,2.854-0.021,4.27c-0.165,2.173-1.599,3.613-3.565,3.763
		c-1.935,0.148-3.633-1.224-3.729-3.453c-0.142-3.309-0.223-6.655,0.116-9.941c0.293-2.846,3.58-4.019,5.785-2.223
		c0.664,0.539,1.223,1.528,1.322,2.373c0.202,1.716,0.062,3.472,0.062,5.211C76.89,86.563,76.901,86.563,76.911,86.564"/>
	<path fill="#150D00" d="M55.285,20.618c0.193-1.473,0.359-3.033,0.622-4.577c0.13-0.766,0.334-1.769,1.299-1.709
		c0.682,0.042,1.333,0.654,1.985,1.036c0.126,0.072,0.181,0.26,0.285,0.378c0.708,0.794,0.816,2.413,2.146,2.258
		c0.794-0.093,1.439-1.165,2.222-1.698c1.438-0.981,2.927-0.493,3.154,1.326c0.224,1.806,0.884,2.378,2.646,2.466
		c1.379,0.07,1.975,1.114,1.684,2.319c-0.095,0.39-0.589,1.008-0.848,0.981c-1.541-0.148-3.069-0.434-4.592-0.732
		c-0.268-0.054-0.583-0.337-0.705-0.596c-0.688-1.473-1.406-1.828-2.837-0.62c-1.306,1.104-2.243,0.045-3.14-1.02
		c-0.743-0.882-1.153-0.748-1.471,0.432c-0.496,1.84-1.021,3.464-3.518,2.721c-0.313-0.094-0.787,0.277-1.16,0.48
		c-1.41,0.768-1.925,0.597-2.186-0.683c-0.481-2.36,0.252-3.089,2.782-2.736c0.312,0.043,0.622,0.106,0.935,0.124
		C54.743,20.778,54.9,20.706,55.285,20.618"/>
	<path fill="#EDF4F4" d="M24.413,148.651c-0.311,0.877-0.46,1.663-0.847,2.311c-0.55,0.92-2.055,1.234-2.946,0.705
		c-0.952-0.566-1.08-1.506-0.841-2.454c0.147-0.583,0.469-1.166,0.855-1.63c0.625-0.753,1.504-1.331,2.44-0.73
		C23.658,147.227,23.968,148.025,24.413,148.651"/>
	<path fill="#E3EBEB" d="M32.625,150.205c0.34-0.862,0.504-1.479,0.81-2.014c0.651-1.14,1.843-1.793,2.691-1.564
		c1.04,0.278,1.674,1.878,1.285,3.237c-0.384,1.345-1.613,2.377-2.785,1.999C33.867,151.62,33.297,150.789,32.625,150.205"/>
	<path fill="#D98300" d="M45.319,86.446c0-1.437-0.093-2.88,0.036-4.304c0.072-0.806,0.632-1.479,1.598-1.438
		c0.946,0.039,1.505,0.726,1.527,1.531c0.082,2.869,0.085,5.744-0.011,8.612c-0.025,0.806-0.614,1.476-1.597,1.42
		c-0.939-0.052-1.479-0.684-1.54-1.515c-0.104-1.429-0.028-2.87-0.028-4.306C45.31,86.447,45.314,86.446,45.319,86.446"/>
	<path fill="#F19200" d="M74.62,86.179c0,1.576,0.049,3.156-0.021,4.73c-0.036,0.812-1.015,1.506-1.667,1.169
		c-0.464-0.239-1.023-0.845-1.041-1.305c-0.098-2.838-0.064-5.681-0.046-8.522c0.002-0.293,0.12-0.669,0.323-0.855
		c0.319-0.295,0.768-0.654,1.14-0.631c0.387,0.023,1.021,0.424,1.073,0.737c0.256,1.54,0.352,3.107,0.506,4.664L74.62,86.179z"/>
</g>
</svg>
