<?xml version="1.0" encoding="UTF-8" standalone="no"?>
<svg
   xmlns:dc="http://purl.org/dc/elements/1.1/"
   xmlns:cc="http://creativecommons.org/ns#"
   xmlns:rdf="http://www.w3.org/1999/02/22-rdf-syntax-ns#"
   xmlns:svg="http://www.w3.org/2000/svg"
   xmlns="http://www.w3.org/2000/svg"
   viewBox="0 0 2560 1440"
   height="1440"
   width="2560"
   xml:space="preserve"
   id="svg2"
   version="1.1"><metadata
     id="metadata8"><rdf:RDF><cc:Work
         rdf:about=""><dc:format>image/svg+xml</dc:format><dc:type
           rdf:resource="http://purl.org/dc/dcmitype/StillImage" /></cc:Work></rdf:RDF></metadata><defs
     id="defs6"><clipPath
       id="clipPath18"
       clipPathUnits="userSpaceOnUse"><path
         id="path16"
         d="M 0,1080 H 1920 V 0 H 0 Z" /></clipPath></defs><g
     transform="matrix(1.3333333,0,0,-1.3333333,0,1440)"
     id="g10"><g
       id="g12"><g
         clip-path="url(#clipPath18)"
         id="g14"><g
           transform="translate(1004.2802,865.4726)"
           id="g20"><path
             id="path22"
             style="fill:#000000;fill-opacity:1;fill-rule:nonzero;stroke:none"
             d="m 0,0 c -4.01,-0.114 -7.816,-0.461 -11.6,-0.29 -22.058,0.997 -41.001,16.103 -46.541,37.169 -6.114,23.246 5.411,46.414 26.037,56.731 8.926,4.465 18.379,6.297 28.352,5.125 0.794,-0.093 1.589,-0.188 2.387,-0.234 0.913,-0.052 1.538,0.307 1.545,1.323 0.016,2.556 0.007,5.113 0.028,7.67 0.048,5.773 2.578,9.203 8.123,10.978 2.763,0.884 5.593,1.161 8.505,1.156 28.624,-0.043 57.248,-0.023 85.872,-0.026 193.491,-0.025 386.982,-0.048 580.474,-0.084 15.191,-0.003 30.382,-0.054 45.574,-0.185 4.31,-0.036 8.628,-0.32 12.925,-0.695 5.921,-0.517 9.722,-4.1 10.387,-10.031 0.39,-3.472 0.248,-7.011 0.25,-10.52 0.014,-34.207 0.008,-68.414 0.006,-102.621 0,-2.554 0.052,-5.109 -0.031,-7.659 -0.047,-1.429 -0.202,-2.876 -0.517,-4.268 -0.928,-4.116 -3.554,-6.797 -7.574,-7.818 -2.451,-0.623 -5.05,-0.878 -7.588,-0.915 -12.95,-0.19 -25.902,-0.34 -38.853,-0.349 -78.197,-0.054 -156.393,-0.069 -234.589,-0.091 -106.5,-0.03 -213,-0.049 -319.5,-0.083 -42.057,-0.014 -84.112,-0.05 -126.169,-0.106 -3.388,-0.004 -6.676,0.359 -9.894,1.471 -4.874,1.685 -7.613,5.581 -7.43,10.515 0.135,3.67 0.04,7.351 0.017,11.027 C 0.19,-1.876 0.068,-0.943 0,0" /></g><g
           transform="translate(1728.9716,965.7245)"
           id="g24"><path
             id="path26"
             style="fill:#ffffff;fill-opacity:1;fill-rule:nonzero;stroke:none"
             d="m 0,0 c -0.242,-5.252 1.826,-8.878 6.702,-10.679 0,-4.423 -0.001,-8.733 -0.001,-13.044 0,-22.537 0.001,-45.073 0.001,-67.61 0,-1.119 -0.026,-2.239 0.009,-3.356 0.032,-1.061 -0.429,-1.692 -1.326,-2.299 -1.174,-0.794 -2.256,-1.789 -3.189,-2.862 -1.276,-1.468 -2.13,-3.194 -2.092,-5.22 0.022,-1.239 -0.737,-1.68 -1.783,-1.785 -0.791,-0.08 -1.594,-0.07 -2.392,-0.057 -8.472,0.141 -16.943,0.415 -25.413,0.419 -127.28,0.062 -254.558,0.095 -381.837,0.123 -92.58,0.02 -185.161,0.023 -277.742,0.034 -1.751,0 -3.502,0 -5.183,0 -1.041,3.05 -2.008,5.884 -2.97,8.703 2.13,1.973 4.057,3.879 6.109,5.637 6.294,5.396 9.991,12.385 12.346,20.152 3.52,11.607 2.688,23.052 -1.784,34.245 -1.436,3.596 -3.603,6.85 -6.71,9.199 -3.048,2.303 -4.52,5.742 -6.841,8.556 -0.296,0.359 -0.257,1.265 -0.022,1.747 1.883,3.871 3.881,7.686 5.776,11.552 0.722,1.474 1.823,2.045 3.416,2.123 8.618,0.419 17.232,1.254 25.849,1.289 38.535,0.153 77.07,0.018 115.605,0.112 36.297,0.089 72.593,0.329 108.889,0.512 18.866,0.094 37.732,0.187 56.599,0.326 7.353,0.055 14.713,0.077 22.056,0.406 6.371,0.285 12.721,1.004 19.084,1.485 1.591,0.12 3.195,0.08 4.792,0.081 100.416,0.06 200.832,0.11 301.248,0.18 8.794,0.006 17.587,0.145 26.381,0.199 C -3.007,0.177 -1.591,0.064 0,0" /></g><g
           transform="translate(1749.2772,975.6474)"
           id="g28"><path
             id="path30"
             style="fill:#ff9900;fill-opacity:1;fill-rule:nonzero;stroke:none"
             d="M 0,0 C 1.521,-1.397 1.066,-3.255 1.064,-4.953 1.06,-13.261 0.937,-21.569 0.933,-29.877 0.916,-58.16 0.927,-86.442 0.94,-114.724 c 0.002,-2.876 0.184,-5.753 0.122,-8.626 -0.077,-3.521 -1.384,-5.313 -4.772,-6.264 -1.972,-0.553 -4.073,-0.917 -6.114,-0.905 -19.34,0.113 -38.679,0.477 -58.018,0.485 -219.313,0.101 -438.627,0.153 -657.939,0.217 -1.439,0.001 -2.899,-0.148 -4.311,0.047 -1.882,0.259 -3.762,0.672 -5.575,1.234 -1.854,0.574 -2.769,2.072 -3.029,3.953 -0.087,0.63 -0.099,1.275 -0.092,1.913 0.046,3.994 0.166,7.988 0.137,11.982 -0.013,1.72 0.711,2.575 2.289,3.143 2.097,0.754 4.098,1.775 6.156,2.649 1.075,0.457 1.852,-0.143 1.696,-1.38 -0.136,-1.092 -0.497,-2.153 -0.684,-3.24 -0.207,-1.199 0.517,-2.537 1.644,-2.489 4.193,0.177 6.025,-2.101 6.812,-5.852 0.13,-0.622 1.076,-1.072 1.644,-1.601 2.144,-2.219 4.83,-2.892 7.823,-2.895 33.417,-0.027 66.838,-0.403 100.246,0.221 10.852,0.203 21.718,0.565 32.578,0.567 83.461,0.016 166.926,-0.354 250.38,0.395 42.358,0.379 84.73,1.087 127.065,0.366 58.833,-1.003 117.655,-0.107 176.48,-0.598 3.49,-0.03 7.089,-0.398 10.106,1.984 2.241,1.295 2.632,-0.68 3.383,-1.971 1.134,-1.95 2.821,-2.455 4.886,-1.87 2.212,0.626 2.833,2.35 2.86,4.416 0.03,2.244 -0.934,3.601 -3.311,3.805 -1.055,0.091 -2.343,0.012 -2.438,1.637 1.732,16.291 4.104,32.489 3.878,48.968 -0.129,9.351 1.546,18.712 -0.168,28.089 -0.94,5.143 -1.591,10.339 -3.56,15.235 -0.088,0.931 -0.196,1.861 -0.257,2.794 -0.057,0.885 -0.387,1.484 -1.332,1.692 -0.614,0.136 -1.217,0.367 -1.79,0.633 -1.881,0.876 -3.096,2.227 -3.039,4.444 0.013,0.478 0.032,0.963 -0.027,1.437 -0.208,1.681 -0.728,2.256 -2.435,2.352 -4.467,0.25 -8.939,0.591 -13.411,0.602 -37.096,0.093 -74.194,0.152 -111.291,0.158 -149.349,0.025 -298.698,0.027 -448.047,0.04 -39.975,0.004 -79.951,0.02 -119.926,0.029 -1.28,0.001 -2.561,-0.05 -3.838,0.006 -3.058,0.133 -5.651,-0.179 -6.631,-3.893 -0.464,-1.76 -2.207,-2.517 -4.209,-2.521 -2.78,-0.008 -2.775,-0.112 -3.395,-3.131 -0.059,-0.291 -0.258,-0.553 -0.54,-1.128 -2.7,1.27 -5.411,2.546 -8.123,3.821 -0.777,3.198 0.109,6.273 0.835,9.317 1.07,4.479 3.166,5.907 8.164,5.93 2.224,-2.412 -0.474,-2.798 -1.63,-3.444 -1.965,-1.1 -3.619,-2.136 -2.407,-4.714 0.815,-1.731 2.224,-2.868 4.136,-2.23 2.31,0.772 4.345,2.104 3.952,5.079 -0.251,1.896 -1.713,4.126 1.616,4.826 2.71,0.527 5.435,0.369 8.149,0.369 232.141,0.008 464.284,0.008 696.425,0 2.714,0 5.44,0.166 8.118,-0.329 1.64,-0.55 3.225,-1.147 1.239,-3.149 -0.446,-0.449 -0.967,-0.818 -1.437,-1.242 -1.869,-1.687 -2.519,-3.657 -1.14,-5.921 1.031,-1.692 2.615,-2.326 4.496,-1.552 2.51,1.033 3.374,3.003 3.335,5.695 -0.028,1.951 -2.875,3.318 -1.027,5.552 C -2.818,1.121 -1.382,0.839 0,0" /></g><g
           transform="translate(995.1014,869.8837)"
           id="g32"><path
             id="path34"
             style="fill:#ffffff;fill-opacity:1;fill-rule:nonzero;stroke:none"
             d="M 0,0 C -12.87,0.232 -23.999,4.687 -33.068,13.912 -49.433,30.559 -50.07,56.852 -34.602,74.335 -17.52,93.641 12.753,95.256 31.525,77.59 43.893,65.952 48.664,51.458 44.756,34.896 40.815,18.202 29.952,7.376 13.696,2.03 9.283,0.578 4.698,-0.141 0,0" /></g><g
           transform="translate(1736.2645,855.8637)"
           id="g36"><path
             id="path38"
             style="fill:#f2f9f9;fill-opacity:1;fill-rule:nonzero;stroke:none"
             d="m 0,0 c -1.093,-2.508 -2.901,-3.649 -5.707,-3.199 -1.408,0.226 -2.862,0.23 -4.295,0.23 -50.854,0.01 -101.708,-0.061 -152.561,0.03 -33.582,0.06 -67.162,0.543 -100.743,0.493 -52.29,-0.078 -104.58,-0.519 -156.87,-0.671 -43.976,-0.128 -87.954,0.035 -131.93,-0.117 -28.463,-0.099 -56.924,-0.6 -85.386,-0.799 -20.629,-0.144 -41.258,-0.088 -61.887,-0.121 -0.32,-0.001 -0.641,-0.009 -0.96,0.004 -3.69,0.14 -4.362,0.665 -5.741,4.475 7.177,-0.093 14.353,-0.267 21.53,-0.266 211.863,0.051 423.726,0.114 635.589,0.201 12.95,0.006 25.9,0.226 38.851,0.362 1.437,0.015 2.885,0.039 4.307,0.223 1.883,0.244 2.908,1.084 3.011,3.087 0.12,2.354 1.273,3.855 2.994,5.158 0.759,0.576 1.551,1.128 2.22,1.799 0.919,0.921 1.514,2.011 1.494,3.402 -0.026,1.756 0.095,3.513 0.096,5.27 0.007,24.774 0.003,49.548 0.009,74.322 0,1.596 0.068,3.193 0.105,4.791 C 5.344,98.306 5.853,97.282 6.192,96.226 6.875,94.107 7.564,91.977 8.036,89.805 10.048,80.534 10.137,71.16 9.58,61.73 9.214,55.526 9.379,49.29 8.993,43.087 8.53,35.618 7.756,28.167 7.062,20.712 6.96,19.613 6.615,18.526 6.292,17.461 5.614,15.223 4.67,13.207 6.192,10.707 7.257,8.959 5.738,7.086 4.485,5.58 3.337,3.441 2.227,1.272 0,0" /></g><g
           transform="translate(1021.411,976.1596)"
           id="g40"><path
             id="path42"
             style="fill:#f8f7ef;fill-opacity:1;fill-rule:nonzero;stroke:none"
             d="m 0,0 c -1.393,-0.208 -2.853,-0.219 -4.159,-0.674 -1.738,-0.605 -2.837,-1.88 -3.047,-3.887 -0.214,-2.052 -0.626,-4.088 -1.048,-6.111 -0.256,-1.225 -0.697,-2.411 -1.056,-3.615 -0.462,0.364 -1.305,0.706 -1.327,1.093 -0.178,3.346 -0.279,6.701 -0.263,10.053 0.011,2.545 1.419,4.222 3.84,4.866 1.839,0.49 3.737,0.815 5.628,1.031 1.421,0.162 2.874,0.036 4.313,0.036 187.49,0.059 374.98,0.114 562.471,0.177 41.558,0.013 83.116,0.034 124.673,0.089 9.43,0.013 18.86,0.156 28.287,0.296 2.608,0.038 5.105,-0.35 7.445,-1.476 0.986,-0.474 2.009,-1.066 2.109,-2.391 -1.761,-0.067 -3.521,-0.134 -5.282,-0.202 -0.683,-0.67 -1.365,-0.669 -2.048,-0.001 -1.592,0.066 -3.183,0.19 -4.775,0.19 C 482.569,-0.532 249.378,-0.547 16.187,-0.559 11.875,-0.559 7.564,-0.52 3.254,-0.499 2.009,-1.373 1.005,-0.681 0,0" /></g><g
           transform="translate(1063.9335,893.5615)"
           id="g44"><path
             id="path46"
             style="fill:#0d0c0c;fill-opacity:1;fill-rule:nonzero;stroke:none"
             d="m 0,0 c 0.025,-7.204 -2.782,-13.219 -7.811,-18.244 -0.75,-0.749 -1.799,-1.343 -2.817,-1.623 -0.57,-0.157 -1.507,0.33 -1.994,0.813 -0.305,0.302 -0.269,1.222 -0.048,1.713 0.314,0.696 0.891,1.298 1.436,1.862 2.692,2.784 4.544,6.073 5.95,9.651 1.157,2.945 2.352,5.876 3.597,8.784 0.122,0.284 0.706,0.452 1.096,0.501 C -0.423,3.479 -0.044,3.07 -0.027,2.838 0.038,1.896 0,0.947 0,0" /></g><g
           transform="translate(1068.0731,877.79)"
           id="g48"><path
             id="path50"
             style="fill:#0e0d0d;fill-opacity:1;fill-rule:nonzero;stroke:none"
             d="m 0,0 c 0.161,-3.325 -1.426,-5.813 -3.92,-7.756 -0.697,-0.544 -1.735,-0.835 -2.639,-0.893 -1.676,-0.108 -3.022,2.054 -2.057,3.376 2.055,2.816 4.277,5.513 6.471,8.226 0.487,0.601 1.726,0.181 1.894,-0.584 0.067,-0.308 0.099,-0.626 0.13,-0.94 C -0.073,0.954 -0.04,0.477 0,0" /></g><g
           transform="translate(1741.9471,975.4438)"
           id="g52"><path
             id="path54"
             style="fill:#0a0701;fill-opacity:1;fill-rule:nonzero;stroke:none"
             d="M 0,0 C 0.685,0 1.368,0 2.05,0 2.674,-0.476 3.387,-0.874 3.912,-1.444 5.709,-3.395 5.9,-5.732 5.04,-8.09 c -0.878,-2.408 -2.784,-3.816 -5.288,-4.247 -2.413,-0.415 -4.595,1.068 -5.494,3.545 -0.922,2.539 -0.073,5.378 2.057,6.697 C -2.484,-1.352 -1.23,-0.695 0,0" /></g><g
           transform="translate(1736.2645,855.8637)"
           id="g56"><path
             id="path58"
             style="fill:#0a0603;fill-opacity:1;fill-rule:nonzero;stroke:none"
             d="m 0,0 c 0.524,2.639 1.645,4.799 4.484,5.58 0.469,0.047 0.94,0.078 1.405,0.146 0.76,0.11 1.617,0.525 2.254,0.301 C 8.983,5.73 9.872,5.084 10.352,4.338 11.77,2.13 11.511,-0.24 10.425,-2.501 9.419,-4.596 7.541,-5.524 5.325,-5.392 4.123,-5.321 2.871,-4.805 1.794,-4.212 0.187,-3.328 0.183,-1.587 0,0" /></g><g
           transform="translate(1021.411,976.1596)"
           id="g60"><path
             id="path62"
             style="fill:#120b03;fill-opacity:1;fill-rule:nonzero;stroke:none"
             d="m 0,0 c 1.086,-0.167 2.172,-0.333 3.256,-0.5 0.199,-0.247 0.38,-0.516 0.605,-0.74 1.829,-1.81 2.14,-3.922 0.939,-6.118 -1.229,-2.248 -3.245,-3.522 -5.832,-3.641 -2.35,-0.106 -4.6,1.816 -4.998,4.323 -0.141,0.887 0.051,1.913 0.373,2.769 0.47,1.246 1.435,1.936 2.847,2.253 C -1.8,-1.429 -0.932,-0.574 0,0" /></g><g
           transform="translate(1014.8759,855.184)"
           id="g64"><path
             id="path66"
             style="fill:#120d05;fill-opacity:1;fill-rule:nonzero;stroke:none"
             d="M 0,0 C -0.062,2.769 3.059,5.77 5.831,5.606 8.35,5.458 10.679,3.172 10.825,0.706 11.008,-2.369 8.425,-5.002 5.182,-5.047 2.33,-5.087 0.064,-2.88 0,0" /></g><g
           transform="translate(985.6425,880.6567)"
           id="g68"><path
             id="path70"
             style="fill:#000000;fill-opacity:1;fill-rule:nonzero;stroke:none"
             d="m 0,0 c 1.178,2.588 2.221,5.064 3.421,7.461 1.096,2.187 2.76,3.892 4.954,5.049 1.694,0.894 3.392,1.788 5.045,2.755 2.208,1.292 4.183,2.816 5.942,4.758 1.797,1.985 4.11,3.508 6.224,5.2 0.745,0.596 1.652,1.01 2.327,1.67 0.389,0.379 0.74,1.173 0.598,1.617 -0.154,0.477 -0.853,0.913 -1.405,1.105 -2.155,0.746 -4.092,0.066 -5.865,-1.17 -1.178,-0.82 -2.284,-1.742 -3.438,-2.598 -0.384,-0.284 -0.789,-0.618 -1.234,-0.721 -0.565,-0.13 -1.231,-0.187 -1.751,0.004 -0.241,0.09 -0.381,0.86 -0.323,1.288 0.545,3.967 1.497,7.814 3.175,11.487 1.391,3.046 2.594,6.178 3.809,9.301 0.399,1.026 0.655,2.127 0.831,3.217 0.142,0.883 -0.749,1.945 -1.578,2.114 -0.886,0.182 -1.611,-0.13 -2.035,-0.882 C 18.152,50.688 17.669,49.675 17.264,48.64 16.102,45.667 15.02,42.663 13.845,39.696 13.497,38.818 12.976,38 12.466,37.199 c -0.14,-0.219 -0.723,-0.443 -0.771,-0.387 -0.26,0.311 -0.535,0.694 -0.58,1.079 -0.054,0.456 0.081,0.949 0.201,1.409 1.202,4.631 2.426,9.256 3.616,13.89 0.155,0.608 0.202,1.258 0.201,1.888 -0.003,0.945 -0.72,1.348 -1.463,1.686 -0.871,0.395 -1.697,0.047 -2.093,-0.617 -0.559,-0.936 -0.9,-2.028 -1.191,-3.093 C 9.17,48.593 8.012,44.117 6.823,39.649 6.672,39.082 6.469,38.529 5.624,38.024 5.536,38.841 5.283,39.68 5.389,40.471 c 0.462,3.479 1.035,6.943 1.549,10.414 0.139,0.939 0.306,1.888 0.293,2.831 -0.013,0.92 -1.034,1.909 -1.927,1.761 C 4.612,55.361 3.806,54.925 3.401,54.375 2.967,53.782 2.872,52.901 2.748,52.126 2.018,47.56 1.352,42.984 0.574,38.426 c -0.085,-0.495 -0.739,-0.892 -1.13,-1.335 -0.354,0.487 -0.982,0.955 -1.014,1.462 -0.122,1.9 -0.076,3.813 -0.039,5.72 0.025,1.271 0.231,2.543 0.185,3.809 -0.029,0.815 -0.543,1.689 -1.434,1.578 -0.663,-0.082 -1.581,-0.652 -1.8,-1.227 -0.503,-1.322 -0.818,-2.77 -0.904,-4.185 -0.173,-2.867 -0.277,-5.751 -0.161,-8.619 0.112,-2.741 -0.168,-5.392 -0.67,-8.084 -0.464,-2.49 -0.583,-5.063 -0.656,-7.606 -0.106,-3.739 -0.828,-7.291 -2.666,-10.57 -0.182,-0.326 -0.706,-0.774 -0.912,-0.704 -0.385,0.132 -0.782,0.549 -0.949,0.943 -1.765,4.163 -2.698,8.569 -2.887,13.036 -0.269,6.379 -0.268,12.779 -0.101,19.163 0.113,4.324 1.199,8.523 2.739,12.587 3.249,8.576 10.08,14.545 20.922,14.598 3.2,0.015 6.367,-0.083 9.502,-0.962 4.925,-1.382 8.583,-4.292 10.709,-8.873 1.199,-2.583 2.196,-5.36 2.682,-8.155 C 33.925,39.885 34.091,28.733 31.479,17.686 30.824,14.919 29.77,12.187 28.498,9.639 25.418,3.461 20.195,-0.076 13.443,-0.896 9.676,-1.354 5.796,-0.929 1.969,-0.823 1.393,-0.807 0.828,-0.36 0,0" /></g><g
           transform="translate(1740.6591,966.496)"
           id="g72"><path
             id="path74"
             style="fill:#c4bdbd;fill-opacity:1;fill-rule:nonzero;stroke:none"
             d="M 0,0 C -0.362,0.642 -0.743,1.135 -0.932,1.693 -1.246,2.621 -1.151,3.536 -0.309,4.19 0.346,4.698 1.721,4.568 2.259,3.94 2.845,3.257 2.728,2.462 2.216,1.845 1.751,1.285 1.088,0.887 0,0" /></g><g
           transform="translate(1741.4803,853.8867)"
           id="g76"><path
             id="path78"
             style="fill:#dbdcdc;fill-opacity:1;fill-rule:nonzero;stroke:none"
             d="m 0,0 c -1.166,-0.095 -2.179,1.033 -1.912,2.137 0.074,0.309 0.143,0.628 0.281,0.91 0.633,1.296 1.613,1.978 2.527,1.792 C 1.718,4.672 2.352,3.66 2.302,2.591 2.234,1.114 1.341,0.108 0,0" /></g><g
           transform="translate(1021.5653,972.4584)"
           id="g80"><path
             id="path82"
             style="fill:#d0dede;fill-opacity:1;fill-rule:nonzero;stroke:none"
             d="m 0,0 c -0.279,0.016 0.199,0.033 0.662,-0.046 0.921,-0.158 1.606,-1.445 1.054,-2.176 -0.539,-0.714 -1.255,-1.367 -2.028,-1.813 -0.921,-0.531 -1.873,-0.174 -2.571,0.576 -0.709,0.762 -0.802,1.7 -0.351,2.632 0.406,0.838 1.17,0.953 2.007,0.83 C -1.071,-0.02 -0.911,0 0,0" /></g><g
           transform="translate(1018.9872,857.5449)"
           id="g84"><path
             id="path86"
             style="fill:#e5efef;fill-opacity:1;fill-rule:nonzero;stroke:none"
             d="m 0,0 c 0.496,-0.223 1.09,-0.438 1.633,-0.745 1.097,-0.621 1.461,-1.432 1.089,-2.28 -0.433,-0.987 -1.703,-1.457 -2.806,-1.038 -1.305,0.496 -1.781,2.49 -0.83,3.605 C -0.735,-0.249 -0.386,-0.186 0,0" /></g></g></g><text
       id="text94"
       style="font-variant:normal;font-weight:normal;font-stretch:normal;font-size:25px;font-family:simpleshow;-inkscape-font-specification:simpleshow;writing-mode:lr-tb;fill:#000000;fill-opacity:1;fill-rule:nonzero;stroke:none"
       transform="matrix(1,0,0,-1,1096.6362,930.6836)"><tspan
         id="tspan88"
         y="0"
         x="0 15.525 29.85 44.025002 50.099998 65.25 79.199997 92.875 106 112.075 126 132.58749 146.4375 161.96249 177.1375 189.5 195.575 208.925 223.10001 237.03751 243.1125 253.035 268.20999 274.285 289.45999 302.58499 316.52249 322.5975 336.77249 350.70999 364.06 377.95999 392.535 400.48499 406.56 419.66 433.98499 449.16 455.23499 468.33499 482.27249 495.03751 510.5625 524.73749 538.67499 544.75 559.92499 573.04999 586.98749 601.5625">OUR MECH PILOTS ARE AT THE READY! BUT BEFORE THEY </tspan><tspan
         id="tspan90"
         y="30"
         x="13.55 27.4 40.737499 55.0625 70.487503 84.162498 97.287498 102.6375 108.7125 124.6125 138.55 144.625 160.05 173.9875 187.925 201.825 207.89999 223.075 238.60001 244.675 258.35001 273.875 289.29999 301.66251 316.83749 331.01251 345.33749 359.01251 374.1875 380.26251 395.4375 408.5625 422.5 428.57501 440.9375 447.53751 462.6875 476.60001 490.45001 504.38751 519.53748 533.47498 547.15002 560.27502 566.34998 580.07501">LAUNCH, WE NEED TO CONSTRUCT THE SIMPLEMECH X!</tspan><tspan
         id="tspan92"
         y="60"
         x="38.25 52.150002 66.324997 79.675003 93.574997 99.650002 113.725 119.8 133.7 147.875 163.39999 177.3125 183.3875 189.97501 205.14999 217.5125 223.58749 237.5 250.85001 265.02499 280.20001 292.5625 298.63751 313.8125 329.33749 335.41251 349.08749 364.61249 379.76251 393.67499 407.52499 421.47501 436.64999 450.58749 456.66251 463.26251 478.4375 490.79999 496.875 509.97501 524.29999 530.88751 544.73749 558.63751 563.26251">DRAG &amp; DROP ITS PARTS TO COMPLETE ITS BUILD. </tspan></text>
</g></svg>