<?xml version="1.0" encoding="utf-8"?>
<!-- Generator: Adobe Illustrator 16.0.0, SVG Export Plug-In . SVG Version: 6.00 Build 0)  -->
<!DOCTYPE svg PUBLIC "-//W3C//DTD SVG 1.1//EN" "http://www.w3.org/Graphics/SVG/1.1/DTD/svg11.dtd">
<svg version="1.1" id="Layer_1" xmlns="http://www.w3.org/2000/svg" xmlns:xlink="http://www.w3.org/1999/xlink" x="0px" y="0px"
	 width="120.026px" height="382.66px" viewBox="0 0 120.026 382.66" enable-background="new 0 0 120.026 382.66"
	 xml:space="preserve">
<g>
	<path fill="#FFFFFF" d="M62.662,382.586c-9.85,0.396-19.461-0.811-28.876-3.688c-4.372-1.335-7.917-3.612-11.006-7.184
		c-4.962-5.74-4.526-11.511-1.552-17.271c0.578-1.117,1.298-2.173,1.749-3.338c0.391-1.002-0.187-1.987-1.251-2.093
		c-4.761-0.479-7.813-3.291-10.05-7.217c-0.449-0.786-0.989-1.142-1.842-1.263c-2.452-0.347-4.407-1.58-6.301-3.175
		c-2.413-2.033-3.436-4.55-3.485-7.547c-0.059-3.674-0.085-7.354,0.044-11.026c0.09-2.566,0.673-5.012,2.337-7.152
		c1.523-1.962,3.213-3.582,5.728-4.021c1.893-0.329,3.002-1.11,3.579-3.166c0.598-2.131,1.97-4.244,4.126-5.053
		c2.472-0.928,2.344-2.575,2.136-4.542c-0.455-4.288-0.854-8.581-1.282-12.872c-0.895-8.923-0.987-17.874-0.543-26.812
		c0.347-7.029,1.585-13.955,3.778-20.674c1.199-3.674,2.885-7.114,5.431-10.044c0.92-1.058,1.294-2.043,1.112-3.443
		c-0.326-2.525-0.475-5.074-0.646-7.617c-0.073-1.074-0.439-1.886-1.576-2.055c-4.302-0.643-6.067-3.875-7.271-7.424
		c-0.725-2.135-1.844-3.566-3.952-4.248c-4.122-1.331-5.653-4.425-5.661-8.47c-0.009-3.994-0.004-7.991,0.16-11.98
		c0.181-4.405,2.554-7.32,7.022-8.477c1.783-0.462,2.738-1.256,3.03-3.065c0.854-5.283,4.94-7.407,9.161-7.39
		c0.795,0.003,1.609,0.013,2.376-0.159c0.372-0.083,0.718-0.536,0.949-0.902c0.149-0.239,0.088-0.623,0.088-0.942
		c-0.003-4.954,0.044-9.909-0.031-14.862c-0.143-9.579-0.365-19.156-0.535-28.734c-0.046-2.551,0.029-5.105-0.037-7.655
		c-0.135-5.116,1.02-9.832,4.275-13.879c0.868-1.08,1.304-2.074,0.805-3.486c-0.554-1.567-0.155-3.15,0.377-4.687
		c0.482-1.393,0.628-2.822,0.053-4.22c-1.497-3.634-0.51-7.038,1.472-10.011c1.348-2.022,1.7-3.987,1.688-6.262
		c-0.048-8.464,0.037-16.93-0.035-25.395c-0.033-3.896,0.469-7.655,2.19-11.165c0.498-1.014,0.363-1.725-0.185-2.624
		c-1.656-2.717-3.37-5.367-4.209-8.547C33.945,8.958,39.339,0.871,47.345,0.096c4.935-0.477,9.08,0.763,12.106,5.098
		c4.567,6.547,9.414,12.9,14.021,19.421c8.108,11.476,16.125,23.018,24.183,34.531c1.648,2.355,3.294,4.711,4.966,7.049
		c5.08,7.101,2.652,16.047-5.334,19.559c-0.723,0.318-1.502,0.508-2.262,0.739c-2.385,0.725-3.227,3.159-1.588,5.079
		c1.775,2.077,3.463,4.162,4.523,6.718c1.244,3.002,1.73,6.112,1.736,9.346c0.044,27.167,0.126,54.334,0.153,81.501
		c0.003,2.269,0.307,4.27,1.483,6.358c4.198,7.453,5.665,15.556,4.654,24.037c-0.203,1.706-0.071,2.999,1.007,4.399
		c4.719,6.12,6.896,13.313,7.911,20.798c0.791,5.838,1.16,11.77,1.208,17.665c0.092,11.342,0.116,22.7-0.386,34.027
		c-0.459,10.349-1.017,20.759-4.278,30.74c-0.393,1.201-0.172,2.089,0.373,3.146c1.315,2.547,2.661,5.103,3.669,7.779
		c1.189,3.152,1.694,6.494,1.496,9.887c-0.133,2.263,0.099,4.34,1.209,6.44c1.348,2.554,1.736,5.439,1.823,8.355
		c0.133,4.439-1.892,7.64-5.499,9.967c-2.978,1.922-6.253,3.267-9.674,4.052c-8.093,1.858-16.266,3.326-24.54,4.146
		C74.43,381.517,68.545,382.037,62.662,382.586"/>
	<path d="M41.146,93.528c-1.779-3.246-2.073-6.287-0.581-9.435c0.295-0.62,0.34-1.624,0.038-2.218
		c-1.903-3.751-1.479-7.025,1.518-10.05c0.587-0.592,0.872-1.678,0.93-2.561c0.136-2.069,0.055-4.152,0.053-6.229
		c-0.006-7.988-0.001-15.977-0.028-23.965c-0.013-3.751,0.532-7.371,2.863-10.427c0.996-1.306,0.743-2.264-0.077-3.422
		c-1.108-1.564-2.226-3.134-3.161-4.801c-0.772-1.375-1.442-2.85-1.89-4.36c-1.816-6.139,3.671-12.119,9.929-10.884
		c1.969,0.389,3.505,1.453,4.687,3.077c3.102,4.263,6.294,8.462,9.326,12.774c11.123,15.812,22.197,31.66,33.286,47.497
		c0.458,0.653,0.964,1.289,1.31,2.001c2.897,5.972-1.513,12.435-8.157,11.912c-1.251-0.098-2.468-0.587-3.712-0.84
		c-0.744-0.151-1.619,0.809-1.376,1.54c0.299,0.899,0.709,1.763,1.103,2.628c0.612,1.349,1.11,2.858,0.452,4.169
		c-1.139,2.266-0.621,3.519,1.469,4.951c3.989,2.734,5.373,7.021,5.694,11.639c0.177,2.545,0.037,5.11,0.044,7.667
		c0.056,23.649,0.115,47.297,0.171,70.946c0.003,1.119,0.086,2.247-0.032,3.354c-0.397,3.771,0.564,7.026,2.458,10.407
		c3.861,6.887,4.973,14.446,3.451,22.26c-0.366,1.875-0.174,3.239,1.187,4.76c4.873,5.441,6.805,12.227,7.955,19.213
		c0.673,4.081,1.044,8.254,1.072,12.389c0.093,12.78,0.134,25.567-0.157,38.344c-0.186,8.135-1.123,16.24-2.563,24.271
		c-0.481,2.688-0.991,5.348-2.505,7.684c-0.609,0.94-0.438,1.764,0.126,2.653c0.938,1.485,1.81,3.011,2.703,4.524
		c2.857,4.844,3.981,10.078,3.33,15.649c-0.193,1.651,0.051,2.989,0.854,4.514c1.02,1.93,1.689,4.146,2.025,6.314
		c0.64,4.13-0.534,6.349-4.231,8.188c-2.271,1.132-4.667,2.18-7.127,2.736c-5.756,1.304-11.548,2.563-17.392,3.34
		c-10.451,1.39-20.947,2.518-31.524,2.229c-6.746-0.183-13.292-1.512-19.781-3.354c-4.294-1.22-7.273-3.958-9.662-7.416
		c-2.401-3.478-1.588-7.22,0.611-10.319c1.393-1.962,2.254-3.738,1.983-6.062c-0.233-2.008,1.21-3.995,0.05-6.006
		c-1.891-0.124-3.781-0.299-5.673-0.36c-3.423-0.114-5.266-2.696-6.166-5.182c-0.947-2.613-1.985-3.4-4.659-3.389
		c-4.063,0.016-6.458-2.606-6.468-6.64c-0.008-3.514,0.095-7.032,0.336-10.535c0.284-4.123,1.69-5.563,5.783-6.367
		c0.156-0.032,0.314-0.101,0.469-0.094c2.661,0.132,4.284-0.843,4.091-3.791c-0.01-0.152,0.074-0.31,0.12-0.462
		c0.857-2.861,2.399-4.729,5.754-4.705c2.294,0.014,2.468-0.407,2.224-2.519c-0.753-6.5-1.701-12.983-2.209-19.504
		c-0.856-10.994-1.318-22.013,0.326-32.986c0.426-2.835,1.085-5.64,1.734-8.436c1.173-5.058,3.165-9.726,6.946-13.433
		c1.018-0.999,1.375-2.047,1.074-3.44c-1.016-4.728-1.309-9.478-0.313-14.262c0.202-0.971-0.468-1.434-1.369-1.516
		c-0.635-0.059-1.277-0.036-1.915-0.065c-3.9-0.18-6.068-2.007-6.845-5.864c-0.188-0.932-0.147-1.909-0.234-2.863
		c-0.082-0.883-0.511-1.485-1.446-1.6c-0.476-0.056-0.972-0.002-1.432-0.113c-4.88-1.173-5.731-2.241-5.729-7.174
		c0.001-2.396,0.021-4.794,0.044-7.189c0.008-0.799-0.017-1.607,0.094-2.395c0.391-2.805,1.895-4.362,4.759-4.305
		c4.124,0.082,4.248-0.339,4.706-4.137c0.621-5.159,1.802-6.066,7.207-6.133c1.438-0.017,2.878,0.007,4.316-0.013
		c1.15-0.016,1.731-0.641,1.752-1.778c0.022-1.278,0.056-2.556,0.032-3.833c-0.184-9.904-0.417-19.806-0.561-29.71
		c-0.114-7.824-0.145-15.65-0.17-23.474C34.43,101.296,36.092,96.82,41.146,93.528"/>
	<path fill="#FFFFFF" d="M39.846,190.791c-0.173-7.118-0.47-13.176-0.437-19.231c0.072-13.086,0.336-26.171,0.478-39.258
		c0.084-7.819,0.075-15.64,0.127-23.46c0.01-1.436,0.028-2.879,0.184-4.304c0.38-3.493,2.135-5.901,5.598-7
		c2.752-0.874,5.505-1.612,8.428-1.339c2.658,0.248,5.389-0.582,7.988,0.537c0.071,2.545,0.213,5.09,0.201,7.634
		c-0.095,22.349-0.219,44.698-0.33,67.046c-0.013,2.549-0.002,5.099-0.002,7.531c-4.183,1.511-8.1,2.774-11.895,4.335
		C46.508,184.794,43.551,187.484,39.846,190.791"/>
	<path fill="#FFFFFF" d="M89.51,188.108c-7.283-5.671-14.621-8.436-22.79-8.782c-0.897-1.749-0.593-3.544-0.621-5.257
		c-0.175-10.526-0.321-21.054-0.371-31.581c-0.065-13.879-0.033-27.757-0.041-41.635c0-1.116-0.087-2.249,0.083-3.34
		c0.075-0.486,0.682-1.265,1.061-1.272c4.625-0.088,9.27-0.3,13.869,0.036c2.682,0.197,5.155,1.492,6.941,3.809
		c1.518,1.968,2.365,4.001,2.328,6.572c-0.213,14.833-0.337,29.668-0.427,44.503c-0.063,10.528-0.025,21.056-0.032,31.585
		C89.509,184.146,89.51,185.547,89.51,188.108"/>
	<path fill="#FF9900" d="M86.26,194.614c5.519,4.223,8.207,10.129,9.297,16.709c2.58,15.575-7.027,29.836-22.381,33.618
		c-14.848,3.657-29.854-4.376-35.002-18.765c-0.37-1.034-0.542-2.138-0.808-3.209c0.042-5.936,1.554-11.438,3.722-17.013
		c5.008-12.875,21.969-20.695,35.355-14.965C79.638,192.357,83.131,193.009,86.26,194.614"/>
	<path fill="#CDCDCD" d="M59.303,249.672c6.748,1.23,13.314,0.556,19.727-1.844c0.274-0.102,0.62-0.012,0.914-0.012
		c0.12,0.113,0.243,0.195,0.317,0.31c0.085,0.131,0.181,0.289,0.181,0.438c0.024,18.657,0.044,37.314,0.048,55.971
		c0,1.115-0.093,2.231-0.198,3.342c-0.028,0.294-0.264,0.568-0.535,1.118c-6.02-1.622-12.237-0.959-18.435-0.904
		c-2.628-3.593-2.216-7.944-2.353-11.906c-0.407-11.746-1.764-23.465-1.189-35.244C57.965,257.134,57.898,253.308,59.303,249.672"/>
	<path fill="#FD9801" d="M53.641,13.532c0.687,0.862,1.434,1.684,2.054,2.592C67.94,34.077,80.172,52.04,92.405,70.001
		c0.629,0.925,1.274,1.841,1.856,2.795c1.201,1.971,0.283,3.93-1.98,4.06c-2.333,0.133-4.43-0.512-5.925-2.476
		c-0.289-0.381-0.536-0.794-0.809-1.188c-9.441-13.677-18.887-27.35-28.315-41.035c-0.443-0.643-0.738-1.388-1.102-2.084
		c-1.178-3.439-3.871-6.216-4.392-9.931C51.395,17.682,50.55,15.027,53.641,13.532"/>
	<path fill="#CCCCCC" d="M49.744,362.858c1.43,0.021,2.887-0.13,4.283,0.097c7.631,1.234,15.298,1.002,22.945,0.486
		c6.526-0.44,13.057-1.072,19.434-2.643c3.246-0.798,6.437-1.823,9.647-2.758c1.628-0.474,2.304-0.102,2.789,1.584
		c0.088,0.305,0.163,0.616,0.228,0.928c0.528,2.558,0.363,3.182-2.012,4.07c-2.975,1.114-6.008,2.183-9.109,2.83
		c-13.006,2.712-26.193,4.116-39.456,4.354c-8.29,0.151-16.543-0.787-24.278-4.238c0.048-3.371,2.849-3.41,5.023-3.923
		c3.302-0.777,6.677-0.306,9.965,0.254C51.209,364.241,48.987,362.876,49.744,362.858"/>
	<path fill="#FBFCFC" d="M38.396,324.213c3.049-3.982,6.76-6.405,10.831-8.224c3.935-1.756,8.058-2.891,12.432-3.211
		c5.258-0.383,10.482-1.019,15.74,0.005c5.02,0.979,9.964,2.167,14.559,4.506c3.286,1.674,6.233,3.771,9.092,7.105
		c-3.992-0.59-7.021-2.355-10.364-2.887c-3.463-0.552-6.911-1.265-10.395-1.607c-3.487-0.341-7.011-0.417-10.518-0.417
		c-3.508,0.001-7.03,0.086-10.521,0.419c-3.485,0.333-6.968,0.878-10.397,1.589C45.465,322.195,42.143,323.223,38.396,324.213"/>
	<path fill="#FCFDFD" d="M38.507,329.524c2.493-2.222,7.067-3.854,14.474-5.024c15.281-2.416,34.896-1.474,44.227,3.142
		C87.48,331.279,49.193,332.505,38.507,329.524"/>
	<path fill="#FBFBFB" d="M33.404,323.932c-0.967-5.43-1.912-10.269-2.679-15.136c-1.792-11.367-3.202-22.778-3.698-34.288
		c-0.035-0.799-0.134-1.594-0.162-2.392c-0.174-4.899-0.489-4.79,4.479-4.761c2.379,0.013,4.758,0.032,7.233,0.68
		c-0.613,0.224-1.212,0.517-1.844,0.658c-1.401,0.312-2.82,0.548-4.231,0.816c-0.937,0.18-1.325,0.81-1.29,1.697
		c0.091,2.396,0.028,4.814,0.36,7.177c1.466,10.438,3.016,20.863,4.614,31.281c0.411,2.679,1.171,5.302,1.64,7.973
		c0.123,0.702-0.011,1.68-0.434,2.201C36.316,321.169,35.011,322.317,33.404,323.932"/>
	<path fill="#FBFCFC" d="M33.949,230.948c2.14,1.843,2.525,3.505,1.729,5.808c-1.773,5.135-2.775,10.448-2.728,15.929
		c0.023,2.849,0.141,3.282,2.958,3.939c2.469,0.576,5.011,0.862,7.533,1.178c2.212,0.277,4.45,0.339,6.659,0.64
		c1.818,0.248,2.846,2.325,2.014,3.968c-0.175,0.345-0.719,0.605-1.139,0.697c-0.611,0.135-1.265,0.1-1.899,0.101
		c-6.057,0.001-12.113-0.003-18.17-0.014c-0.796-0.002-1.595-0.017-2.387-0.092c-1.049-0.098-1.811-0.533-1.781-1.759
		c0.025-1.116-0.013-2.233,0.047-3.345c0.37-6.86,1.32-13.616,3.533-20.158C31.14,235.411,32.171,233.116,33.949,230.948"/>
	<path fill="#F9FCFA" d="M86.26,194.614c-2.322-0.454-4.659-0.851-6.962-1.387c-1.229-0.286-2.413-0.786-3.598-1.24
		c-8.186-3.145-15.905-1.53-23.372,2.34c-2.887,1.497-5.016,3.866-6.832,6.514c-3.187,4.64-5.346,9.702-6.379,15.261
		c-0.429,2.316-1.158,4.575-1.751,6.863c-4.848-16.726,8.548-37.646,30.327-36.672c6.365,0.284,12.105,2.466,17.065,6.522
		C85.353,193.301,85.764,194.009,86.26,194.614"/>
	<path fill="#F7F7F7" d="M59.303,249.672c0.879,1.258,0.987,2.594,0.693,4.1c-0.363,1.858-0.65,3.762-0.677,5.652
		c-0.082,5.747-0.079,11.498,0.013,17.245c0.032,2.052,0.436,4.097,0.63,6.148c0.118,1.269,0.179,2.542,0.236,3.815
		c0.227,4.923-0.282,9.864,0.845,14.77c0.49,2.137,0.209,4.453,0.278,6.688l-0.161,0.03c-0.849,0.625-1.991,0.055-2.837,0.697
		c-0.75,0.125-1.62,0.495-1.9-0.633c-0.151-0.611-0.16-1.265-0.167-1.9c-0.199-18.217-0.392-36.435-0.581-54.651
		c-0.005-0.48-0.044-0.969,0.026-1.438c0.158-1.025,0.85-1.214,1.743-0.995C58.065,249.354,58.684,249.515,59.303,249.672"/>
	<path fill="#F8FAFA" d="M56.253,341.435c0.09-0.306,0.134-0.634,0.274-0.912c2.819-5.551,2.824-5.508,9.023-5.91
		c7.482-0.488,14.969-0.963,22.438-1.628c3.485-0.312,6.942-0.998,10.391-1.631c1.349-0.248,2.163,0.211,2.691,1.342
		c1.485,3.171,3.018,6.32,4.384,9.543c1.291,3.046,0.76,6.287,0.728,10.37c-0.803-1.735-1.326-2.718-1.72-3.748
		c-1.203-3.155-2.791-6.086-4.957-8.684c-2.604-3.12-5.732-4.867-10.017-4.391c-6.974,0.775-13.984,1.215-20.959,1.992
		c-4.397,0.488-8.309,2.192-11.19,5.76c-0.334,0.304-0.713,0.574-0.82,1.054c-0.053,0.261-0.172,0.485-0.358,0.673
		c-0.878,0.202-1.284-0.039-0.932-0.991c0.148-0.558,0.297-1.114,0.447-1.671C55.846,342.203,56.037,341.814,56.253,341.435"/>
	<path fill="#FAFBFB" d="M55.436,335.324c-2.858,4.725-4.383,9.565-5.547,14.52c-0.583,2.481-0.888,5.027-1.357,7.537
		c-0.167,0.893-0.773,1.441-1.7,1.23c-4.135-0.934-4.048-0.449-3.572-4.485c0.447-3.796,1.057-7.578,2.388-11.21
		c0.588-1.603,0.243-2.211-1.187-3.221c-1.879-1.327-3.999-1.928-6.267-2.12c-0.727-0.063-1.236-0.583-1.069-1.265
		c0.177-0.717,0.629-1.389,1.063-2.01c0.123-0.177,0.603-0.164,0.911-0.143C44.347,334.522,49.594,334.903,55.436,335.324"/>
	<path fill="#F4F4F4" d="M49.894,31.235c1.416,1.87,2.03,2.773,2.737,3.596c1.461,1.697,1.61,3.496,1.279,5.727
		c-0.912,6.134-1.555,12.314-1.43,18.543c0.055,2.705-0.021,5.413,0.035,8.118c0.046,2.252-0.574,2.683-2.915,2.506
		c-0.869-0.065-1.495-0.511-1.53-1.477c-0.034-0.953-0.001-1.91-0.047-2.863c-0.453-9.389,0.6-18.742,0.684-28.119
		C48.724,35.591,49.345,33.922,49.894,31.235"/>
	<path fill="#CBC9C9" d="M51.622,85.506c4.455-0.097,8.911-0.272,13.367-0.269c4.936,0.005,9.871,0.204,14.808,0.255
		c1.511,0.015,2.343,0.808,2.897,2.055c0.666,1.498-0.356,3.407-1.936,3.622c-0.472,0.064-0.955,0.06-1.433,0.058
		c-10.523-0.038-21.048-0.081-31.571-0.122c0.788-2.533,2.857-2.019,4.675-1.865c1.638,0.139,3.225,0.799,5.063,0.486
		c0.488-0.019-0.483-0.914-0.15-0.367c0.129,0.21,0.003,0.344-0.366,0.301C54.355,89.356,50.849,90.183,51.622,85.506"/>
	<path fill="#B5B7B7" d="M47.784,75.119c7.312,0.02,14.624,0.06,21.936,0.047c3.021-0.005,6.041-0.163,9.062-0.183
		c2.229-0.015,3.876,2.383,3.24,4.662c-0.072,0.265-0.328,0.573-0.575,0.675c-0.425,0.173-0.907,0.277-1.365,0.274
		c-6.355-0.041-12.71-0.061-19.064-0.183c-3.156-0.061-6.311-0.319-9.466-0.488c3.014-2.677,6.146-0.383,8.658-0.582
		c-2.655-0.669-6.157-0.508-9.289-1.929C49.716,76.866,47.987,77.034,47.784,75.119"/>
	<path fill="#F3F4F4" d="M99.04,295.122c-1.812-5.148-1.722-10.437-2.233-15.62c-0.833-8.426-2.234-16.735-4.365-24.93
		c-0.352-1.357-0.45-2.785-0.596-4.188c-0.019-0.181,0.36-0.507,0.61-0.581c0.267-0.08,0.75-0.052,0.876,0.122
		c0.546,0.748,1.212,1.508,1.445,2.369c1.248,4.605,2.643,9.197,3.485,13.885c0.987,5.482,1.476,11.055,2.151,16.592
		C100.922,286.936,100.322,290.99,99.04,295.122"/>
	<path fill="#F4F5F5" d="M104.801,264.042c-1.771-7.084-3.505-14.179-5.332-21.247c-0.516-1.998-0.871-4.253-2.059-5.816
		c-2.06-2.715-1.001-4.549,0.911-6.642c1.888,1.691,2.771,3.913,3.604,6.137c1.52,4.048,2.479,8.24,2.977,12.535
		C105.487,254.084,105.621,259.172,104.801,264.042"/>
	<path fill="#FA9705" d="M22.956,326.361c3.438-0.865,5.839-0.057,7.634,3.402c1.15,2.22,1.34,3.91,0.372,6.092
		c-1.188,2.677-1.074,2.757-4.055,2.764c-1.41,0.002-2.82-0.136-4.231-0.21C21.837,334.372,20.104,330.312,22.956,326.361"/>
	<path fill="#F6FAFA" d="M49.744,362.858c0.881,0.459,1.761,0.917,3.392,1.767c-4.471,0-8.171-0.116-11.859,0.039
		c-2.642,0.11-5.368,0.341-7.062,2.905c-3.798-1.06-5.074-2.624-4.7-5.769c0.259-2.168,1.759-2.872,3.972-2.354
		c5.082,1.188,10.214,2.161,15.325,3.222C49.123,362.733,49.433,362.794,49.744,362.858"/>
	<path fill="#F7F6F2" d="M53.641,13.532c-1.45,1.744-1.568,3.729-0.927,5.783c0.702,2.251,1.54,4.461,2.269,6.704
		c0.433,1.336,0.771,2.702,1.149,4.054c-3.29-4.51-6.601-9.004-9.857-13.538c-1.373-1.91-0.955-4.301,0.915-5.937
		c1.573-1.377,3.82-1.103,5.466,0.799C53.147,11.967,53.321,12.813,53.641,13.532"/>
	<path fill="#E48E0B" d="M14.802,323.775c0,1.58,0.04,3.162-0.013,4.74c-0.041,1.275-0.677,1.701-2.277,1.673
		c-1.606-0.028-2.134-0.398-2.168-1.812c-0.071-3.003-0.095-6.009-0.056-9.013c0.025-1.929,2.302-3.277,4.021-2.4
		c0.329,0.169,0.604,0.724,0.644,1.126c0.093,0.939,0.028,1.894,0.027,2.84v2.846H14.802z"/>
	<path fill="#E58E0A" d="M29.591,180.814c6.36,0.032,5.513,0.015,5.49,5.769c-0.003,0.791,0.077,1.618-0.13,2.358
		c-0.146,0.522-0.668,1.27-1.103,1.331c-2.929,0.404-5.865,1.365-8.838,0.23C28.998,188.435,27.374,183.716,29.591,180.814"/>
	<path fill="#F9FCFC" d="M47.784,75.119c0.228,0.211,0.44,0.59,0.684,0.609c4.312,0.346,8.158,2.453,12.351,3.238
		c0.09,0.016,0.135,0.274,0.183,0.38c-3.141,0.192-6.298,0.384-9.452,0.577c-1.538-0.03-3.093,0.06-4.614-0.13
		c-1.109-0.138-2.021-0.84-2.142-2.097c-0.109-1.14,0.211-2.232,1.27-2.771C46.491,74.706,47.202,75.038,47.784,75.119"/>
	<path fill="#E89013" d="M23.641,309.109c1-0.24,1.478,0.353,1.644,1.177c0.404,2.003,0.703,4.025,1.088,6.032
		c1.205,6.27,0.735,6.689-6.055,5.354c1.441-1.96,1.101-4.261,1.21-6.466C21.639,312.958,21.633,310.691,23.641,309.109"/>
	<path fill="#EDEFEF" d="M71.735,347.946c0.059,2.204-0.801,3.542-2.122,4.02c-1.239,0.448-2.778-0.125-3.705-1.379
		c-1.27-1.72-1.233-3.948,0.096-5.68c1.454-1.898,3.195-1.824,4.424,0.268C71.049,346.234,71.483,347.402,71.735,347.946"/>
	<path fill="#F2EDE4" d="M29.591,180.814c-0.091,2.341-0.176,4.682-0.276,7.021c-0.09,2.116-0.314,2.354-2.432,2.57
		c-0.622,0.062-1.25,0.063-1.874,0.096c-0.106-2.78-0.237-5.562-0.311-8.344c-0.027-1.075,0.48-1.794,1.668-1.705
		C27.444,180.532,28.517,180.69,29.591,180.814"/>
	<path fill="#F5F9F9" d="M51.622,85.506c-0.01,1.461,0.726,2.443,2.057,2.909c1.457,0.51,2.955,0.9,5.33,1.61
		c-3.298,0.293-5.735,0.164-8.162,0.211c-1.104,0.021-2.267-0.148-3.093,0.869c-1.622,0.367-2.406-0.758-2.703-1.939
		c-0.241-0.958,0.031-2.127,0.358-3.108c0.135-0.403,1.01-0.773,1.555-0.782C48.515,85.25,50.069,85.417,51.622,85.506"/>
	<path fill="#F0F1EE" d="M23.641,309.109c-0.295,3.479-0.742,6.953-0.823,10.438c-0.045,1.967-1.31,1.852-2.501,2.125
		c-1.036-3.938-0.323-7.889-0.023-11.831c0.024-0.312,0.606-0.785,0.971-0.828C22.041,308.921,22.847,309.062,23.641,309.109"/>
	<path fill="#F99702" d="M29.516,195.003c0.616-0.083,1.229-0.178,1.848-0.246c3.133-0.356,4.57-0.153,3.058,4.364
		c-0.148,0.441-0.362,0.861-0.565,1.281c-0.777,1.605-0.922,1.689-2.921,1.448c-0.614-0.074-1.215-0.255-1.822-0.388
		C27.935,199.229,27.85,197.061,29.516,195.003"/>
	<path fill="#F39708" d="M29.594,171.019c0.624-0.077,1.246-0.211,1.871-0.222c3.831-0.07,3.98,0.096,3.751,3.915
		c-0.11,1.822-0.411,2.132-2.324,2.081c-1.256-0.034-2.509-0.199-3.764-0.306C28.021,174.557,28.066,172.725,29.594,171.019"/>
	<path fill="#D5870F" d="M20.789,186.568c-0.038,0.587-0.029,2.027-0.285,3.421c-0.068,0.366-0.932,0.725-1.474,0.811
		c-0.312,0.049-1.017-0.448-1.024-0.714c-0.086-2.842-0.111-5.689-0.009-8.529c0.011-0.279,1.008-0.773,1.492-0.716
		c0.47,0.059,1.182,0.657,1.239,1.09C20.896,183.176,20.789,184.459,20.789,186.568"/>
	<path fill="#F2EFE9" d="M22.956,326.361c-0.017,2.318-0.006,4.638-0.056,6.956c-0.034,1.697-0.146,3.395-0.225,5.092
		c-0.396-0.041-0.793-0.081-1.189-0.122l-0.1-0.008c-0.494-3.206-1.124-6.398-1.435-9.622
		C19.715,326.186,20.068,326.039,22.956,326.361"/>
	<path fill="#F2ECE0" d="M29.516,195.003c-0.134,2.152-0.268,4.307-0.401,6.46c-0.319,0.029-0.637,0.07-0.955,0.089
		c-1.196,0.064-2.263-0.065-2.396-1.601c-0.041-0.476-0.107-0.952-0.17-1.427C25.071,194.524,25.071,194.524,29.516,195.003"/>
	<path fill="#F2ECE1" d="M29.594,171.019c-0.154,1.822-0.31,3.645-0.464,5.468c-0.774,0.038-1.546,0.105-2.318,0.107
		c-0.89,0.003-1.488-0.39-1.438-1.367c0.047-0.926,0.125-1.854,0.256-2.772c0.212-1.501,0.453-1.709,2.146-1.731
		C28.38,170.716,28.987,170.915,29.594,171.019"/>
	<path fill="#FFFFFF" d="M55.229,344.274c0.311,0.331,0.621,0.661,0.932,0.991c-0.646,1.577-1.286,3.155-1.947,4.728
		c-0.051,0.124-0.238,0.191-0.548,0.427"/>
	<path fill="#FFFFFF" d="M58.324,308.818c0.754-1.014,1.758-1.013,2.838-0.696C60.378,309.016,59.37,308.995,58.324,308.818"/>
	<polyline fill="#FA9705" points="21.387,338.279 21.513,338.103 21.488,338.288 21.387,338.279 	"/>
	<path fill="#A9A7A7" d="M56.253,341.435c-0.192,0.391-0.385,0.778-0.577,1.168C55.868,342.213,56.061,341.825,56.253,341.435"/>
	<path fill="#A9A7A7" d="M56.519,344.593c0.272-0.353,0.547-0.704,0.819-1.056L56.519,344.593z"/>
	<path fill="#0A0909" d="M85.343,116.059c0.033,3.464,0.147,5.867-0.974,8.087c-0.119,0.237-0.425,0.515-0.655,0.524
		c-0.253,0.012-0.687-0.213-0.753-0.424c-0.564-1.811-1.151-3.623-1.558-5.473c-0.41-1.86-0.621-3.763-0.917-5.647
		c-0.473-3.01-1.238-5.906-3.139-8.388c-0.662-0.865-0.667-1.79,0.168-2.551c0.797-0.726,1.892-0.801,2.639-0.206
		c1.083,0.865,2.322,1.888,2.782,3.111c0.997,2.653,1.621,5.459,2.239,8.237C85.446,114.554,85.333,115.864,85.343,116.059"/>
	<path fill="#1B1B1B" d="M78.652,111.78c0.006,1.586-0.651,2.995-1.517,3.25c-0.961,0.283-2.247-1.225-2.523-2.957
		c-0.333-2.089,0.567-3.668,2.028-3.555C77.923,108.617,78.645,109.786,78.652,111.78"/>
	<path fill="#020201" d="M67.498,227.413c-2.749-0.607-3.959-2.209-3.848-5.123c0.182-4.784,0.082-9.578,0.109-14.369
		c0.008-1.466,0.266-2.765,1.461-3.871c1.958-1.817,2.688-2.053,4.992-0.505c3.974,2.671,7.912,5.402,11.797,8.203
		c2.107,1.519,2.112,2.121,0.65,4.765C78.9,221.944,73.806,225.52,67.498,227.413"/>
	<path fill="#0B0A08" d="M59.338,216.571c0,2.555,0.043,5.11-0.021,7.663c-0.028,1.231-0.751,1.967-1.952,2.414
		c-2.342,0.876-4.734,0.761-7.096,0.417c-2.277-0.329-3.481-2.01-3.448-4.407c0.054-3.674,0.154-7.346,0.234-11.019
		c0.004-0.159-0.004-0.319,0.011-0.478c0.777-7.928,1.799-7.617,9.09-7.328c1.743,0.068,2.479,0.874,2.803,2.71
		c0.249,1.409,0.391,2.847,0.445,4.277c0.075,1.913,0.02,3.833,0.02,5.75H59.338z"/>
	<path fill="#090603" d="M93.142,216.383c-0.452,2.325-0.826,4.672-1.397,6.968c-0.22,0.885-0.746,1.804-1.396,2.433
		c-0.476,0.457-1.414,0.682-2.089,0.589c-0.415-0.056-0.973-0.878-1.025-1.399c-0.111-1.085-0.1-2.243,0.165-3.296
		c1.426-5.679,0.608-11.024-2.131-16.14c-0.298-0.556-0.676-1.152-0.707-1.747c-0.029-0.556,0.197-1.326,0.597-1.646
		c0.384-0.31,1.376-0.438,1.681-0.169c1.175,1.031,2.387,2.122,3.204,3.429C92.119,208.716,92.898,212.435,93.142,216.383"/>
	<path fill="#F0F7F2" d="M67.498,227.413c3.583-2.478,7.186-4.928,10.74-7.444c1.524-1.08,2.949-2.3,4.422-3.456
		c0.983,1.717,0.035,3.152-0.916,4.356c-2.284,2.889-5.06,5.243-8.423,6.853C71.311,228.683,69.371,228.803,67.498,227.413"/>
	<path fill="#F9FBFB" d="M62.182,266.007c0.004-0.031,0.024-0.836,0.243-1.583c0.813-2.803,3.464-5.351,5.449-5.321
		c3.301,0.046,6.275,2.124,7.321,5.113c0.979,2.8-0.177,6.154-2.795,7.925c-1.963,1.326-4.023,1.812-6.233,0.512
		C63.896,271.316,61.977,269.757,62.182,266.007"/>
	<path fill="#FAFCFC" d="M74.869,288.354c-0.297,1.21-0.512,2.446-0.906,3.624c-1.594,4.756-8.49,4.689-10.865,1.216
		c-2.006-2.937-1.025-9.036,2.191-10.539C69.623,280.628,74.989,283.161,74.869,288.354"/>
	<path fill="#E4E6E6" d="M77.496,214.498c-2.817,1.93-5.269,3.623-7.74,5.285c-0.519,0.35-1.411-0.075-1.419-0.674
		c-0.045-3.146-0.062-6.294-0.058-9.44c0-0.691,0.741-1.101,1.308-0.709C72.141,210.721,74.672,212.516,77.496,214.498"/>
	<path fill="#FFFEFE" d="M54.979,215.556c0,1.736,0.041,3.476-0.013,5.211c-0.048,1.507-0.539,1.872-2.073,1.871
		c-1.132,0-1.801-0.489-1.857-1.626c-0.08-1.576-0.102-3.155-0.129-4.733c-0.032-1.896-0.069-3.79-0.061-5.686
		c0.009-1.961,0.537-2.357,2.613-2.182c0.945,0.081,1.443,0.549,1.457,1.459c0.03,1.896,0.01,3.789,0.01,5.686H54.979z"/>
	<path fill="#140B0B" d="M71.895,266.683c0.096,1.926-1.313,3.589-3.038,3.586c-1.759-0.004-3.346-1.564-3.402-3.346
		c-0.055-1.722,1.277-2.75,3.698-2.852C70.748,264.003,71.812,265.016,71.895,266.683"/>
	<path fill="#1B1919" d="M69.082,292.454c-2.744-0.06-4.732-3.154-3.465-5.396c1.11-1.962,3.167-2.345,4.768-0.83
		c0.568,0.538,1.093,1.17,1.467,1.854C72.897,290.003,71.285,292.501,69.082,292.454"/>
</g>
</svg>
