<?xml version="1.0" encoding="utf-8"?>
<!-- Generator: Adobe Illustrator 16.0.0, SVG Export Plug-In . SVG Version: 6.00 Build 0)  -->
<!DOCTYPE svg PUBLIC "-//W3C//DTD SVG 1.1//EN" "http://www.w3.org/Graphics/SVG/1.1/DTD/svg11.dtd">
<svg version="1.1" id="Layer_1" xmlns="http://www.w3.org/2000/svg" xmlns:xlink="http://www.w3.org/1999/xlink" x="0px" y="0px"
	 width="119.979px" height="382.531px" viewBox="0 0 119.979 382.531" enable-background="new 0 0 119.979 382.531"
	 xml:space="preserve">
<g>
	<path fill="#FFFFFF" d="M90.48,160.162c1.279,0.067,2.538,0.087,3.786,0.206c4.551,0.429,6.921,2.397,8.194,6.77
		c0.135,0.458,0.188,0.94,0.29,1.407c0.226,1.02,0.784,1.707,1.856,1.94c0.936,0.202,1.924,0.324,2.773,0.725
		c3.153,1.483,4.997,4.088,5.233,7.49c0.298,4.297,0.357,8.628,0.228,12.935c-0.115,3.775-1.67,6.803-5.611,8.046
		c-2.096,0.662-3.294,1.932-3.993,4.196c-1.162,3.758-3.224,6.979-7.691,7.634c-0.864,0.127-1.245,0.911-1.257,1.803
		c-0.019,1.275,0.166,2.599-0.107,3.82c-0.851,3.812-0.066,6.93,2.477,10.077c2.824,3.496,3.934,7.954,5.009,12.329
		c2.893,11.785,3.05,23.744,2.317,35.74c-0.457,7.483-1.276,14.947-1.966,22.799c0.605,0.332,1.4,0.787,2.215,1.207
		c1.955,1.01,3.257,2.731,3.964,4.644c0.784,2.12,1.891,3.292,4.134,3.875c4.308,1.119,6.933,4.27,7.313,8.529
		c0.466,5.229,0.391,10.537,0.107,15.787c-0.213,3.965-3.463,5.887-6.564,7.629c-0.813,0.456-1.81,0.662-2.747,0.796
		c-1.078,0.155-1.604,0.754-2.136,1.642c-2.229,3.712-5.195,6.397-9.772,6.85c-1.28,0.126-1.873,1.327-1.391,2.448
		c0.312,0.722,0.732,1.417,1.206,2.047c1.796,2.387,2.452,5.22,2.885,8.044c0.479,3.135-0.722,5.953-2.525,8.511
		c-3.248,4.603-7.51,7.49-13.021,9.1c-10.285,3.004-20.705,3.768-31.306,3.143c-11.337-0.669-22.571-2.157-33.72-4.303
		c-4.874-0.939-9.698-2.098-13.991-4.706c-1.47-0.895-2.842-2.045-4.019-3.303c-2.34-2.499-3.021-5.604-2.47-8.912
		c0.444-2.668,0.897-5.371,2.293-7.769c0.667-1.144,0.89-2.306,0.78-3.651c-0.529-6.59,1.149-12.678,4.524-18.3
		c1.045-1.74,1.223-3.257,0.663-5.318c-1.209-4.454-2.255-9.018-2.712-13.601c-2.084-20.861-2.58-41.77-1.125-62.705
		c0.436-6.267,1.821-12.338,4.249-18.113c1.102-2.623,2.621-5.11,4.232-7.465c0.98-1.432,1.345-2.747,1.146-4.434
		c-0.586-4.961-0.302-9.873,0.926-14.745c0.824-3.274,1.793-6.483,3.611-9.337c1.179-1.849,1.44-3.771,1.436-5.903
		c-0.048-17.744-0.057-35.487-0.007-53.23c0.027-9.588,0.219-19.175,0.284-28.763c0.042-5.98,1.606-11.37,5.936-15.688
		c1.034-1.031,1.229-2.11,1.089-3.455c-0.115-1.127-0.646-1.804-1.714-1.958c-2.118-0.306-3.958-1.204-5.65-2.455
		c-5.591-4.132-6.902-11.775-2.936-17.48c3.646-5.245,7.391-10.422,11.058-15.653c6.144-8.763,12.22-17.574,18.4-26.31
		c4.612-6.519,9.448-12.881,13.992-19.446c3.4-4.913,8.128-6.004,13.483-4.971c5.35,1.032,8.433,4.684,10.159,9.767
		c1.258,3.698-0.171,6.886-1.313,10.174c-0.258,0.741-0.698,1.457-1.193,2.072c-2.042,2.54-2.559,4.986-1.077,8.227
		c1.079,2.359,1.291,5.305,1.203,7.967c-0.188,5.747,0.192,11.479,0.1,17.218c-0.051,3.196,0.044,6.395-0.028,9.59
		c-0.041,1.81,0.284,3.375,1.356,4.934c2.276,3.309,3.164,6.952,1.691,10.893c-0.411,1.096-0.327,2.132-0.012,3.257
		c0.554,1.988,1.141,3.976,0.343,6.111c-0.208,0.558,0.228,1.569,0.675,2.125c4.062,5.065,5.067,10.89,4.456,17.152
		c-0.078,0.791-0.237,1.593-0.174,2.374c0.812,9.901-0.004,19.79-0.158,29.683c-0.087,5.592-0.086,11.185-0.095,16.778
		C90.072,159.121,90.311,159.567,90.48,160.162"/>
	<path d="M60.919,378.05c-11.187-0.364-22.31-1.427-33.354-3.271c-2.834-0.472-5.704-0.86-8.461-1.63
		c-3.216-0.899-6.432-1.945-9.456-3.342c-3.965-1.831-5.097-4.27-4.354-8.521c0.327-1.868,0.664-3.872,1.595-5.464
		c1.11-1.896,1.505-3.639,1.268-5.812c-0.527-4.869,0.277-9.551,2.776-13.857c0.961-1.658,1.779-3.406,2.84-4.994
		c0.887-1.327,1.192-2.405,0.206-3.886c-1.725-2.59-2.097-5.693-2.525-8.672c-0.797-5.529-1.536-11.083-1.896-16.654
		c-0.833-12.915-1.268-25.854-0.83-38.794c0.21-6.211,0.772-12.429,1.568-18.594c0.424-3.287,1.564-6.506,2.598-9.687
		c1.095-3.371,2.843-6.447,5.306-9.019c1.253-1.31,1.363-2.544,1.08-4.293c-1.427-8.81-0.158-17.204,4.63-24.866
		c1.081-1.731,1.651-3.412,1.161-5.416c-0.111-0.457-0.085-0.954-0.082-1.432c0.077-19.332,0.155-38.663,0.245-57.995
		c0.035-7.19,0.105-14.379,0.153-21.569c0.007-0.958-0.066-1.918-0.031-2.875c0.193-5.377,1.895-10.028,6.543-13.187
		c1.208-0.82,1.793-1.586,0.989-3.138c-0.933-1.8-0.649-3.722,0.249-5.537c0.352-0.712,0.722-1.423,0.982-2.171
		c0.314-0.908-0.674-1.934-1.656-1.722c-0.777,0.166-1.521,0.503-2.297,0.669c-1.76,0.375-3.488,0.294-5.153-0.483
		c-5.121-2.39-6.56-7.096-3.797-11.907c0.95-1.654,2.197-3.139,3.301-4.707c12.229-17.377,24.451-34.759,36.692-52.128
		c1.288-1.827,2.6-3.651,4.055-5.343c2.426-2.821,6.186-3.457,9.582-1.784c3.453,1.703,5.616,5.572,4.823,9.03
		c-0.388,1.685-1.093,3.322-1.845,4.89c-0.615,1.287-1.372,2.563-2.312,3.628c-1.944,2.205-2.212,4.119-0.358,6.711
		c1.896,2.649,1.961,6.024,1.947,9.239c-0.016,3.669-0.205,7.338-0.195,11.006c0.015,5.911,0.148,11.821,0.19,17.732
		c0.011,1.633,0.191,3.044,1.492,4.331c2.43,2.403,2.632,5.441,1.362,8.433c-0.631,1.486-0.579,2.637-0.011,4.068
		c0.915,2.299,0.92,4.688-0.167,6.979c-0.48,1.013-0.363,1.792,0.56,2.485c4.934,3.706,5.703,8.944,5.323,14.591
		c-0.075,1.113-0.296,2.221-0.302,3.333c-0.103,16.135-0.182,32.271-0.262,48.407c-0.005,0.958,0.014,1.916,0.045,2.874
		c0.038,1.166,0.69,1.683,1.823,1.68c1.599-0.003,3.199-0.049,4.794,0.027c1.104,0.052,2.24,0.147,3.289,0.463
		c1.442,0.434,2.513,1.369,2.795,2.977c0.083,0.47,0.185,0.946,0.35,1.393c0.596,1.625-0.348,3.92,1.248,4.895
		c1.208,0.738,3.077,0.372,4.647,0.548c1.602,0.178,2.647,1.217,3.159,2.607c0.431,1.171,0.615,2.479,0.663,3.733
		c0.112,2.873-0.059,5.76,0.13,8.625c0.189,2.877-1.022,4.544-3.726,5.273c-0.15,0.041-0.276,0.171-0.427,0.214
		c-1.35,0.387-3.133,0.374-3.935,1.255c-0.813,0.894-0.477,2.738-0.976,4.039c-0.62,1.615-1.471,3.173-2.43,4.617
		c-0.652,0.981-1.878,1.051-3.03,1.126c-1.396,0.091-2.781,0.335-4.169,0.513c-0.019,1.394-0.217,2.815-0.021,4.179
		c0.535,3.711-0.01,7.341-0.676,10.949c-0.251,1.362-0.358,2.407,0.789,3.433c3.846,3.441,5.778,8.004,7.053,12.838
		c1.799,6.812,2.882,13.743,2.955,20.813c0.139,12.958-0.66,25.854-2.593,38.671c-0.095,0.632-0.15,1.271-0.233,1.904
		c-0.295,2.229-0.16,2.799,2.345,2.952c3.397,0.206,4.738,1.538,5.518,4.841c0.11,0.464,0.108,0.954,0.207,1.422
		c0.425,2.04,0.432,2.041,2.353,2.362c0.943,0.158,1.899,0.263,2.833,0.471c3.253,0.724,4.96,2.591,5.101,5.974
		c0.166,3.989,0.173,7.988,0.114,11.982c-0.037,2.544-2.493,5.031-5.133,5.454c-0.313,0.05-0.644,0.096-0.954,0.056
		c-2.815-0.366-4.707,0.437-4.719,3.666c-1.8,2.397-3.344,5.033-7.024,4.884c-1.672-0.066-3.906-0.909-4.937,0.641
		c-0.727,1.095-0.17,3.048-0.175,4.617c-0.003,0.799,0.061,1.6,0.02,2.395c-0.076,1.502,0.229,2.753,1.472,3.819
		c2.111,1.812,2.456,4.424,2.577,6.989c0.051,1.07-0.163,2.332-0.717,3.22c-1.951,3.124-4.099,6.171-7.78,7.48
		c-2.552,0.908-5.145,1.758-7.781,2.365C73.689,377.507,67.359,378.329,60.919,378.05"/>
	<path fill="#FFFFFF" d="M80.035,190.815c-6.25-6.52-13.398-9.786-21.537-11.221c-0.086-1.302-0.186-2.39-0.227-3.479
		c-0.964-25.551-0.479-51.115-0.65-76.673c-0.004-0.638-0.111-1.33,0.099-1.898c0.183-0.491,0.746-1.198,1.144-1.199
		c4.924-0.022,9.861-0.597,14.728,0.899c4.018,1.236,6.207,3.765,6.477,7.912c0.176,2.708,0.264,5.425,0.283,8.139
		c0.128,17.091,0.268,34.183,0.316,51.275c0.022,7.986-0.144,15.974-0.238,23.96C80.424,188.969,80.283,189.406,80.035,190.815"/>
	<path fill="#FFFFFF" d="M53.779,179.184c-10.021,1.235-10.507,1.413-22.745,8.249c-0.726-1.146-0.389-2.425-0.394-3.594
		c-0.078-23.631-0.125-47.261-0.19-70.892c-0.006-2.234-0.064-4.47-0.144-6.703c-0.149-4.209,2.22-6.884,5.581-8.766
		c1.641-0.918,3.517-1.422,5.509-1.368c3.512,0.096,7.027,0.027,10.541,0.075c2.516,0.034,2.599,0.093,2.586,2.787
		c-0.112,24.747-0.239,49.494-0.39,74.24C54.123,175.12,53.913,177.027,53.779,179.184"/>
	<path fill="#FF9900" d="M75.464,195.969c15.461,15.841,8.229,42.563-13.031,48.706c-12.172,3.518-25.035-0.843-32.388-10.814
		c-0.368-0.499-0.572-1.12-0.853-1.684c-2.741-7.457-2.827-14.92-0.12-22.416c6.434-17.803,23.361-24.963,40.604-17.11
		C71.695,193.57,73.717,194.544,75.464,195.969"/>
	<path fill="#CCCCCC" d="M59.083,308.181c-1.589-0.056-3.177-0.141-4.767-0.157c-2.389-0.026-4.787-0.118-7.169,0.03
		c-2.213,0.138-4.409,0.554-6.827,0.876c-0.179-0.932-0.453-1.829-0.509-2.741c-0.142-2.384-0.263-4.775-0.264-7.162
		c-0.006-15.454,0.022-30.909,0.042-46.363c0.001-0.956-0.007-1.913,0.032-2.867c0.085-2.1,0.34-2.333,2.239-1.686
		c4.104,1.395,8.298,2.299,12.641,2.195c2.212-0.054,4.417-0.4,6.626-0.614c2.099,8.776,1.792,17.718,1.238,26.575
		c-0.555,8.879-0.918,17.772-1.667,26.641C60.54,304.782,60.806,306.784,59.083,308.181"/>
	<path fill="#FE9801" d="M65.541,28.336L45.224,57.847c-3.614,5.249-7.287,10.459-10.813,15.766
		c-1.357,2.042-3.169,3.049-5.491,3.316c-1.156,0.133-2.228-0.149-3.045-1.045c-0.546-0.597-1.054-1.25-0.521-2.099
		c0.847-1.349,1.707-2.69,2.605-4.004c10.162-14.862,20.328-29.72,30.504-44.572c2.692-3.931,5.423-7.837,8.136-11.754
		c3.092,1.176,2.382,3.67,2.025,5.988C68.139,22.587,66.068,25.197,65.541,28.336"/>
	<path fill="#CBCCCC" d="M86.146,367.575c-4.965,2.341-10.312,3.145-15.677,3.839c-7.498,0.971-14.998,0.294-22.467-0.291
		c-8.589-0.673-17.154-1.735-25.58-3.603c-3.248-0.72-6.429-1.818-9.561-2.965c-2.077-0.759-2.148-1.174-1.803-3.252
		c0.104-0.628,0.193-1.265,0.363-1.878c0.373-1.361,1.162-1.812,2.494-1.386c1.519,0.484,2.987,1.141,4.525,1.545
		c5.716,1.501,11.493,2.76,17.395,3.178c6.525,0.464,13.061,0.865,19.597,0.996c3.489,0.07,6.991-0.512,10.491-0.748
		c1.582-0.108,3.175-0.088,4.763-0.126c0.567,0.247-0.783,1.151,0.248,1.042c3.263-0.343,6.525-0.941,9.775-0.141
		C82.961,364.34,85.383,364.813,86.146,367.575"/>
	<path fill="#FCFDFC" d="M75.464,195.969c-2.253-0.781-4.543-1.471-6.749-2.363c-5.121-2.075-10.397-2.988-15.924-2.644
		c-2.275,0.143-4.414,0.641-6.475,1.554c-6.688,2.962-11.632,7.64-14.805,14.322c-3.368,7.097-3.609,14.459-2.643,22.023
		c0.141,1.1,0.219,2.21,0.323,3.316c-10.548-14.498-4.286-39.505,17.8-44.985c10.197-2.531,19.217,0.122,27.087,6.928
		C74.647,194.613,75.007,195.347,75.464,195.969"/>
	<path fill="#FBFCFC" d="M18.613,324.954c4.584-5.317,9.666-8.184,15.354-9.985c7.216-2.286,14.563-3.308,22.187-2.392
		c3.976,0.479,7.923,0.895,11.71,2.215c5.189,1.809,9.793,4.532,13.901,9.353C60.54,318.156,40.003,317.315,18.613,324.954"/>
	<path fill="#FBFCFC" d="M23.018,327.896c12.166-7.18,50.82-5.52,58.721,1.632C71.703,332.458,35.412,331.449,23.018,327.896"/>
	<path fill="#FCFCFC" d="M88.964,269.809c-2.578-0.522-4.87-0.986-7.202-1.459c0.163-1.048,0.898-0.88,1.36-0.89
		c2.71-0.056,5.422-0.083,8.131-0.034c1.813,0.033,2.165,0.434,2.08,2.372c-0.207,4.776-0.339,9.562-0.75,14.321
		c-1.031,11.912-2.889,23.714-4.981,35.48c-0.223,1.251-0.46,2.497-0.738,3.997c-1.912-0.809-2.885-2.479-4.133-3.787
		c-0.363-0.381-0.388-1.17-0.398-1.774c-0.013-0.626,0.145-1.265,0.291-1.883c2.696-11.337,3.994-22.896,5.528-34.419
		C88.656,277.942,89.13,274.172,88.964,269.809"/>
	<path fill="#FCFDFD" d="M80.075,263.228c-3.503,0-7.007,0.012-10.51-0.007c-0.862-0.005-1.483-0.327-1.579-1.339
		c-0.183-1.928,0.127-2.938,1.267-3.164c1.553-0.307,3.144-0.439,4.718-0.639c3.313-0.419,6.651-0.69,9.929-1.293
		c2.421-0.447,3.404-0.983,3.372-4.18c-0.055-5.49-1.089-10.754-2.818-15.901c-0.625-1.859-0.371-3.404,0.765-4.914
		c0.423-0.563,1.227-0.719,1.531-0.154c1.052,1.949,2.275,3.853,3.001,5.923c2.658,7.582,3.571,15.474,3.701,23.468
		c0.023,1.549-0.416,2.085-1.912,2.11c-3.82,0.069-7.643,0.024-11.464,0.024V263.228z"/>
	<path fill="#F7F9F9" d="M64.044,345.488c-2.631-4.724-6.936-7.005-12.044-7.608c-7.433-0.878-14.909-1.371-22.363-2.07
		c-2.925-0.273-5.277,0.847-7.355,2.757c-2.141,1.972-3.752,4.342-5.036,6.921c-0.915,1.835-1.657,3.757-2.47,5.623
		c-0.966-2.521-1.294-5.638-0.236-8.322c1.395-3.543,3.153-6.944,4.799-10.387c0.469-0.98,1.306-1.244,2.394-1.012
		c10.649,2.278,21.495,2.603,32.31,3.24c1.113,0.065,2.242,0.254,3.341,0.148c2.255-0.221,3.66,0.919,4.578,2.737
		c1.144,2.267,2.133,4.609,3.188,6.918C65.377,345.411,64.947,345.697,64.044,345.488"/>
	<path fill="#FDFDFD" d="M59.083,308.181c0.062-2.221,0.121-4.438,0.186-6.657c0.077-2.685,0.146-5.333,0.65-8.021
		c0.52-2.766,0.22-5.685,0.308-8.537c0.078-2.521-0.161-5.056,0.674-7.542c0.341-1.013,0.215-2.197,0.221-3.305
		c0.021-4.282,0.074-8.564-0.021-12.844c-0.042-1.878-0.386-3.753-0.646-5.621c-0.287-2.053-0.626-4.097,0.675-5.963
		c0.461-0.122,0.916-0.295,1.386-0.36c1.479-0.204,1.784,0.017,1.847,1.295c0.032,0.638,0.019,1.277,0.015,1.914
		c-0.122,17.545-0.244,35.091-0.373,52.636c-0.007,0.956-0.022,1.917-0.13,2.864c-0.131,1.149-0.986,0.97-1.773,0.847
		c-0.836-0.678-1.962-0.123-2.829-0.668L59.083,308.181z"/>
	<path fill="#FAFAFA" d="M72.089,358.772c-0.929-4.271-1.595-8.361-2.743-12.313c-1.092-3.763-2.688-7.38-4.18-11.381
		c1.651-0.034,3.195-0.011,4.731-0.106c3.659-0.224,7.315-0.502,10.972-0.762c1.284-0.091,1.947,0.462,2.244,1.904
		c0.148,0.719-0.112,1.354-0.821,1.439c-2.08,0.25-4.093,0.646-5.914,1.747c-2.073,1.256-2.427,1.909-1.616,4.292
		c1.398,4.122,1.882,8.394,2.338,12.678c0.093,0.886-0.24,1.585-1.161,1.789C74.73,358.33,73.503,358.515,72.089,358.772"/>
	<path fill="#CBC9C9" d="M72.678,91.171c-10.521,0.034-21.04,0.067-31.561,0.101c-0.317,0.001-0.638,0.012-0.956-0.007
		c-1.653-0.101-2.82-1.118-2.896-2.515c-0.086-1.566,1.146-2.988,2.88-3.184c1.579-0.179,3.172-0.338,4.758-0.34
		c7.493-0.009,14.987,0.035,22.48,0.077c0.47,0.002,0.938,0.143,1.407,0.22c0.291,4.733-3.009,3.967-5.402,4.273
		c1.097,0.559,2.664-0.335,4.242-0.458C69.573,89.188,71.78,88.409,72.678,91.171"/>
	<path fill="#FAFAFA" d="M67.786,59.929c0.105-6.556-0.439-13.078-1.608-19.51c-0.647-3.564,1.368-5.639,3.364-7.872
		c0.084-0.095,0.976,0.225,1.034,0.462c0.404,1.693,0.932,3.408,0.977,5.127c0.229,8.918,0.329,17.839,0.469,26.759
		c0.015,0.956,0.028,1.914-0.014,2.869c-0.075,1.69-1.811,2.696-3.366,1.849c-0.437-0.238-0.802-1.013-0.817-1.553
		C67.741,65.353,67.786,62.639,67.786,59.929"/>
	<path fill="#B7BABA" d="M68.865,79.96c-3.63,0.162-7.258,0.397-10.889,0.47c-5.87,0.118-11.742,0.115-17.613,0.194
		c-1.895,0.025-2.608-0.771-2.205-2.602c0.494-2.247,1.363-2.996,3.527-2.992c10.321,0.02,20.643,0.048,30.964,0.073
		c-1.634,3.181-4.998,2.788-7.716,3.547c-1.78,0.498-3.727,0.643-5.199,0.733C62.495,79.716,65.815,77.253,68.865,79.96"/>
	<path fill="#F2F3F3" d="M21.542,295.427c-1.67-4.12-2.073-7.987-1.742-11.999c0.815-9.886,1.995-19.701,4.964-29.216
		c0.379-1.215,0.786-2.44,1.376-3.558c0.231-0.437,1.046-0.854,1.518-0.782c0.372,0.059,0.891,0.892,0.874,1.363
		c-0.034,0.934-0.373,1.863-0.621,2.785c-2.832,10.526-4.321,21.262-5.112,32.119C22.58,289.133,22.002,292.1,21.542,295.427"/>
	<path fill="#E9E9E9" d="M15.071,265.411c-0.393-7.062-0.458-14.1,0.941-21.017c0.824-4.063,1.884-8.079,3.988-11.716
		c0.392-0.678,0.896-1.306,1.425-1.885c0.16-0.173,0.7-0.252,0.871-0.12c1.363,1.047,1.908,3.639,1.246,5.068
		c-0.866,1.864-1.861,3.719-2.38,5.688c-1.783,6.778-3.376,13.607-5.06,20.413C15.805,263.044,15.417,264.223,15.071,265.411"/>
	<path fill="#FB9806" d="M97.611,338.483c-1.103,0.062-2.206,0.191-3.307,0.176c-4.455-0.067-3.752,0.624-5.56-4.06
		c-0.512-1.322-0.619-2.39,0.248-3.516c0.19-0.247,0.312-0.547,0.473-0.819c2.531-4.231,2.531-4.231,7.834-3.888
		C100.343,330.337,98.609,334.42,97.611,338.483"/>
	<path fill="#F6F9F9" d="M86.146,367.575c-2.693-2.228-5.812-3.036-9.268-2.927c-2.938,0.095-5.882,0.021-9.629,0.021
		c1.662-0.863,2.55-1.323,3.439-1.785c3.748-0.686,7.504-1.337,11.243-2.075c1.552-0.306,3.108-0.686,4.585-1.241
		c0.896-0.337,1.597-0.896,2.585-0.175c0.97,0.707,1.719,1.571,1.618,2.738c-0.106,1.224-0.372,2.52-0.927,3.601
		C89.09,367.102,87.643,367.508,86.146,367.575"/>
	<path fill="#F8F8F6" d="M65.541,28.336c-0.126-0.736-0.506-1.539-0.331-2.194c0.536-1.999,1.185-3.981,1.977-5.893
		c0.998-2.412,0.97-4.647-0.589-6.794c0.236-0.585,0.351-1.269,0.731-1.736c1.64-2.012,3.776-2.487,5.391-1.295
		c2.115,1.563,2.604,4.132,1.12,6.242C71.095,20.57,68.31,24.447,65.541,28.336"/>
	<path fill="#DD8C0D" d="M105.231,323.305c0-1.27,0.039-2.539-0.008-3.807c-0.1-2.676,0.515-3.229,3.53-2.3
		c0.48,0.147,1.114,0.848,1.123,1.305c0.071,3.483,0.047,6.972-0.074,10.452c-0.016,0.422-0.756,1.113-1.226,1.175
		c-2.735,0.362-3.287-0.071-3.207-2.546c0.046-1.425,0.007-2.853,0.007-4.279H105.231z"/>
	<path fill="#EC910A" d="M95.205,190.487c-2.968,1.231-5.907,0.17-8.841-0.188c-0.419-0.051-1.038-0.844-1.065-1.322
		c-0.126-2.214-0.142-4.439-0.033-6.654c0.021-0.417,0.738-1.065,1.211-1.146c1.396-0.23,2.831-0.23,4.249-0.321
		c0.918,0.52,1.333,1.448,1.259,2.354C91.734,186.26,93.239,188.459,95.205,190.487"/>
	<path fill="#EC951B" d="M99.964,321.692c-1.968,1.01-4.039,0.449-6.06,0.299c-0.321-0.025-0.887-0.977-0.816-1.413
		c0.586-3.616,1.261-7.222,2.025-10.803c0.066-0.308,0.985-0.433,1.508-0.642C99.627,312.817,97.943,317.747,99.964,321.692"/>
	<path fill="#F9FBFB" d="M68.865,79.96c-3.154-0.188-6.31-0.377-10.042-0.6c1.806-0.574,3.112-0.989,4.42-1.406
		c1.36-0.434,2.7-0.947,4.084-1.284c1.379-0.336,2.809-0.452,4.195-0.765c0.415-0.094,0.755-0.526,1.128-0.802
		c1.289-0.699,2.026-0.086,2.515,1.074c0.558,1.333,0.445,2.301-0.488,2.913c-0.625,0.411-1.366,0.79-2.091,0.869
		C71.36,80.09,70.107,79.973,68.865,79.96"/>
	<path fill="#EBEDED" d="M48.599,347.513c0.257-0.491,0.758-1.631,1.417-2.67c1.018-1.605,2.568-1.681,3.854-0.272
		c1.569,1.714,1.808,3.695,0.678,5.627c-0.912,1.559-2.505,2.299-3.934,1.828C49.12,351.533,48.324,350.091,48.599,347.513"/>
	<path fill="#FFFBF5" d="M95.205,190.487c-4.225-0.344-4.254,0.613-4.237-4.513c0.006-1.707-0.155-3.414-0.241-5.12
		c5.25-1.029,4.854,0.025,4.865,4.006C95.597,186.735,95.343,188.612,95.205,190.487"/>
	<path fill="#F6F9F9" d="M72.678,91.171c-0.823-0.981-1.962-0.883-3.066-0.891c-2.451-0.018-4.901-0.031-7.346-0.204
		c4.716-1.393,4.716-1.393,6.527-4.553c1.396-0.089,2.796-0.266,4.191-0.245c1.543,0.024,2.613,1.249,2.436,2.776
		C75.231,89.672,74.758,91.161,72.678,91.171"/>
	<path fill="#E2E6E5" d="M99.964,321.692c-2.328-0.587-2.319-0.587-2.447-2.104c-0.294-3.485-0.597-6.97-0.896-10.455
		c0.629-0.06,1.292-0.269,1.879-0.138c0.514,0.114,1.307,0.564,1.354,0.942C100.333,313.846,101.021,317.767,99.964,321.692"/>
	<path fill="#F49606" d="M91.157,201.527c-1.355,0.152-2.896,1.196-4.021,0.068c-1.213-1.214-1.828-2.91-1.896-4.729
		c-0.057-1.501,0.392-2.17,1.763-2.144c1.257,0.026,2.511,0.199,3.767,0.308C92.616,197.093,92.538,199.271,91.157,201.527"/>
	<path fill="#F79909" d="M91.154,176.539c-0.313,0.061-0.62,0.158-0.935,0.177c-5.643,0.338-5.788,0.161-4.612-5.9
		c1.663,0.079,3.373,0.16,5.083,0.241C92.454,172.748,92.397,174.594,91.154,176.539"/>
	<path fill="#DF8C0E" d="M99.493,185.824c0-1.263-0.104-2.538,0.056-3.779c0.057-0.442,0.698-1.022,1.175-1.148
		c0.834-0.219,1.649,0.182,1.673,1.148c0.066,2.522,0.043,5.05-0.015,7.575c-0.021,0.88-0.86,1.523-1.602,1.213
		c-0.477-0.199-1.059-0.764-1.115-1.225c-0.154-1.244-0.054-2.521-0.054-3.784H99.493z"/>
	<path fill="#E5E2E0" d="M97.611,338.483c-0.09-2.016-0.211-4.028-0.264-6.045c-0.051-2.02-0.033-4.042-0.047-6.062
		c0.758-0.039,1.687-0.359,2.223-0.034c0.498,0.303,0.847,1.316,0.794,1.979c-0.235,2.976-0.6,5.944-1.004,8.903
		C99.197,338.078,98.529,338.537,97.611,338.483"/>
	<path fill="#ECE9E1" d="M91.157,201.527c-0.129-2.166-0.258-4.332-0.388-6.497c1.088-0.085,2.177-0.24,3.261-0.207
		c0.288,0.009,0.789,0.591,0.796,0.917c0.021,1.094-0.083,2.197-0.236,3.285C94.245,201.463,94.22,201.46,91.157,201.527"/>
	<path fill="#EDEBE6" d="M91.154,176.539c-0.154-1.827-0.31-3.655-0.463-5.482c0.62-0.104,1.236-0.266,1.861-0.301
		c1.063-0.06,1.864,0.325,2.021,1.506c0.103,0.787,0.207,1.577,0.255,2.369c0.108,1.775-0.086,1.948-2.249,2.012
		C92.105,176.657,91.629,176.576,91.154,176.539"/>
	<path fill="#FFFFFF" d="M64.044,345.488c0.368-0.353,0.735-0.702,1.104-1.055c1.993,2.507,1.641,5.679,2.571,8.326
		c-0.229,0.307-0.306,0.412-0.384,0.517c-0.125-0.101-0.313-0.175-0.364-0.304C65.984,350.481,65.017,347.983,64.044,345.488"/>
	<path fill="#FFFFFF" d="M59.271,308.219c1.094-0.418,2.068-0.331,2.828,0.667C61.062,309.064,60.051,309.133,59.271,308.219"/>
	<path fill="#090909" d="M36.748,125.388c-0.621-1.029-1.199-1.608-1.339-2.279c-1.266-6.078-0.71-12.008,1.675-17.748
		c0.623-1.499,1.515-2.833,3.107-3.436c0.907-0.344,1.894-0.415,2.62,0.455c0.58,0.694,0.575,1.559,0.101,2.22
		c-2.815,3.922-3.301,8.517-3.944,13.084c-0.222,1.571-0.556,3.133-0.958,4.667C37.775,123.244,37.306,124.075,36.748,125.388"/>
	<path fill="#1D1717" d="M41.511,111.681c0.084-0.397,0.173-1.194,0.434-1.93c0.286-0.808,0.999-1.403,1.819-1.146
		c0.65,0.204,1.371,0.8,1.65,1.41c0.303,0.657,0.258,1.554,0.135,2.309c-0.237,1.458-1.369,2.753-2.229,2.772
		C42.452,115.115,41.561,113.617,41.511,111.681"/>
	<path fill="#040302" d="M42.736,226.243c-1.205-0.969-1.671-2.247-1.665-3.767c0.019-4.754-0.011-9.507,0.034-14.261
		c0.007-0.774,0.242-1.562,0.467-2.313c0.396-1.327,1.277-2.277,2.698-2.304c4.436-0.081,8.88-0.21,13.304,0.019
		c1.257,0.063,2.454,1.279,3.679,1.968c2.532,5.686,1.342,11.594,0.976,17.437c-0.081,1.304-0.874,2.571-2.094,3.045
		C54.382,228.308,48.566,229.496,42.736,226.243"/>
	<path fill="#F9F9F5" d="M42.736,226.243c3.661,0.05,7.327,0.218,10.982,0.104c2.029-0.063,4.069-0.49,6.045-0.983
		c0.604-0.149,1.281-1.003,1.449-1.655c0.271-1.054,0.19-2.207,0.183-3.319c-0.032-4.934-0.093-9.87-0.142-14.804
		c1.78,0.387,2.658,1.723,3.178,3.267c1.61,4.782,2.041,9.645,0.651,14.567c-0.847,2.993-2.829,4.895-5.752,5.899
		c-3.705,1.274-7.521,1.568-11.324,0.866C45.743,229.768,43.121,229.374,42.736,226.243"/>
	<path fill="#0C0700" d="M76.135,220.263c-0.512,1.895-0.891,3.933-1.613,5.839c-1.242,3.271-2.997,6.297-5.24,9.001
		c-0.8,0.967-1.716,1.867-2.705,2.639c-0.775,0.606-1.746,0.704-2.645,0.063c-0.669-0.477-0.504-1.306,0.427-2.444
		c1.399-1.714,2.892-3.37,4.128-5.197c2.062-3.044,3.519-6.37,3.999-10.069c0.1-0.771,0.21-1.604,0.581-2.259
		c0.245-0.431,0.944-0.745,1.481-0.817c0.3-0.041,0.844,0.448,0.994,0.815C75.833,218.544,75.923,219.337,76.135,220.263"/>
	<path fill="#180F00" d="M75.113,210.65c-0.165,0.509-0.297,1.133-0.564,1.69c-0.61,1.271-3.002,1.485-3.586,0.226
		c-0.509-1.098-0.727-2.396-0.771-3.617c-0.041-1.117,1.135-2.132,2.143-2.21c0.973-0.076,2.12,0.806,2.416,1.918
		C74.913,209.266,74.98,209.9,75.113,210.65"/>
	<path fill="#F9FBFB" d="M58.249,266.263c0.057,3.749-3.06,7.032-6.845,7.217c-3.254,0.157-6.475-3.295-6.6-6.787
		c-0.115-3.173,2.432-7.205,7.112-7.56C54.864,258.91,58.195,262.723,58.249,266.263"/>
	<path fill="#FAFBFB" d="M52.304,295.657c-3.847-0.003-5.972-1.885-7.028-6.019c-0.605-2.368,1.147-5.871,3.745-7.037
		c1.788-0.801,3.7-0.701,5.55,0.069c1.774,0.737,2.651,1.985,2.961,3.936c0.293,1.861,1.103,3.574,0.133,5.523
		C56.481,294.511,54.855,295.931,52.304,295.657"/>
	<path fill="#F9FCFC" d="M45.6,214.11c0.312-1.396-0.816-3.488,0.453-5.384c1.875-0.105,3.75-0.233,5.627-0.31
		c1.107-0.044,2.221-0.034,3.329,0.001c1.963,0.06,2.129,0.207,2.151,2.257c0.03,2.854-0.017,5.706-0.015,8.56
		c0.002,1.113-0.438,1.809-1.633,1.809c-2.694-0.002-5.391,0.004-8.085-0.04c-1.555-0.027-1.77-0.282-1.819-2.04
		C45.567,217.538,45.6,216.11,45.6,214.11"/>
	<path fill="#180E0E" d="M51.366,264.135c2.438,0.237,3.52,1.275,3.292,3.163c-0.223,1.851-1.942,3.246-3.656,2.97
		c-1.795-0.29-2.994-2.002-2.707-3.864C48.539,264.823,49.693,263.972,51.366,264.135"/>
	<path fill="#161313" d="M54.959,288.438c0.098,1.954-1.87,4.022-3.864,4.062c-1.415,0.026-3.175-1.644-3.163-3.001
		c0.014-1.721,2.362-4.201,3.947-4.171C53.327,285.354,54.883,286.924,54.959,288.438"/>
</g>
</svg>
