<?xml version="1.0" encoding="utf-8"?>
<!-- Generator: Adobe Illustrator 16.0.0, SVG Export Plug-In . SVG Version: 6.00 Build 0)  -->
<!DOCTYPE svg PUBLIC "-//W3C//DTD SVG 1.1//EN" "http://www.w3.org/Graphics/SVG/1.1/DTD/svg11.dtd">
<svg version="1.1" id="Ebene_1" xmlns="http://www.w3.org/2000/svg" xmlns:xlink="http://www.w3.org/1999/xlink" x="0px" y="0px"
	 width="324.942px" height="76.857px" viewBox="0 357.574 324.942 76.857" enable-background="new 0 357.574 324.942 76.857"
	 xml:space="preserve">
<title>simpleshow_interactive_RGB</title>
<path d="M321.421,412.898c0.526,0.003,1.044,0.139,1.504,0.396c0.479,0.262,0.872,0.655,1.134,1.135c0.547,0.946,0.547,2.113,0,3.06
	c-0.263,0.479-0.656,0.872-1.134,1.135c-0.944,0.539-2.104,0.539-3.048,0c-0.478-0.263-0.871-0.656-1.134-1.135
	c-0.547-0.946-0.547-2.113,0-3.06c0.262-0.479,0.655-0.873,1.134-1.135C320.349,413.031,320.881,412.895,321.421,412.898z
	 M321.421,413.492c-0.425,0-0.843,0.109-1.214,0.316c-0.385,0.21-0.7,0.525-0.91,0.91c-0.44,0.763-0.44,1.703,0,2.467
	c0.212,0.383,0.527,0.698,0.91,0.91c0.755,0.436,1.686,0.436,2.44,0c0.382-0.213,0.697-0.528,0.91-0.91
	c0.443-0.763,0.443-1.704,0-2.467c-0.21-0.384-0.526-0.7-0.91-0.91c-0.371-0.207-0.789-0.315-1.214-0.316H321.421z M320.102,417.581
	v-3.284h1.688c0.179,0.008,0.354,0.053,0.515,0.132c0.128,0.076,0.232,0.186,0.304,0.316c0.08,0.141,0.121,0.3,0.118,0.462
	c0.008,0.224-0.073,0.441-0.225,0.606c-0.173,0.174-0.401,0.281-0.646,0.304c0.08,0.027,0.156,0.067,0.224,0.118
	c0.083,0.076,0.158,0.16,0.225,0.251l0.237,0.396l0.383,0.659h-0.818l-0.276-0.527c-0.108-0.249-0.26-0.478-0.449-0.673
	c-0.135-0.094-0.297-0.141-0.462-0.132h-0.171v1.319L320.102,417.581z M320.761,415.734h0.265c0.236,0.025,0.476,0.025,0.712,0
	c0.091-0.025,0.17-0.081,0.225-0.158c0.053-0.072,0.081-0.161,0.079-0.251c0-0.086-0.028-0.169-0.079-0.237
	c-0.056-0.076-0.135-0.132-0.225-0.158c-0.236-0.027-0.476-0.027-0.712,0h-0.265V415.734z"/>
<path d="M26.225,382.149c-0.185,1.767-0.866,3.446-1.966,4.841c-2.472-1.164-5.184-1.724-7.915-1.636
	c-2.916,0-4.287,0.91-4.274,2.44c0,0.884,0.382,1.768,2.638,3.958l6.912,6.714c3.681,3.667,4.617,6.002,4.644,10.013
	c0,7.241-5.923,11.621-15.223,11.688c-5.844,0-10.685-1.043-10.711-3.786c0.02-2.091,0.569-4.143,1.596-5.963
	c2.482,1.141,5.184,1.727,7.915,1.715c3.456,0,4.643-1.398,4.63-3.166c0.05-1.785-0.688-3.503-2.018-4.695l-7.994-8.061
	C1.412,393.19,0,390.051,0,387.399c0-5.87,3.654-9.683,13.336-9.749C25.182,377.572,26.211,380.131,26.225,382.149z"/>
<path d="M36.619,358.998c3.733,0,4.841,1.491,4.881,5.844c0.04,4.354-1.86,6.926-5.408,6.952c-3.008,0-4.934-1.412-4.986-6.477
	C31.079,361.61,32.781,359.024,36.619,358.998z M41.896,417.172c0,1.609-0.08,1.609-10.382,1.688l-0.264-36.223
	c0-3.958,1.965-3.958,10.355-3.958L41.896,417.172z"/>
<path d="M48.558,379.999c4.434-1.875,9.208-2.813,14.022-2.757c2.627-0.174,5.236,0.546,7.4,2.045
	c2.964-1.3,6.145-2.034,9.379-2.164c10.856-0.079,11.872,3.456,11.978,14.22l0.211,25.5c0,1.609,0.475,1.609-10.197,1.675
	l-0.224-27.359c0-4.577-0.501-6.187-3.061-6.173c-1.121,0.016-2.195,0.454-3.007,1.227l0.25,30.723
	c0,1.609,0.461,1.609-10.197,1.688l-0.225-27.333c0-4.182,0-6.358-2.638-6.345c-1.256,0.013-2.473,0.444-3.456,1.227l0.25,30.881
	c0,1.609,0.198,1.609-10.197,1.675L48.558,379.999z"/>
<path d="M97.814,380.104c4.167-2.146,8.781-3.281,13.468-3.311c8.667,0,14.708,3.509,14.814,16.7
	c0.185,21.542-6.596,26.106-11.727,26.132c-2.136,0.122-4.252-0.457-6.028-1.649l0.132,15.685c-1.989,0.546-4.046,0.804-6.108,0.766
	c-3.654,0-4.116-0.778-4.142-3.958L97.814,380.104z M108.275,410.102c0.424,0.995,1.461,1.584,2.533,1.438
	c1.913,0,3.957-2.123,3.786-17.399c-0.079-8.522-1.174-9.564-3.958-9.538c-0.971,0.082-1.877,0.519-2.546,1.227L108.275,410.102z"/>
<path d="M142.467,416.446c0,1.609,0,1.609-10.197,1.676l-0.488-55.153c0-3.958,1.886-3.958,10.184-3.958L142.467,416.446z"/>
<path d="M175.88,389.919c0.103,3.842-0.292,7.683-1.174,11.424c-5.24,0.802-10.529,1.243-15.83,1.319
	c0.33,6.503,1.424,7.703,4.986,7.677c3.706,0.004,7.368-0.792,10.738-2.335c0.613,2.593,0.91,5.251,0.884,7.915
	c0,1.319-5.804,3.1-12.928,3.152c-8.297,0-14.154-2.875-14.299-19.272c-0.158-20.104,7.295-23.282,15.83-23.349
	C171.396,376.437,175.801,380.592,175.88,389.919z M158.731,395.591c2.274,0.087,4.547-0.175,6.741-0.778
	c0.337-1.367,0.479-2.775,0.422-4.182c0-5.145-0.871-6.345-3.153-6.332c-2.783,0.013-3.746,3.892-3.958,11.292H158.731z"/>
<path d="M207.5,380.315c-0.197,1.816-0.912,3.538-2.058,4.96c-2.489-1.192-5.222-1.784-7.981-1.728
	c-2.981,0-4.366,0.897-4.366,2.454c0,0.897,0.369,1.807,2.638,4.103l6.859,6.886c3.72,3.772,4.644,6.147,4.63,10.25
	c0,7.374-6.161,11.779-15.632,11.767c-5.949,0-10.87-1.161-10.856-3.957c0.038-2.13,0.619-4.214,1.688-6.056
	c2.528,1.184,5.282,1.805,8.073,1.82c3.535,0,4.735-1.385,4.749-3.191c0.079-1.837-0.666-3.611-2.031-4.842l-8.047-8.271
	c-3.06-3.113-4.445-6.318-4.445-9.01c0-5.976,3.826-9.828,13.679-9.801C206.471,375.646,207.5,378.271,207.5,380.315z"/>
<path d="M212.631,361.531c0-3.957,1.874-3.957,10.408-3.957v20.961c2.545-1.911,5.656-2.915,8.838-2.849
	c7.149,0,8.535,2.229,8.521,16.146v24.325c0,1.636,0.554,1.636-10.777,1.623v-24.325c0-7.203-0.171-9.339-2.493-9.339
	c-1.427-0.061-2.843,0.277-4.089,0.976v31.039c0,1.636,0,1.636-10.408,1.623V361.531z"/>
<path d="M277.164,378.68c-0.264-1.715,0.66-1.715,11.529-1.702l1.741,11.463c1.557,10.236,1.913,17.043,1.913,17.043
	s0.567-3.034,1.596-9.418l2.717-16.45c0.277-1.557,0.567-1.807,3.351-1.794h5.949l3.126,18.271c1.016,5.646,1.319,9.418,1.319,9.418
	s0.475-6.872,2.07-17.03l1.504-9.656c0.277-1.794,0.277-1.794,10.962-1.781c0,0-8.719,40.894-9.365,40.894
	c-2.244,0.334-4.513,0.466-6.78,0.396c-2.523,0.101-4.752-1.633-5.277-4.103l-1.319-5.408c-0.681-3.248-1.161-6.534-1.438-9.841
	c-0.237,3.3-0.678,6.582-1.319,9.827l-1.979,9.089c0,0-4.367,0.396-8.086,0.396c-2.506,0-3.707-1.807-4.261-3.957
	C282.599,404.521,277.164,378.68,277.164,378.68z"/>
<path d="M260.82,375.738c-9.854,0-15.434,6.688-15.46,21.515c0,8.047,0.871,13.271,2.704,16.608l0.488-0.963
	c0.171-0.344,0.343-0.699,0.501-1.042l0.238-0.528c0.335-0.809,0.574-1.654,0.712-2.52c0-0.211,0.066-0.436,0.093-0.646
	c0.121-1.275,0.156-2.558,0.105-3.838c0.109-1.483,0.37-2.95,0.778-4.38c0-0.185,0.079-0.356,0.105-0.527
	c0.095-0.798,0.095-1.604,0-2.401c0-0.185,0-0.369,0-0.541c0-0.171,0-0.712-0.066-1.068c-0.066-0.356,0-0.356,0-0.527
	c0.104-0.986,0.147-1.977,0.132-2.968c0-0.198,0-0.396,0-0.594c0.158-1.319,0-2.77,1.134-3.575c0.515-0.448,1.24,0,1.412,0.607
	c0.123,1.06,0.079,2.133-0.132,3.179c0,0.185,0,0.369,0,0.554c-0.057,0.923-0.057,1.848,0,2.771
	c0.036,0.175,0.098,0.344,0.185,0.501c0.075,0.139,0.184,0.257,0.316,0.343c0.304,0.185,0.515,0.132,0.646-0.092
	c0.038-0.063,0.069-0.129,0.092-0.198c0.159-0.509,0.252-1.037,0.277-1.57c0-0.105,0-0.211,0-0.316
	c0.158-1.108,0.475-2.203,0.567-3.351c0-0.105,0-0.198,0-0.303s0.119-0.594,0.172-0.884l0.079-0.343l0.079-0.343
	c0-0.225,0.092-0.449,0.119-0.673c0.224-1.029,0-2.098,0.541-3.047c0.41-0.584,1.211-0.737,1.807-0.343
	c0.109,0.078,0.207,0.171,0.29,0.277c0.076,0.097,0.138,0.203,0.185,0.317c0.137,0.492,0.137,1.012,0,1.503l-0.079,0.396
	l-0.092,0.382l-0.105,0.515c0,0.171-0.066,0.343-0.105,0.514l-0.092,0.515c0,0.185,0,0.383-0.066,0.581
	c-0.106,1.176-0.292,2.344-0.554,3.496c0,0.105,0,0.211,0,0.316c-0.097,0.758-0.097,1.525,0,2.282c0,0.224,0.369,0.171,0.409,0.105
	c0.324-0.669,0.555-1.379,0.686-2.11l0.079-0.33c0.251-1.095,0.436-2.229,0.778-3.298c0-0.198,0.105-0.382,0.172-0.58l0.158-0.567
	l0.105-0.264l0.132-0.436l0.132-0.435c0.594-1.319,0.304-3.087,1.491-4.116c0.118-0.066,0.248-0.107,0.382-0.119
	c0.6-0.021,1.166,0.274,1.491,0.778c0.054,0.1,0.094,0.207,0.119,0.317c0.015,0.109,0.015,0.22,0,0.33
	c-0.185,0.844-0.541,1.609-0.686,2.454l-0.08,0.277c-0.209,0.739-0.364,1.493-0.461,2.255l-0.079,0.251
	c-0.092,0.448-0.211,0.923-0.343,1.385l-0.079,0.277c-0.145,0.501-0.29,1.055-0.409,1.543l-0.092,0.291
	c-0.159,0.488-0.356,0.963-0.488,1.438c-0.005,0.097-0.005,0.193,0,0.29c-0.036,0.316,0.044,0.635,0.224,0.897
	c0.105,0.092,0.251,0.066,0.409,0l0.211-0.264c0.268-0.278,0.486-0.599,0.646-0.95l0.158-0.356c0.449-1.253,0.937-2.493,1.319-3.733
	l0.158-0.383c0.316-0.752,0.633-1.504,0.923-2.282c0.066-0.211,0.145-0.435,0.237-0.646c0.277-0.712,0.646-1.319,1.201-1.504
	c0.147-0.034,0.301-0.034,0.448,0c0.768,0.134,1.282,0.865,1.148,1.633c-0.007,0.041-0.016,0.082-0.026,0.122
	c-0.204,0.85-0.505,1.673-0.897,2.454l-0.146,0.343c-0.384,1.23-0.86,2.43-1.424,3.588l-0.159,0.343
	c-0.396,0.91-0.805,1.821-1.108,2.757l-0.171,0.448c-0.158,0.448-0.316,0.91-0.436,1.319l-0.092,0.382
	c-0.12,0.513-0.199,1.033-0.237,1.557c0,0.146,0,0.291-0.066,0.436c-0.066,0.436-0.145,0.871-0.211,1.319
	c0.009,0.131,0.036,0.259,0.079,0.383c0.042,0.126,0.109,0.243,0.198,0.343c1.174,0,3.337-1.979,3.482-2.098
	c1.1-1.056,2.658-1.482,4.142-1.135c0.473,0.188,0.89,0.492,1.214,0.884c-0.567,1.214-1.966,1.662-2.889,2.375
	c-0.343,0.264-0.62,0.594-0.976,0.831c-0.627,0.374-1.211,0.816-1.741,1.319c-0.515,0.541-0.884,1.227-1.491,1.794
	c-0.759,0.634-1.576,1.195-2.44,1.675l-0.62,0.356c-1.082,0.541-1.979,1.095-3.113,1.675c-0.976,0.653-1.814,1.492-2.467,2.467
	c-0.449,0.778-1.676,3.522-2.44,5.277c1.799,0.411,3.642,0.602,5.487,0.567c10.039,0,15.25-6.53,15.276-22.333
	C275.304,380.421,270.766,375.751,260.82,375.738z"/>
</svg>
